M48
;Layer_Color=6321
;FILE_FORMAT=2:5
INCH,LZ
;TYPE=PLATED
T1F00S00C0.01000
T2F00S00C0.02000
T3F00S00C0.11800
%
T01
X010805Y012185
Y0136225
Y01506
X0183149Y0107744
X02123
X0241867
X0271227
X0300586
X0329945
X0359
X0388663
X0418022
X0447381
X047674
X0506099
X010805Y0164975
Y017935
X0107Y019235
Y0201267
X01151Y02067
X011625Y020952
X01153Y02133
X011815Y02181
X01202Y02205
X01237Y02068
X01133Y023085
X011325Y023815
Y02432
X01245Y04344
X01296Y04462
X01277Y04609
X015106Y0461342
X014779Y04344
X01148Y04498
X017108Y04344
X0198636Y0442418
X0187941Y0456308
X0217316
X0228011Y0442418
X0257385
X024669Y0456308
X0276064
X0286759Y0442418
X0305438Y0456308
X0316133Y0442418
X0345507
X0334812Y0456308
X0364187
X0374882Y0442418
X0404256
X0393561Y0456308
X0423235
X043393Y0442418
X0463062
X0452367Y0456308
X0481749
X0492444Y0442418
X0517315Y0447031
X0511058Y0456308
X0509114Y0477417
X05017Y047135
X0493382Y0478882
X0493778Y0492666
X049455Y050085
X0495503Y0508652
X0503575Y050541
X0510788Y0500552
X0508375Y051616
X051142Y0530464
X05033Y053835
X0479968Y0539994
X0481628Y05306
X0480275Y051641
X048525Y050575
X0481478Y05004
X0473875Y050566
X0479857Y0477539
X0470575Y047221
X049398Y0522313
X04945Y0578367
X04857Y0585333
X04966Y05943
X05121Y0589795
Y0577114
Y0564433
Y0602476
Y0615157
X04803Y0604724
X0461Y0609325
Y0597732
Y0586138
Y0574544
X0449567Y0571367
Y0583414
X04437Y0595462
X044375Y0607509
Y0619557
X0461Y0620919
X04265Y0617707
Y0604987
X04264Y0592267
X03971Y0586895
Y0600676
X03972Y0614457
X038255Y0617067
X03825Y060339
Y0589712
X03825Y0576035
X0381Y0562357
X03679
Y0578493
Y0594628
Y0610764
X03455Y061196
Y062312
X03283Y0621767
Y0610155
X03283Y0598544
X03455Y06008
X031975Y0586933
X0334785Y0539379
X0335108Y0530262
X0332875Y051551
X0327525Y050601
X0319131Y050885
X031869Y050085
X0317562Y0492487
X0317175Y047841
X0323475Y04717
X0333195Y0477389
X0346527Y0478843
X0353112Y047146
X0362375Y048756
X0364025Y0500307
X0368175Y050596
X0356775Y050591
X0348275Y050866
X0347875Y050101
X0347131Y0492506
X0334456Y0500288
X0338575Y050571
X0347077Y0522313
X0362925Y051626
X0364323Y0530378
X0364353Y0539398
X0376457Y0522313
X0377925Y050871
X0376975Y050086
X0376334Y0492441
X0375922Y0478847
X0382125Y047226
X0391967Y0477343
X0405317Y0478847
X0411925Y047226
X0421153Y0477157
X0435497Y0478072
X0441975Y047191
X045055Y0477168
X0464875Y0478249
X0465041Y0492215
X0465275Y050101
X046605Y050875
X0456075Y050611
X0452172Y0500324
X0444775Y050591
X0436712Y0508673
X0435825Y050106
X0435867Y0492407
X0422801Y0500264
X0426375Y050581
X0416275Y050556
X0407317Y050885
X040662Y050085
X0405907Y0492463
X0393229Y0500242
X0397325Y050571
X0385825Y050601
X0392325Y051621
X039359Y0530386
X0393556Y0539475
X0405838Y0522313
X0421825Y051691
X0423028Y0530378
X042313Y0539355
X0435219Y0522313
X0450825Y051661
X045238Y0530378
X0453405Y0539495
X04646Y0522313
X0317696
X0305618Y0530378
X0305314Y0539348
X0303725Y051551
X0309475Y050596
X0305478Y0500241
X0298275Y050556
X0289625Y050886
X0289042Y050101
X0288092Y0492456
X0287736Y0478847
X0274328Y0477657
X0266475Y047116
X0258341Y047884
X024493Y0477519
X0235925Y047211
X0228945Y0478853
X0229297Y0492617
X0230175Y050101
X0230125Y050851
X0220975Y050616
X0217224Y0500404
X02099Y050565
X020155Y050875
X020145Y050085
X0200329Y0492603
X019955Y047885
X020765Y04724
X0215634Y0477556
X0186257Y0477553
X0176653Y0472381
X0169857Y0478542
X0171963Y04926
X0171897Y050111
X0171925Y050886
X0178925Y0506081
X01921Y050595
X0187475Y050046
X0186525Y051636
X0188208Y0530378
X0185869Y0539902
X0171876Y05223
X0200173Y0522303
X02161Y0516
X0217561Y0530378
X0217552Y0539495
X0246519Y0539509
X0246913Y0530378
X024515Y051675
X0250025Y050596
X0246192Y0500418
X0239192Y0505264
X026034Y050875
X026007Y050085
X0259392Y0492706
X026862Y0505354
X0279332Y0505946
X027619Y0500347
X0274325Y051576
X0276266Y0530378
X0276614Y0539598
X0288315Y0522313
X025935Y05223
X0229554Y0522313
X02557Y0572
Y058605
Y06001
Y061415
X02733Y0613789
X02731Y0599619
X0272733Y0585449
X02891Y06001
X02909Y0618833
X03111Y0620771
Y0608828
Y0596886
Y0584943
Y0573
X0303725Y0477358
X0295025Y047076
X02146Y0587233
Y0601167
Y06151
X02014Y0619744
Y0607359
Y0594974
Y0582589
X017538Y0583557
Y0567363
X01585Y05793
X01592Y05504
X01637Y061121
X017528Y0615944
X017538Y059975
X02262Y06079
X014835Y05908
X01277Y0584
Y0563483
Y0542967
Y052245
X014025Y051795
X015106Y0512641
Y0495541
X013938Y0495526
Y0478426
X015106Y0478442
X01277Y0481417
Y0501933
X014745Y05351
X01277Y0604516
Y0625033
X01281Y064555
Y0666066
X013735Y06788
X014325Y069405
X014685Y0709
X01556Y07215
X0145151Y0735211
X01466Y07422
X01477Y0758
X01416Y077645
X01104Y0775425
X01102Y076265
X011Y0749875
X01102Y07371
X01323Y07385
X01274Y0749875
X012435Y06922
X015176Y0670686
X01452Y06533
X014595Y06322
X0163485Y062808
X017528Y0632138
Y0648331
Y0664525
X01636Y066182
X016075Y068255
X01603Y06957
X017528Y0696912
Y0680719
Y0713106
X01636Y071243
X017528Y07293
X01773Y07476
X01744Y07553
X018Y07653
X01854Y07501
X01895Y07522
X019435Y074165
Y073105
X02029Y07233
X0198Y07118
X0212385Y06979
X0216585Y06978
X0217312Y0685707
X02143Y06842
X02342Y06907
X02288Y07
X02504Y07003
X02675Y06979
X02717Y06978
X0272585Y0685707
X026955Y06842
X02929Y06887
X02836Y06991
X02832Y07139
X0284465Y0739058
X0288479Y0739145
X0289316Y0735471
X029326Y0736021
X02986Y07285
X030315Y0749305
X0306889Y074965
X03025Y0753386
X030325Y07575
X0290555Y0756785
X02922Y07696
X029725Y076655
X02972Y07729
X03072Y07768
X03096Y078
X0266575Y0751495
X02695Y0739
X0249029Y0741291
X0244539Y0742831
X0241206Y0744496
X02428Y07552
X02473Y07545
X0249074Y073227
X0244907Y0729898
X0243973Y0720752
X0241692Y0718339
X02295Y07352
X02296Y07382
X02298Y07474
X02233Y07583
X02231Y07613
X02237Y07683
X02268Y07747
X02227Y07774
X02005Y07728
X02043Y07543
X0209Y06351
X01947Y06339
X02228Y06293
X02316Y06382
X02557Y06311
X02728Y06264
X02721Y06376
X02907Y0637567
Y06493
Y0658
X031095Y06426
X03111Y0632714
X02606Y06481
X02549Y06573
X01564Y06452
X0323925Y06426
X0324075Y0633378
X033705Y063428
X03369Y06426
X03321Y06506
X03356Y06584
X0330435Y0686153
X03274Y06842
X032945Y06978
X032525Y06979
X03414Y06952
X03546Y06966
X03677Y07087
X0384015Y06979
X0388215Y06978
X03964Y06981
X03946Y07129
X03951Y07212
X0421644Y071563
X0423695Y0712993
X04223Y07022
X0442234Y06979
X0446434Y06978
X0447161Y0685707
X04441Y06842
X0443934Y0718147
X0440359Y0715125
X04372Y07251
X0449333Y0724589
X0451274Y0727022
X0453266Y0729272
X0454779Y0732002
X0461736Y0741249
X046213Y0744336
X04469Y07431
X0450043Y0751996
X0452089Y0754869
X044337Y076643
X0446Y07745
X045045Y077825
X04581Y07717
X04357Y07483
X0430812Y0737253
X0426715Y0737348
X0423511Y0736888
X0420936Y0735077
X03815Y07509
X03679Y07459
X036775Y076615
X03666Y07737
X0365035Y0777065
X03526Y07635
X03335Y0741
X03333Y07282
X031795Y073715
X03175Y07518
X038605Y06842
X03891Y06856
X03804Y06561
X03794Y06436
X03812Y0630745
X03679Y06269
X03972Y0628238
X0390625Y0639149
X04036Y06396
X04338Y06386
X04265Y0630427
X044375Y0631605
X04521Y06396
X0461Y0632513
X04658Y07166
X04925Y06979
X04967Y06978
X0497585Y0685603
X049455Y06842
X0489Y06416
X04855Y0633809
X04934Y06275
X05001Y06357
X05121Y0640519
Y0627838
X05086Y07212
Y0735617
Y0750033
Y076445
Y0778867
X047878Y0776314
X0476016Y0778848
X048118Y0772858
X0483836Y0770286
X0478588Y078787
X0475805Y0790327
X0472791Y07924
X04729Y0783
X0478068Y0807884
X048371Y0827759
X048118Y0830611
X0478068Y0833711
X0469785Y0836481
X0470086Y0839575
X04718Y08535
X04725Y0859918
X04755Y086727
X04821Y08745
X0494975Y0876144
X0498925Y086516
X0499357Y0861678
X0512025Y086656
X0507137Y0849722
X050411Y083611
X0500525Y082876
X05086Y08077
Y0793283
X04799Y08483
X0476147Y0892147
X04819Y08966
X0491925Y089161
X0492099Y0907
X0510575Y090606
X04705Y0887
X04663Y09085
X04629Y0916
X0444232Y0920892
X0440768Y0920928
X0425765Y09066
X0425985Y08966
X0425765Y08916
X042462Y0884205
X0416168Y0888702
X040034Y088664
X0400175Y089145
X0400615Y08966
X04052Y09094
X0383532Y0920892
X0380068Y0920928
X03624Y092
X03578Y09194
X03444Y09197
X0332Y09214
X03155Y09196
X03153Y09047
X0316205Y089701
X0315765Y089186
X031593Y088705
X031865Y0867325
X0315845Y085999
X032494Y085355
X03222Y08474
X0329283Y0841596
X0331778Y0839102
X03424Y08443
X03368Y08515
X03534Y08518
X0364688Y0857518
X03623Y0841
X0378421Y0841298
X0375552Y0837798
X0382768Y0832858
X0391333Y0831141
X03949Y0828725
X0398483Y0832329
X0402054Y0835546
X0409697Y0836126
X0413516Y083221
X0419653Y0831162
X0414502Y0823288
X0410645Y08221
X0408567Y0825028
X040549Y0825725
X0401962Y0825033
X0404291Y0822516
X03819Y08234
X03818Y08199
X0378141Y0806951
X0358518Y0804882
X0361309Y079497
X035897Y0792611
X0353389Y0784627
X03416Y08042
X033614Y080849
X033314Y0806725
X0334552Y0815418
X03381Y08177
X03416Y08321
X0324988Y0828579
X0321374Y0827133
X03196Y08148
X03137Y0815075
X0313615Y080588
X03232Y08122
X0319631Y0793219
X0317476Y0791132
X0315018Y0789154
X0312662Y0786522
X031869Y0783892
X032152Y0786421
X0324701Y0789058
X0328249Y0791591
X03263Y08711
X03413Y08899
X03407Y090565
X0363585Y09066
X0363805Y08966
X0363585Y08916
X0364992Y0884053
X0361739Y0879059
X03856Y08533
X0400255Y085958
X040306Y086727
X04134Y08714
X0422783Y0857472
X0434065Y0851489
X04441Y08513
X04507Y08452
X0463185
X0466301Y0845483
X0460183Y0842174
X0436522Y0840235
X043621Y0837235
X04378Y08248
X04329Y08254
X04296Y08256
X0418462Y0843479
X0411705Y0846017
X0452801Y0805262
X045612Y0807696
X04573Y07936
X04528Y07945
X04478Y0795
X04436Y07955
X02957Y08226
X0291668Y0825132
X02806Y08307
X02745Y08268
X02692
X027Y08238
X0269645Y0819865
X02646Y08221
X0265455Y082516
X02603Y082514
X0259035Y0832133
X0250342Y0832655
X02428Y08235
X0243832Y0818968
X0236685Y0807474
X0236662Y0802674
X0227001Y0803038
X02234Y08061
X02201Y08035
X02111Y08075
X0212532Y08105
X0204471Y0816814
X0206833Y0823938
X0194675Y082891
Y083591
X0188Y08446
X0195765Y0856824
X02103Y08487
X02271Y08485
X02329Y08434
X02186Y08373
X0257692Y0842313
X0254614Y0849675
X02512Y08599
X025514Y08673
X02683Y08713
X02705Y08521
X02727Y0845
X02723Y08375
X02699Y08355
X02986Y08406
X03073Y08482
X0303905Y0856836
X029224Y085075
X0278735Y0884205
X027988Y08916
X02801Y08966
X027988Y09066
X02628Y09089
X0252515Y08966
X0252075Y089145
X025224Y088664
X02506Y09223
X0235432Y0920892
X0231968Y0920928
X02148Y09154
X02142Y091
X02174Y09045
X021691Y08966
X021669Y08916
X0215545Y0884205
X01846Y0875747
X01678Y08719
X0172875Y085916
X017817Y090523
X01841Y090897
X02095Y09216
X02778Y0925
X0295568Y0920928
X0299032Y0920892
X0311971Y09229
X0188325Y082071
X0201Y0805
X0204865Y080199
X0209Y0798395
X0197779Y0795621
X0209608Y0783549
X0213947Y0783514
X0176525Y078601
X0159375Y078441
X011Y07882
X010895Y08648
Y0879325
Y08937
Y0908075
Y092245
X01248
Y0908075
Y08937
Y0879325
X014065Y0908075
Y092245
T02
X0164875Y079806
X0171025Y0798063
X01394Y0823938
Y08298
X0126575Y081806
Y081211
X0126275Y084166
T03
X01462Y01197
X04929Y028306
X01462
Y044642
X04929Y03849
Y060978
X01462
Y056355
X01271Y07695
X027478Y06527
X0353804
X0432828
X01271Y09399
X02647Y09397
X039
X05085
M30
