G04 Layer_Color=20142*
%FSLAX25Y25*%
%MOIN*%
G70*
G01*
G75*
%ADD81R,0.02841X0.02998*%
%ADD82R,0.04337X0.04534*%
%ADD83R,0.10439X0.12014*%
%ADD84R,0.12014X0.10439*%
%ADD85R,0.03353X0.04337*%
%ADD86R,0.06699X0.05321*%
%ADD87R,0.06384X0.02684*%
%ADD88R,0.01581X0.02959*%
%ADD89R,0.10164X0.06502*%
%ADD90O,0.06896X0.01581*%
%ADD91O,0.01581X0.06896*%
%ADD92O,0.01384X0.03550*%
%ADD93O,0.03550X0.01384*%
%ADD94R,0.03156X0.04337*%
%ADD95R,0.07093X0.03550*%
%ADD96R,0.04731X0.04731*%
%ADD97R,0.02565X0.02565*%
%ADD98R,0.03156X0.03353*%
%ADD99R,0.03353X0.03156*%
%ADD100R,0.02565X0.02565*%
%ADD101R,0.02600X0.02600*%
%ADD102R,0.02841X0.02841*%
%ADD103R,0.08274X0.16148*%
%ADD104R,0.03156X0.04140*%
%ADD105R,0.04140X0.03156*%
%ADD106R,0.03550X0.03550*%
%ADD107R,0.03550X0.03550*%
%ADD108R,0.02998X0.02841*%
%ADD109R,0.02447X0.02605*%
%ADD110R,0.02920X0.03077*%
%ADD111R,0.03200X0.04000*%
%ADD112R,0.11030X0.04337*%
%ADD113R,0.11030X0.12998*%
%ADD114O,0.07093X0.01778*%
%ADD115R,0.01975X0.05715*%
%ADD116R,0.08668X0.06699*%
%ADD117R,0.07487X0.07880*%
%ADD118R,0.04337X0.02762*%
%ADD119R,0.07487X0.05321*%
%ADD120R,0.02762X0.06306*%
%ADD121C,0.12200*%
%ADD122C,0.02400*%
%ADD123C,0.03400*%
D81*
X163225Y835878D02*
D03*
Y839342D02*
D03*
X429790Y812815D02*
D03*
Y816279D02*
D03*
X433691Y812819D02*
D03*
Y809355D02*
D03*
X386177Y819159D02*
D03*
Y822624D02*
D03*
X443864Y781883D02*
D03*
Y778419D02*
D03*
X290700Y811268D02*
D03*
Y814732D02*
D03*
X294205Y811237D02*
D03*
Y807773D02*
D03*
X247400Y818968D02*
D03*
Y822432D02*
D03*
X303740Y781925D02*
D03*
Y778460D02*
D03*
X173325Y478542D02*
D03*
Y475078D02*
D03*
X496750Y478882D02*
D03*
Y475418D02*
D03*
X467375Y478342D02*
D03*
Y474878D02*
D03*
X437975Y477992D02*
D03*
Y474528D02*
D03*
X408425Y478292D02*
D03*
Y474828D02*
D03*
X379125Y478842D02*
D03*
Y475378D02*
D03*
X349675Y478642D02*
D03*
Y475178D02*
D03*
X320325Y478042D02*
D03*
Y474578D02*
D03*
X290925Y478392D02*
D03*
Y474928D02*
D03*
X261475Y478492D02*
D03*
Y475028D02*
D03*
X232025Y478892D02*
D03*
Y475428D02*
D03*
X202650Y479082D02*
D03*
Y475618D02*
D03*
D82*
X158825Y835657D02*
D03*
Y841563D02*
D03*
D83*
X146625Y840507D02*
D03*
Y865113D02*
D03*
D84*
X167978Y809010D02*
D03*
X143372D02*
D03*
D85*
X218028Y510971D02*
D03*
Y522388D02*
D03*
X212910D02*
D03*
Y510971D02*
D03*
X218015Y481256D02*
D03*
Y492673D02*
D03*
X212897D02*
D03*
Y481256D02*
D03*
X247420Y510971D02*
D03*
Y522388D02*
D03*
X242302D02*
D03*
Y510971D02*
D03*
X247393Y481256D02*
D03*
Y492673D02*
D03*
X242275D02*
D03*
Y481256D02*
D03*
X276811Y510971D02*
D03*
Y522388D02*
D03*
X271693D02*
D03*
Y510971D02*
D03*
X276772Y481256D02*
D03*
Y492673D02*
D03*
X271654D02*
D03*
Y481256D02*
D03*
X306202Y510971D02*
D03*
Y522388D02*
D03*
X301084D02*
D03*
Y510971D02*
D03*
X306150Y481256D02*
D03*
Y492673D02*
D03*
X301032D02*
D03*
Y481256D02*
D03*
X335594Y510971D02*
D03*
Y522388D02*
D03*
X330475D02*
D03*
Y510971D02*
D03*
X335528Y481256D02*
D03*
Y492673D02*
D03*
X330410D02*
D03*
Y481256D02*
D03*
X364985Y510971D02*
D03*
Y522388D02*
D03*
X359867D02*
D03*
Y510971D02*
D03*
X364907Y481256D02*
D03*
Y492673D02*
D03*
X359788D02*
D03*
Y481256D02*
D03*
X394376Y510971D02*
D03*
Y522388D02*
D03*
X389258D02*
D03*
Y510971D02*
D03*
X394285Y481256D02*
D03*
Y492673D02*
D03*
X389167D02*
D03*
Y481256D02*
D03*
X423667Y510971D02*
D03*
Y522388D02*
D03*
X418549D02*
D03*
Y510971D02*
D03*
X423663Y481256D02*
D03*
Y492673D02*
D03*
X418545D02*
D03*
Y481256D02*
D03*
X453159Y510971D02*
D03*
Y522388D02*
D03*
X448041D02*
D03*
Y510971D02*
D03*
X453041Y481256D02*
D03*
Y492673D02*
D03*
X447923D02*
D03*
Y481256D02*
D03*
X482550Y510971D02*
D03*
Y522388D02*
D03*
X477432D02*
D03*
Y510971D02*
D03*
X482420Y481256D02*
D03*
Y492673D02*
D03*
X477302D02*
D03*
Y481256D02*
D03*
X511941Y510971D02*
D03*
Y522388D02*
D03*
X506823D02*
D03*
Y510971D02*
D03*
X511798Y481256D02*
D03*
Y492673D02*
D03*
X506680D02*
D03*
Y481256D02*
D03*
X188637Y510971D02*
D03*
Y522388D02*
D03*
X183519D02*
D03*
Y510971D02*
D03*
X188637Y481256D02*
D03*
Y492673D02*
D03*
X183519D02*
D03*
Y481256D02*
D03*
D86*
X360616Y822031D02*
D03*
X375183D02*
D03*
Y813369D02*
D03*
X360616D02*
D03*
X221617Y822231D02*
D03*
X236183D02*
D03*
Y813569D02*
D03*
X221617D02*
D03*
D87*
X391861Y881600D02*
D03*
Y886600D02*
D03*
Y891600D02*
D03*
Y896600D02*
D03*
Y901600D02*
D03*
Y906600D02*
D03*
Y911600D02*
D03*
X370129Y881600D02*
D03*
Y886600D02*
D03*
Y891600D02*
D03*
Y896600D02*
D03*
Y901600D02*
D03*
Y906600D02*
D03*
Y911600D02*
D03*
X454041Y881600D02*
D03*
Y886600D02*
D03*
Y891600D02*
D03*
Y896600D02*
D03*
Y901600D02*
D03*
Y906600D02*
D03*
Y911600D02*
D03*
X432309Y881600D02*
D03*
Y886600D02*
D03*
Y891600D02*
D03*
Y896600D02*
D03*
Y901600D02*
D03*
Y906600D02*
D03*
Y911600D02*
D03*
X244966Y881600D02*
D03*
Y886600D02*
D03*
Y891600D02*
D03*
Y896600D02*
D03*
Y901600D02*
D03*
Y906600D02*
D03*
Y911600D02*
D03*
X223234Y881600D02*
D03*
Y886600D02*
D03*
Y891600D02*
D03*
Y896600D02*
D03*
Y901600D02*
D03*
Y906600D02*
D03*
Y911600D02*
D03*
X308156Y881600D02*
D03*
Y886600D02*
D03*
Y891600D02*
D03*
Y896600D02*
D03*
Y901600D02*
D03*
Y906600D02*
D03*
Y911600D02*
D03*
X286424Y881600D02*
D03*
Y886600D02*
D03*
Y891600D02*
D03*
Y896600D02*
D03*
Y901600D02*
D03*
Y906600D02*
D03*
Y911600D02*
D03*
D88*
X331248Y704092D02*
D03*
X329280D02*
D03*
X327311D02*
D03*
X325343D02*
D03*
X323374D02*
D03*
Y691888D02*
D03*
X325343D02*
D03*
X327311D02*
D03*
X329280D02*
D03*
X331248D02*
D03*
X390013Y704092D02*
D03*
X388045D02*
D03*
X386076D02*
D03*
X384108D02*
D03*
X382139D02*
D03*
Y691888D02*
D03*
X384108D02*
D03*
X386076D02*
D03*
X388045D02*
D03*
X390013D02*
D03*
X448233Y704092D02*
D03*
X446264D02*
D03*
X444296D02*
D03*
X442327D02*
D03*
X440359D02*
D03*
Y691888D02*
D03*
X442327D02*
D03*
X444296D02*
D03*
X446264D02*
D03*
X448233D02*
D03*
X498498Y704092D02*
D03*
X496530D02*
D03*
X494561D02*
D03*
X492593D02*
D03*
X490624D02*
D03*
Y691888D02*
D03*
X492593D02*
D03*
X494561D02*
D03*
X496530D02*
D03*
X498498D02*
D03*
X218384Y704092D02*
D03*
X216415D02*
D03*
X214446D02*
D03*
X212478D02*
D03*
X210509D02*
D03*
Y691888D02*
D03*
X212478D02*
D03*
X214446D02*
D03*
X216415D02*
D03*
X218384D02*
D03*
X273498Y704092D02*
D03*
X271530D02*
D03*
X269561D02*
D03*
X267593D02*
D03*
X265624D02*
D03*
Y691888D02*
D03*
X267593D02*
D03*
X269561D02*
D03*
X271530D02*
D03*
X273498D02*
D03*
D89*
X327311Y697990D02*
D03*
X386076D02*
D03*
X444296D02*
D03*
X494561D02*
D03*
X214446D02*
D03*
X269561D02*
D03*
D90*
X429149Y775936D02*
D03*
Y777905D02*
D03*
Y779873D02*
D03*
Y781842D02*
D03*
Y783810D02*
D03*
Y785779D02*
D03*
Y787747D02*
D03*
Y789716D02*
D03*
Y791684D02*
D03*
Y793653D02*
D03*
Y795621D02*
D03*
Y797590D02*
D03*
Y799558D02*
D03*
Y801527D02*
D03*
Y803495D02*
D03*
Y805464D02*
D03*
X385251D02*
D03*
Y803495D02*
D03*
Y801527D02*
D03*
Y799558D02*
D03*
Y797590D02*
D03*
Y795621D02*
D03*
Y793653D02*
D03*
Y791684D02*
D03*
Y789716D02*
D03*
Y787747D02*
D03*
Y785779D02*
D03*
Y783810D02*
D03*
Y781842D02*
D03*
Y779873D02*
D03*
Y777905D02*
D03*
Y775936D02*
D03*
X288449D02*
D03*
Y777905D02*
D03*
Y779873D02*
D03*
Y781842D02*
D03*
Y783810D02*
D03*
Y785779D02*
D03*
Y787747D02*
D03*
Y789716D02*
D03*
Y791684D02*
D03*
Y793653D02*
D03*
Y795621D02*
D03*
Y797590D02*
D03*
Y799558D02*
D03*
Y801527D02*
D03*
Y803495D02*
D03*
Y805464D02*
D03*
X244551D02*
D03*
Y803495D02*
D03*
Y801527D02*
D03*
Y799558D02*
D03*
Y797590D02*
D03*
Y795621D02*
D03*
Y793653D02*
D03*
Y791684D02*
D03*
Y789716D02*
D03*
Y787747D02*
D03*
Y785779D02*
D03*
Y783810D02*
D03*
Y781842D02*
D03*
Y779873D02*
D03*
Y777905D02*
D03*
Y775936D02*
D03*
D91*
X421964Y812649D02*
D03*
X419995D02*
D03*
X418027D02*
D03*
X416058D02*
D03*
X414090D02*
D03*
X412121D02*
D03*
X410153D02*
D03*
X408184D02*
D03*
X406216D02*
D03*
X404247D02*
D03*
X402279D02*
D03*
X400310D02*
D03*
X398342D02*
D03*
X396373D02*
D03*
X394405D02*
D03*
X392436D02*
D03*
Y768751D02*
D03*
X394405D02*
D03*
X396373D02*
D03*
X398342D02*
D03*
X400310D02*
D03*
X402279D02*
D03*
X404247D02*
D03*
X406216D02*
D03*
X408184D02*
D03*
X410153D02*
D03*
X412121D02*
D03*
X414090D02*
D03*
X416058D02*
D03*
X418027D02*
D03*
X419995D02*
D03*
X421964D02*
D03*
X281264Y812649D02*
D03*
X279295D02*
D03*
X277327D02*
D03*
X275358D02*
D03*
X273390D02*
D03*
X271421D02*
D03*
X269453D02*
D03*
X267484D02*
D03*
X265516D02*
D03*
X263547D02*
D03*
X261579D02*
D03*
X259610D02*
D03*
X257642D02*
D03*
X255673D02*
D03*
X253705D02*
D03*
X251736D02*
D03*
Y768751D02*
D03*
X253705D02*
D03*
X255673D02*
D03*
X257642D02*
D03*
X259610D02*
D03*
X261579D02*
D03*
X263547D02*
D03*
X265516D02*
D03*
X267484D02*
D03*
X269453D02*
D03*
X271421D02*
D03*
X273390D02*
D03*
X275358D02*
D03*
X277327D02*
D03*
X279295D02*
D03*
X281264D02*
D03*
D92*
X268817Y841417D02*
D03*
X270786D02*
D03*
X272754D02*
D03*
X274723D02*
D03*
Y830393D02*
D03*
X272754D02*
D03*
X270786D02*
D03*
X268817D02*
D03*
X408547Y828603D02*
D03*
X410516D02*
D03*
X412484D02*
D03*
X414453D02*
D03*
Y839627D02*
D03*
X412484D02*
D03*
X410516D02*
D03*
X408547D02*
D03*
D93*
X277282Y838858D02*
D03*
Y836889D02*
D03*
Y834921D02*
D03*
Y832952D02*
D03*
X266258D02*
D03*
Y834921D02*
D03*
Y836889D02*
D03*
Y838858D02*
D03*
X405988Y837068D02*
D03*
Y835099D02*
D03*
Y833131D02*
D03*
Y831162D02*
D03*
X417012D02*
D03*
Y833131D02*
D03*
Y835099D02*
D03*
Y837068D02*
D03*
D94*
X208742Y492599D02*
D03*
X201262D02*
D03*
X208742Y483150D02*
D03*
X205002D02*
D03*
X201262D02*
D03*
X238155Y522299D02*
D03*
X230675D02*
D03*
X238155Y512851D02*
D03*
X234415D02*
D03*
X230675D02*
D03*
X238129Y492599D02*
D03*
X230649D02*
D03*
X238129Y483150D02*
D03*
X234389D02*
D03*
X230649D02*
D03*
X267555Y522299D02*
D03*
X260075D02*
D03*
X267555Y512851D02*
D03*
X263815D02*
D03*
X260075D02*
D03*
X267516Y492599D02*
D03*
X260036D02*
D03*
X267516Y483150D02*
D03*
X263776D02*
D03*
X260036D02*
D03*
X296955Y522299D02*
D03*
X289475D02*
D03*
X296955Y512851D02*
D03*
X293215D02*
D03*
X289475D02*
D03*
X296903Y492599D02*
D03*
X289423D02*
D03*
X296903Y483150D02*
D03*
X293163D02*
D03*
X289423D02*
D03*
X326355Y522299D02*
D03*
X318875D02*
D03*
X326355Y512851D02*
D03*
X322615D02*
D03*
X318875D02*
D03*
X326290Y492599D02*
D03*
X318810D02*
D03*
X326290Y483150D02*
D03*
X322550D02*
D03*
X318810D02*
D03*
X355755Y522299D02*
D03*
X348275D02*
D03*
X355755Y512851D02*
D03*
X352015D02*
D03*
X348275D02*
D03*
X355677Y492599D02*
D03*
X348197D02*
D03*
X355677Y483150D02*
D03*
X351937D02*
D03*
X348197D02*
D03*
X385155Y522299D02*
D03*
X377675D02*
D03*
X385155Y512851D02*
D03*
X381415D02*
D03*
X377675D02*
D03*
X385064Y492599D02*
D03*
X377583D02*
D03*
X385064Y483150D02*
D03*
X381324D02*
D03*
X377583D02*
D03*
X414555Y522299D02*
D03*
X407075D02*
D03*
X414555Y512851D02*
D03*
X410815D02*
D03*
X407075D02*
D03*
X414451Y492599D02*
D03*
X406970D02*
D03*
X414451Y483150D02*
D03*
X410710D02*
D03*
X406970D02*
D03*
X443955Y522299D02*
D03*
X436475D02*
D03*
X443955Y512851D02*
D03*
X440215D02*
D03*
X436475D02*
D03*
X443838Y492599D02*
D03*
X436357D02*
D03*
X443838Y483150D02*
D03*
X440098D02*
D03*
X436357D02*
D03*
X473355Y522299D02*
D03*
X465875D02*
D03*
X473355Y512851D02*
D03*
X469615D02*
D03*
X465875D02*
D03*
X473225Y492599D02*
D03*
X465744D02*
D03*
X473225Y483150D02*
D03*
X469485D02*
D03*
X465744D02*
D03*
X502755Y522299D02*
D03*
X495275D02*
D03*
X502755Y512851D02*
D03*
X499015D02*
D03*
X495275D02*
D03*
X502611Y492599D02*
D03*
X495131D02*
D03*
X502611Y483150D02*
D03*
X498871D02*
D03*
X495131D02*
D03*
X179355Y522299D02*
D03*
X171875D02*
D03*
X179355Y512851D02*
D03*
X175615D02*
D03*
X171875D02*
D03*
X179355Y492599D02*
D03*
X171875D02*
D03*
X179355Y483150D02*
D03*
X175615D02*
D03*
X171875D02*
D03*
X208755Y522299D02*
D03*
X201275D02*
D03*
X208755Y512851D02*
D03*
X205015D02*
D03*
X201275D02*
D03*
D95*
X426488Y849498D02*
D03*
Y836112D02*
D03*
X287385Y847905D02*
D03*
Y834519D02*
D03*
D96*
X251330Y442418D02*
D03*
X238338D02*
D03*
X280709D02*
D03*
X267717D02*
D03*
X310087D02*
D03*
X297095D02*
D03*
X339465D02*
D03*
X326473D02*
D03*
X368844D02*
D03*
X355851D02*
D03*
X398222D02*
D03*
X385230D02*
D03*
X427600D02*
D03*
X414608D02*
D03*
X456978D02*
D03*
X443986D02*
D03*
X486357D02*
D03*
X473364D02*
D03*
X515735D02*
D03*
X502743D02*
D03*
X221952D02*
D03*
X208960D02*
D03*
X192574D02*
D03*
X179582D02*
D03*
D97*
X213685Y452515D02*
D03*
X217228D02*
D03*
X243063D02*
D03*
X246606D02*
D03*
X272441D02*
D03*
X275984D02*
D03*
X301819D02*
D03*
X305363D02*
D03*
X331198D02*
D03*
X334741D02*
D03*
X360576D02*
D03*
X364119D02*
D03*
X389954D02*
D03*
X393497D02*
D03*
X419332D02*
D03*
X422876D02*
D03*
X448711D02*
D03*
X452254D02*
D03*
X478089D02*
D03*
X481632D02*
D03*
X507467D02*
D03*
X511011D02*
D03*
X436404Y784110D02*
D03*
X439948D02*
D03*
X436304Y787310D02*
D03*
X439848D02*
D03*
X295998Y784025D02*
D03*
X299542D02*
D03*
X296028Y787400D02*
D03*
X299572D02*
D03*
X209472Y475850D02*
D03*
X205928D02*
D03*
X238897Y475310D02*
D03*
X235353D02*
D03*
X268497Y474210D02*
D03*
X264953D02*
D03*
X298047Y473760D02*
D03*
X294503D02*
D03*
X326997Y475110D02*
D03*
X323453D02*
D03*
X356647Y475210D02*
D03*
X353103D02*
D03*
X385797D02*
D03*
X382253D02*
D03*
X415047Y475010D02*
D03*
X411503D02*
D03*
X444447Y474610D02*
D03*
X440903D02*
D03*
X474047D02*
D03*
X470503D02*
D03*
X503572Y475300D02*
D03*
X500028D02*
D03*
X180197Y475110D02*
D03*
X176653D02*
D03*
X198100Y508272D02*
D03*
Y504728D02*
D03*
X204278Y468650D02*
D03*
X207822D02*
D03*
X232553Y468310D02*
D03*
X236097D02*
D03*
X259303Y469610D02*
D03*
X262846D02*
D03*
X292053Y467660D02*
D03*
X295597D02*
D03*
X322053Y467960D02*
D03*
X325596D02*
D03*
X351003Y468360D02*
D03*
X354546D02*
D03*
X379753Y469160D02*
D03*
X383296D02*
D03*
X409653Y468560D02*
D03*
X413197D02*
D03*
X438853Y468710D02*
D03*
X442397D02*
D03*
X466653Y468860D02*
D03*
X470197D02*
D03*
X174353Y468310D02*
D03*
X177897D02*
D03*
X214574Y526775D02*
D03*
X218117D02*
D03*
X214839Y496775D02*
D03*
X218382D02*
D03*
X243975Y526775D02*
D03*
X247519D02*
D03*
X244206Y496775D02*
D03*
X247749D02*
D03*
X273377Y526775D02*
D03*
X276921D02*
D03*
X273573Y496775D02*
D03*
X277116D02*
D03*
X302779Y526775D02*
D03*
X306323D02*
D03*
X302940Y496775D02*
D03*
X306483D02*
D03*
X332181Y526775D02*
D03*
X335724D02*
D03*
X332307Y496775D02*
D03*
X335850D02*
D03*
X361583Y526775D02*
D03*
X365126D02*
D03*
X361674Y496775D02*
D03*
X365217D02*
D03*
X390985Y526775D02*
D03*
X394528D02*
D03*
X391041Y496775D02*
D03*
X394585D02*
D03*
X420387Y526775D02*
D03*
X423930D02*
D03*
X420408Y496775D02*
D03*
X423952D02*
D03*
X449789Y526775D02*
D03*
X453332D02*
D03*
X449776Y496775D02*
D03*
X453319D02*
D03*
X479190Y526775D02*
D03*
X482734D02*
D03*
X479143Y496775D02*
D03*
X482686D02*
D03*
X508592Y526775D02*
D03*
X512136D02*
D03*
X508510Y496775D02*
D03*
X512053D02*
D03*
X185172Y526775D02*
D03*
X188715D02*
D03*
X185472Y496775D02*
D03*
X189015D02*
D03*
X199897Y526875D02*
D03*
X203440D02*
D03*
X199115Y496762D02*
D03*
X202659D02*
D03*
X229321Y526875D02*
D03*
X232865D02*
D03*
X228228Y496400D02*
D03*
X231772D02*
D03*
X258746Y526875D02*
D03*
X262290D02*
D03*
X257784Y496606D02*
D03*
X261328D02*
D03*
X288171Y526875D02*
D03*
X291714D02*
D03*
X286750Y496752D02*
D03*
X290294D02*
D03*
X317596Y526875D02*
D03*
X321139D02*
D03*
X316557Y496641D02*
D03*
X320101D02*
D03*
X347021Y526875D02*
D03*
X350564D02*
D03*
X345658Y496760D02*
D03*
X349202D02*
D03*
X376327Y526707D02*
D03*
X379871D02*
D03*
X375065Y496692D02*
D03*
X378609D02*
D03*
X405518Y526639D02*
D03*
X409062D02*
D03*
X404487Y496693D02*
D03*
X408031D02*
D03*
X435295Y526875D02*
D03*
X438839D02*
D03*
X434271Y496875D02*
D03*
X437814D02*
D03*
X464720Y526875D02*
D03*
X468263D02*
D03*
X463278Y496600D02*
D03*
X466822D02*
D03*
X494145Y526875D02*
D03*
X497688D02*
D03*
X493028Y496650D02*
D03*
X496572D02*
D03*
X170472Y526875D02*
D03*
X174015D02*
D03*
X169772Y496875D02*
D03*
X173315D02*
D03*
X208869Y539475D02*
D03*
X205326D02*
D03*
X238252D02*
D03*
X234708D02*
D03*
X267634D02*
D03*
X264091D02*
D03*
X297017D02*
D03*
X293474D02*
D03*
X326400D02*
D03*
X322856D02*
D03*
X355782D02*
D03*
X352239D02*
D03*
X385165D02*
D03*
X381622D02*
D03*
X414547D02*
D03*
X411004D02*
D03*
X443930D02*
D03*
X440387D02*
D03*
X470097Y535010D02*
D03*
X466553D02*
D03*
X499322Y535100D02*
D03*
X495778D02*
D03*
X179487Y539475D02*
D03*
X175943D02*
D03*
X205207Y531575D02*
D03*
X201664D02*
D03*
X201604Y501100D02*
D03*
X198061D02*
D03*
X234628Y531575D02*
D03*
X231084D02*
D03*
X230622Y500900D02*
D03*
X227078D02*
D03*
X264048Y531575D02*
D03*
X260505D02*
D03*
X260194Y501100D02*
D03*
X256651D02*
D03*
X293469Y531575D02*
D03*
X289925D02*
D03*
X289489Y501100D02*
D03*
X285946D02*
D03*
X322889Y531575D02*
D03*
X319346D02*
D03*
X318784Y501100D02*
D03*
X315241D02*
D03*
X352310Y531575D02*
D03*
X348766D02*
D03*
X348079Y501100D02*
D03*
X344536D02*
D03*
X381730Y531575D02*
D03*
X378187D02*
D03*
X377374Y501100D02*
D03*
X373831D02*
D03*
X411151Y531575D02*
D03*
X407607D02*
D03*
X406669Y501100D02*
D03*
X403126D02*
D03*
X440574Y531766D02*
D03*
X437030D02*
D03*
X435964Y501250D02*
D03*
X432421D02*
D03*
X470021Y531800D02*
D03*
X466477D02*
D03*
X465422Y501000D02*
D03*
X461878D02*
D03*
X499367Y531832D02*
D03*
X495823D02*
D03*
X494522Y500900D02*
D03*
X490978D02*
D03*
X175787Y531575D02*
D03*
X172243D02*
D03*
X171897Y501110D02*
D03*
X168353D02*
D03*
X184306Y452515D02*
D03*
X187850D02*
D03*
D98*
X163500Y905230D02*
D03*
Y908970D02*
D03*
X266575Y755100D02*
D03*
Y758840D02*
D03*
X270665Y752955D02*
D03*
Y756695D02*
D03*
X163800Y871830D02*
D03*
Y875570D02*
D03*
D99*
X439630Y762000D02*
D03*
X443370D02*
D03*
X437788Y809424D02*
D03*
X441528D02*
D03*
X303130Y799800D02*
D03*
X306870D02*
D03*
X297860Y807835D02*
D03*
X301600D02*
D03*
D100*
X207550Y502378D02*
D03*
Y505922D02*
D03*
X236865Y502428D02*
D03*
Y505972D02*
D03*
X266230Y502428D02*
D03*
Y505972D02*
D03*
X295595Y502428D02*
D03*
Y505972D02*
D03*
X324960Y502428D02*
D03*
Y505972D02*
D03*
X354325Y502428D02*
D03*
Y505972D02*
D03*
X383690Y502428D02*
D03*
Y505972D02*
D03*
X413055Y502428D02*
D03*
Y505972D02*
D03*
X442420Y502428D02*
D03*
Y505972D02*
D03*
X471650Y502428D02*
D03*
Y505972D02*
D03*
X501150Y502328D02*
D03*
Y505872D02*
D03*
X178925Y502538D02*
D03*
Y506081D02*
D03*
X227025Y508432D02*
D03*
Y504888D02*
D03*
X256740Y508422D02*
D03*
Y504878D02*
D03*
X286060Y509022D02*
D03*
Y505478D02*
D03*
X315380Y509022D02*
D03*
Y505478D02*
D03*
X344700Y509022D02*
D03*
Y505478D02*
D03*
X374020Y509022D02*
D03*
Y505478D02*
D03*
X403340Y509022D02*
D03*
Y505478D02*
D03*
X432660Y509022D02*
D03*
Y505478D02*
D03*
X462050Y509022D02*
D03*
Y505478D02*
D03*
X491300Y508122D02*
D03*
Y504578D02*
D03*
X496750Y468878D02*
D03*
Y472422D02*
D03*
X168525Y510332D02*
D03*
Y506788D02*
D03*
X198950Y475272D02*
D03*
Y471728D02*
D03*
X228525Y475132D02*
D03*
Y471588D02*
D03*
X258225Y475632D02*
D03*
Y472088D02*
D03*
X287675Y475132D02*
D03*
Y471588D02*
D03*
X316975Y475282D02*
D03*
Y471738D02*
D03*
X346475Y475182D02*
D03*
Y471638D02*
D03*
X375425Y475432D02*
D03*
Y471888D02*
D03*
X405175Y475132D02*
D03*
Y471588D02*
D03*
X434725Y475032D02*
D03*
Y471488D02*
D03*
X463825Y475682D02*
D03*
Y472138D02*
D03*
X493450Y475572D02*
D03*
Y472028D02*
D03*
X169625Y475182D02*
D03*
Y471638D02*
D03*
D101*
X204700Y505250D02*
D03*
X200700D02*
D03*
X205575Y478960D02*
D03*
X209575D02*
D03*
X234005Y505250D02*
D03*
X230005D02*
D03*
X235075Y478660D02*
D03*
X239075D02*
D03*
X263360Y505250D02*
D03*
X259360D02*
D03*
X264575Y477710D02*
D03*
X268575D02*
D03*
X292715Y505250D02*
D03*
X288715D02*
D03*
X293925Y477360D02*
D03*
X297925D02*
D03*
X322070Y505250D02*
D03*
X318070D02*
D03*
X323125Y478460D02*
D03*
X327125D02*
D03*
X351425Y505250D02*
D03*
X347425D02*
D03*
X352525Y478460D02*
D03*
X356525D02*
D03*
X380780Y505250D02*
D03*
X376780D02*
D03*
X381925Y478560D02*
D03*
X385925D02*
D03*
X410135Y505250D02*
D03*
X406135D02*
D03*
X411025Y478260D02*
D03*
X415025D02*
D03*
X439490Y505250D02*
D03*
X435490D02*
D03*
X440575Y478210D02*
D03*
X444575D02*
D03*
X468845Y505250D02*
D03*
X464845D02*
D03*
X470075Y478110D02*
D03*
X474075D02*
D03*
X498200Y505200D02*
D03*
X494200D02*
D03*
X499500Y479000D02*
D03*
X503500D02*
D03*
X175725Y505760D02*
D03*
X171725D02*
D03*
X176175Y478560D02*
D03*
X180175D02*
D03*
X119700Y206800D02*
D03*
X123700D02*
D03*
X123800Y213300D02*
D03*
X119800D02*
D03*
D102*
X214572Y500200D02*
D03*
X211028D02*
D03*
X242469Y531275D02*
D03*
X238926D02*
D03*
X243822Y500200D02*
D03*
X240278D02*
D03*
X271861Y531275D02*
D03*
X268317D02*
D03*
X273647Y500260D02*
D03*
X270103D02*
D03*
X301252Y531275D02*
D03*
X297709D02*
D03*
X302682Y500184D02*
D03*
X299138D02*
D03*
X330643Y531275D02*
D03*
X327100D02*
D03*
X332052Y500575D02*
D03*
X328508D02*
D03*
X360034Y531275D02*
D03*
X356491D02*
D03*
X361422Y500575D02*
D03*
X357878D02*
D03*
X389426Y531275D02*
D03*
X385882D02*
D03*
X390792Y500350D02*
D03*
X387248D02*
D03*
X418817Y531275D02*
D03*
X415274D02*
D03*
X420162Y500600D02*
D03*
X416618D02*
D03*
X448208Y531275D02*
D03*
X444665D02*
D03*
X449532Y500575D02*
D03*
X445988D02*
D03*
X477600Y531275D02*
D03*
X474056D02*
D03*
X479422Y500350D02*
D03*
X475878D02*
D03*
X506991Y531275D02*
D03*
X503448D02*
D03*
X508272Y500150D02*
D03*
X504728D02*
D03*
X183687Y531275D02*
D03*
X180143D02*
D03*
X185741Y500575D02*
D03*
X182198D02*
D03*
X213078Y531275D02*
D03*
X209535D02*
D03*
D103*
X310559Y656942D02*
D03*
X322370D02*
D03*
X367724Y672690D02*
D03*
X379535D02*
D03*
X426590D02*
D03*
X438401D02*
D03*
X478556Y656942D02*
D03*
X490367D02*
D03*
X196756D02*
D03*
X208567D02*
D03*
X275594Y672690D02*
D03*
X287405D02*
D03*
X333044D02*
D03*
X344855D02*
D03*
X390209Y656942D02*
D03*
X402021D02*
D03*
X449075D02*
D03*
X460886D02*
D03*
X501041D02*
D03*
X512852D02*
D03*
X219241D02*
D03*
X231052D02*
D03*
X253109Y672690D02*
D03*
X264920D02*
D03*
D104*
X437800Y819930D02*
D03*
Y813434D02*
D03*
X297985Y818463D02*
D03*
Y811967D02*
D03*
D105*
X442062Y805264D02*
D03*
X448558D02*
D03*
X302157Y803975D02*
D03*
X308653D02*
D03*
D106*
X433700Y768053D02*
D03*
Y762147D02*
D03*
D107*
X297347Y795800D02*
D03*
X303253D02*
D03*
D108*
X231968Y917000D02*
D03*
X235432D02*
D03*
X380068D02*
D03*
X383532D02*
D03*
X295568D02*
D03*
X299032D02*
D03*
X440768D02*
D03*
X444232D02*
D03*
X423842Y820658D02*
D03*
X420377D02*
D03*
X439742Y791011D02*
D03*
X436277D02*
D03*
X295132Y828400D02*
D03*
X291668D02*
D03*
X299432Y791000D02*
D03*
X295968D02*
D03*
X207222Y526975D02*
D03*
X210686D02*
D03*
X207060Y496875D02*
D03*
X210524D02*
D03*
X236632Y526975D02*
D03*
X240097D02*
D03*
X236437Y496875D02*
D03*
X239901D02*
D03*
X266043Y526975D02*
D03*
X269507D02*
D03*
X265814Y496875D02*
D03*
X269278D02*
D03*
X295453Y526975D02*
D03*
X298918D02*
D03*
X295191Y496875D02*
D03*
X298655D02*
D03*
X324864Y526975D02*
D03*
X328328D02*
D03*
X324568Y496875D02*
D03*
X328032D02*
D03*
X354274Y526975D02*
D03*
X357739D02*
D03*
X353945Y496875D02*
D03*
X357409D02*
D03*
X383685Y526975D02*
D03*
X387150D02*
D03*
X383322Y496875D02*
D03*
X386786D02*
D03*
X413096Y526975D02*
D03*
X416560D02*
D03*
X412699Y496875D02*
D03*
X416163D02*
D03*
X442506Y526975D02*
D03*
X445971D02*
D03*
X442076Y496875D02*
D03*
X445540D02*
D03*
X471917Y526975D02*
D03*
X475381D02*
D03*
X471453Y496875D02*
D03*
X474917D02*
D03*
X501327Y526975D02*
D03*
X504792D02*
D03*
X500830Y496875D02*
D03*
X504294D02*
D03*
X177811Y526975D02*
D03*
X181276D02*
D03*
X177683Y496875D02*
D03*
X181147D02*
D03*
X145232Y229300D02*
D03*
X141768D02*
D03*
X174043Y508960D02*
D03*
X177507D02*
D03*
X497868Y508700D02*
D03*
X501332D02*
D03*
X468498Y508900D02*
D03*
X471962D02*
D03*
X439128D02*
D03*
X442592D02*
D03*
X409758D02*
D03*
X413222D02*
D03*
X380388D02*
D03*
X383852D02*
D03*
X351018D02*
D03*
X354482D02*
D03*
X321648D02*
D03*
X325112D02*
D03*
X292278D02*
D03*
X295742D02*
D03*
X262908D02*
D03*
X266372D02*
D03*
X233538D02*
D03*
X237002D02*
D03*
X204168Y508850D02*
D03*
X207632D02*
D03*
D109*
X327411Y684265D02*
D03*
Y687335D02*
D03*
X386076Y684265D02*
D03*
Y687335D02*
D03*
X444101Y684265D02*
D03*
Y687335D02*
D03*
X494561Y684265D02*
D03*
Y687335D02*
D03*
X214288Y684276D02*
D03*
Y687347D02*
D03*
X269561Y684265D02*
D03*
Y687335D02*
D03*
D110*
X441933Y817204D02*
D03*
Y813740D02*
D03*
X376811Y777065D02*
D03*
Y773600D02*
D03*
X301955Y815242D02*
D03*
Y811778D02*
D03*
X238110Y776127D02*
D03*
Y772663D02*
D03*
D111*
X180534Y850210D02*
D03*
X175375D02*
D03*
X178541Y179600D02*
D03*
X183700D02*
D03*
X178541Y185282D02*
D03*
X183700D02*
D03*
X178541Y190964D02*
D03*
X183700D02*
D03*
X178541Y196645D02*
D03*
X183700D02*
D03*
X178541Y202327D02*
D03*
X183700D02*
D03*
X178541Y208009D02*
D03*
X183700D02*
D03*
X178541Y213691D02*
D03*
X183700D02*
D03*
X178541Y219373D02*
D03*
X183700D02*
D03*
X178541Y225054D02*
D03*
X183700D02*
D03*
X178541Y230736D02*
D03*
X183700D02*
D03*
X178541Y236418D02*
D03*
X183700D02*
D03*
X178541Y242100D02*
D03*
X183700D02*
D03*
D112*
X171411Y841718D02*
D03*
Y835813D02*
D03*
Y829907D02*
D03*
Y824002D02*
D03*
D113*
X194639Y832860D02*
D03*
D114*
X154420Y199284D02*
D03*
Y201843D02*
D03*
Y204402D02*
D03*
Y206961D02*
D03*
Y209520D02*
D03*
Y212080D02*
D03*
Y214638D02*
D03*
Y217198D02*
D03*
Y219757D02*
D03*
Y222316D02*
D03*
X131980Y199284D02*
D03*
Y201843D02*
D03*
Y204402D02*
D03*
Y206961D02*
D03*
Y209520D02*
D03*
Y212080D02*
D03*
Y214638D02*
D03*
Y217198D02*
D03*
Y219757D02*
D03*
Y222316D02*
D03*
D115*
X417925Y932269D02*
D03*
X420484D02*
D03*
X423043D02*
D03*
X425602D02*
D03*
X428161D02*
D03*
X348325D02*
D03*
X350884D02*
D03*
X358561D02*
D03*
X356002D02*
D03*
X295925D02*
D03*
X298484D02*
D03*
X306161D02*
D03*
X303602D02*
D03*
X301043D02*
D03*
X223325D02*
D03*
X225884D02*
D03*
X228443D02*
D03*
X231002D02*
D03*
X233561D02*
D03*
X353443D02*
D03*
D116*
X410366Y932761D02*
D03*
X435563D02*
D03*
X340766D02*
D03*
X365963D02*
D03*
X288366D02*
D03*
X313563D02*
D03*
X215766D02*
D03*
X240963D02*
D03*
D117*
X419618Y942800D02*
D03*
X428673D02*
D03*
X408004D02*
D03*
X439500D02*
D03*
X350018D02*
D03*
X359073D02*
D03*
X338404D02*
D03*
X369900D02*
D03*
X297618D02*
D03*
X306673D02*
D03*
X286004D02*
D03*
X317500D02*
D03*
X225018D02*
D03*
X234073D02*
D03*
X213404D02*
D03*
X244900D02*
D03*
D118*
X132132Y812127D02*
D03*
Y818033D02*
D03*
Y823938D02*
D03*
Y829844D02*
D03*
Y835750D02*
D03*
Y841655D02*
D03*
D119*
X111699Y851911D02*
D03*
Y801872D02*
D03*
D120*
X183149Y107744D02*
D03*
X189449D02*
D03*
X506099D02*
D03*
X512398D02*
D03*
X476740D02*
D03*
X483039D02*
D03*
X447381D02*
D03*
X453680D02*
D03*
X418022D02*
D03*
X424321D02*
D03*
X388663D02*
D03*
X394962D02*
D03*
X359304D02*
D03*
X365603D02*
D03*
X329945D02*
D03*
X336244D02*
D03*
X300586D02*
D03*
X306885D02*
D03*
X271227D02*
D03*
X277526D02*
D03*
X241867D02*
D03*
X248167D02*
D03*
X212509D02*
D03*
X218808D02*
D03*
D121*
X146200Y563550D02*
D03*
X390000Y939700D02*
D03*
X492900Y384900D02*
D03*
Y609780D02*
D03*
Y283060D02*
D03*
X146200D02*
D03*
X127100Y769500D02*
D03*
X264700Y939700D02*
D03*
X146200Y609780D02*
D03*
Y446420D02*
D03*
X508500Y939700D02*
D03*
X127100Y939900D02*
D03*
X146200Y119700D02*
D03*
X274780Y652700D02*
D03*
X353804D02*
D03*
X432828D02*
D03*
D122*
X426375Y505810D02*
D03*
X194675Y835910D02*
D03*
X188325Y820710D02*
D03*
X491925Y891610D02*
D03*
X362375Y487560D02*
D03*
X416275Y505560D02*
D03*
X498925Y865160D02*
D03*
X494975Y876144D02*
D03*
X481478Y500400D02*
D03*
X500525Y828760D02*
D03*
X499357Y861678D02*
D03*
X507137Y849722D02*
D03*
X504110Y836110D02*
D03*
X220975Y506160D02*
D03*
X250025Y505960D02*
D03*
X456075Y506110D02*
D03*
X406620Y500850D02*
D03*
X397325Y505710D02*
D03*
X368175Y505960D02*
D03*
X338575Y505710D02*
D03*
X309475Y505960D02*
D03*
X279332Y505946D02*
D03*
X289042Y501010D02*
D03*
X289625Y508860D02*
D03*
X376975Y500860D02*
D03*
X377925Y508710D02*
D03*
X348275Y508660D02*
D03*
X347875Y501010D02*
D03*
X435825Y501060D02*
D03*
X465275Y501010D02*
D03*
X245150Y516750D02*
D03*
X260070Y500850D02*
D03*
X230125Y508510D02*
D03*
X230175Y501010D02*
D03*
X405317Y478847D02*
D03*
X375922D02*
D03*
X382125Y472260D02*
D03*
X317175Y478410D02*
D03*
X346527Y478843D02*
D03*
X353112Y471460D02*
D03*
X323475Y471700D02*
D03*
X466050Y508750D02*
D03*
X407317Y508850D02*
D03*
X319131D02*
D03*
X260340Y508750D02*
D03*
X192100Y505950D02*
D03*
X201550Y508750D02*
D03*
X503300Y538350D02*
D03*
X481628Y530600D02*
D03*
X485250Y505750D02*
D03*
X493382Y478882D02*
D03*
X194675Y828910D02*
D03*
X302500Y753386D02*
D03*
X303150Y749305D02*
D03*
X306889Y749650D02*
D03*
X367750Y766150D02*
D03*
X118150Y218100D02*
D03*
X116250Y209520D02*
D03*
X352600Y763500D02*
D03*
X259350Y522300D02*
D03*
X450450Y778250D02*
D03*
X494550Y684200D02*
D03*
X444100D02*
D03*
X386050D02*
D03*
X327400D02*
D03*
X214300D02*
D03*
X269550D02*
D03*
X497585Y685603D02*
D03*
X319600Y814800D02*
D03*
X323200Y812200D02*
D03*
X367900Y745900D02*
D03*
X367700Y708700D02*
D03*
X354600Y696600D02*
D03*
X247300Y754500D02*
D03*
X381500Y750900D02*
D03*
X292200Y769600D02*
D03*
X508600Y793283D02*
D03*
Y778867D02*
D03*
Y764450D02*
D03*
Y750033D02*
D03*
Y735617D02*
D03*
X176525Y786010D02*
D03*
X463185Y845200D02*
D03*
X315500Y919600D02*
D03*
X315300Y904700D02*
D03*
X177300Y747600D02*
D03*
X146600Y742200D02*
D03*
X277800Y925000D02*
D03*
X470500Y887000D02*
D03*
X492099Y907000D02*
D03*
X209500Y921600D02*
D03*
X311971Y922900D02*
D03*
X172875Y859160D02*
D03*
X307300Y848200D02*
D03*
X272700Y845000D02*
D03*
X313700Y815075D02*
D03*
X391333Y831141D02*
D03*
X389100Y685600D02*
D03*
X251200Y859900D02*
D03*
X255140Y867300D02*
D03*
X252240Y886640D02*
D03*
X493400Y627500D02*
D03*
X500100Y635700D02*
D03*
X393556Y539475D02*
D03*
X461000Y574544D02*
D03*
X489000Y641600D02*
D03*
X155600Y721500D02*
D03*
X422300Y702200D02*
D03*
X380400Y656100D02*
D03*
X381200Y630745D02*
D03*
X260600Y648100D02*
D03*
X254900Y657300D02*
D03*
X188000Y844600D02*
D03*
X397200Y628238D02*
D03*
Y614457D02*
D03*
X381000Y562357D02*
D03*
X382500Y576035D02*
D03*
X382500Y589712D02*
D03*
Y603390D02*
D03*
X382550Y617067D02*
D03*
X367900Y626900D02*
D03*
Y610764D02*
D03*
Y594628D02*
D03*
Y578493D02*
D03*
Y562357D02*
D03*
X397100Y586895D02*
D03*
Y600676D02*
D03*
X450700Y845200D02*
D03*
X444100Y851300D02*
D03*
X471800Y853500D02*
D03*
X479900Y848300D02*
D03*
X461000Y586138D02*
D03*
Y597732D02*
D03*
Y609325D02*
D03*
Y620919D02*
D03*
Y632513D02*
D03*
X433800Y638600D02*
D03*
X452100Y639600D02*
D03*
X290700Y658000D02*
D03*
X443750Y631605D02*
D03*
Y619557D02*
D03*
Y607509D02*
D03*
X443700Y595462D02*
D03*
X449567Y583414D02*
D03*
X426500Y630427D02*
D03*
Y617707D02*
D03*
Y604987D02*
D03*
X345500Y623120D02*
D03*
Y611960D02*
D03*
X345500Y600800D02*
D03*
X311100Y573000D02*
D03*
Y584943D02*
D03*
Y596886D02*
D03*
Y608828D02*
D03*
Y620771D02*
D03*
Y632714D02*
D03*
X379400Y643600D02*
D03*
X310950Y642600D02*
D03*
X323925Y642600D02*
D03*
X390625Y639149D02*
D03*
X328300Y621767D02*
D03*
Y610155D02*
D03*
X328300Y598544D02*
D03*
X319750Y586933D02*
D03*
X337050Y634280D02*
D03*
X403600Y639600D02*
D03*
X336900Y642600D02*
D03*
X289100Y600100D02*
D03*
X290900Y618833D02*
D03*
X290700Y637567D02*
D03*
X272733Y585449D02*
D03*
X273100Y599619D02*
D03*
X273300Y613789D02*
D03*
X272800Y626400D02*
D03*
X272100Y637600D02*
D03*
X255700Y631100D02*
D03*
Y614150D02*
D03*
Y600100D02*
D03*
Y586050D02*
D03*
Y572000D02*
D03*
X212385Y697900D02*
D03*
X216585Y697800D02*
D03*
X267500Y697900D02*
D03*
X271700Y697800D02*
D03*
X325250Y697900D02*
D03*
X329450Y697800D02*
D03*
X384015Y697900D02*
D03*
X388215Y697800D02*
D03*
X442234Y697900D02*
D03*
X446434Y697800D02*
D03*
X496700D02*
D03*
X492500Y697900D02*
D03*
X210300Y848700D02*
D03*
X353400Y851800D02*
D03*
X336800Y851500D02*
D03*
X446000Y774500D02*
D03*
X452800Y794500D02*
D03*
X209000Y798395D02*
D03*
X472900Y783000D02*
D03*
X260300Y825140D02*
D03*
X324940Y853550D02*
D03*
X274500Y826800D02*
D03*
X280600Y830700D02*
D03*
X270000Y823800D02*
D03*
X269200Y826800D02*
D03*
X512025Y866560D02*
D03*
X510575Y906060D02*
D03*
X517315Y447031D02*
D03*
X478068Y807884D02*
D03*
X478068Y833711D02*
D03*
X483710Y827759D02*
D03*
X481180Y830611D02*
D03*
X195765Y856824D02*
D03*
X259035Y832133D02*
D03*
X250342Y832655D02*
D03*
X254614Y849675D02*
D03*
X209608Y783549D02*
D03*
X213947Y783514D02*
D03*
X204865Y801990D02*
D03*
X204471Y816814D02*
D03*
X206833Y823938D02*
D03*
X241692Y718339D02*
D03*
X243973Y720752D02*
D03*
X244907Y729898D02*
D03*
X244539Y742831D02*
D03*
X249029Y741291D02*
D03*
X241206Y744496D02*
D03*
X284465Y739058D02*
D03*
X288479Y739145D02*
D03*
X289316Y735471D02*
D03*
X293260Y736021D02*
D03*
X401962Y825033D02*
D03*
X336140Y808490D02*
D03*
X333140Y806725D02*
D03*
X462130Y744336D02*
D03*
X382768Y832858D02*
D03*
X405490Y825725D02*
D03*
X436522Y840235D02*
D03*
X470086Y839575D02*
D03*
X436210Y837235D02*
D03*
X460183Y842174D02*
D03*
X469785Y836481D02*
D03*
X483836Y770286D02*
D03*
X481180Y772858D02*
D03*
X478780Y776314D02*
D03*
X478588Y787870D02*
D03*
X475805Y790327D02*
D03*
X472791Y792400D02*
D03*
X476016Y778848D02*
D03*
X456120Y807696D02*
D03*
X236662Y802674D02*
D03*
X227001Y803038D02*
D03*
X236685Y807474D02*
D03*
X171963Y492600D02*
D03*
X493778Y492666D02*
D03*
X465041Y492215D02*
D03*
X435867Y492407D02*
D03*
X171876Y522300D02*
D03*
X501700Y471350D02*
D03*
X444775Y505910D02*
D03*
X450550Y477168D02*
D03*
X436712Y508673D02*
D03*
X418462Y843479D02*
D03*
X452380Y530378D02*
D03*
X452172Y500324D02*
D03*
X421153Y477157D02*
D03*
X318690Y500850D02*
D03*
X305478Y500241D02*
D03*
X276266Y530378D02*
D03*
X276190Y500347D02*
D03*
X274328Y477657D02*
D03*
X244930Y477519D02*
D03*
X246192Y500418D02*
D03*
X239192Y505264D02*
D03*
X229297Y492617D02*
D03*
X246519Y539509D02*
D03*
X413516Y832210D02*
D03*
X199550Y478850D02*
D03*
X217224Y500404D02*
D03*
X217552Y539495D02*
D03*
X452801Y805262D02*
D03*
X409697Y836126D02*
D03*
X186257Y477553D02*
D03*
X479857Y477539D02*
D03*
X464875Y478249D02*
D03*
X511420Y530464D02*
D03*
X509114Y477417D02*
D03*
X495503Y508652D02*
D03*
X492444Y442418D02*
D03*
X313615Y805880D02*
D03*
X257692Y842313D02*
D03*
X265455Y825160D02*
D03*
X400615Y896600D02*
D03*
X400175Y891450D02*
D03*
X400340Y886640D02*
D03*
X400255Y859580D02*
D03*
X403060Y867270D02*
D03*
X252515Y896600D02*
D03*
X252075Y891450D02*
D03*
X318650Y867325D02*
D03*
X315845Y859990D02*
D03*
X425765Y906600D02*
D03*
X425985Y896600D02*
D03*
X425765Y891600D02*
D03*
X363585Y906600D02*
D03*
X363805Y896600D02*
D03*
X363585Y891600D02*
D03*
X278735Y884205D02*
D03*
X279880Y906600D02*
D03*
X280100Y896600D02*
D03*
X279880Y891600D02*
D03*
X315930Y887050D02*
D03*
X315765Y891860D02*
D03*
X316205Y897010D02*
D03*
X216690Y891600D02*
D03*
X216910Y896600D02*
D03*
X444232Y920892D02*
D03*
X440768Y920928D02*
D03*
X383532Y920892D02*
D03*
X380068Y920928D02*
D03*
X299032Y920892D02*
D03*
X295568Y920928D02*
D03*
X231968D02*
D03*
X235432Y920892D02*
D03*
X266575Y751495D02*
D03*
X419653Y831162D02*
D03*
X292240Y850750D02*
D03*
X269645Y819865D02*
D03*
X200329Y492603D02*
D03*
X200173Y522303D02*
D03*
X378141Y806951D02*
D03*
X411705Y846017D02*
D03*
X434065Y851489D02*
D03*
X510788Y500552D02*
D03*
X276614Y539598D02*
D03*
X259392Y492706D02*
D03*
X305314Y539348D02*
D03*
X288092Y492456D02*
D03*
X298275Y505560D02*
D03*
X303725Y477358D02*
D03*
X334785Y539379D02*
D03*
X317562Y492487D02*
D03*
X334456Y500288D02*
D03*
X333195Y477389D02*
D03*
X364353Y539398D02*
D03*
X347131Y492506D02*
D03*
X364025Y500307D02*
D03*
X393590Y530386D02*
D03*
X376334Y492441D02*
D03*
X393229Y500242D02*
D03*
X423130Y539355D02*
D03*
X405907Y492463D02*
D03*
X422801Y500264D02*
D03*
X453405Y539495D02*
D03*
X185869Y539902D02*
D03*
X479968Y539994D02*
D03*
X187941Y456308D02*
D03*
X217316D02*
D03*
X246690D02*
D03*
X276064D02*
D03*
X305438D02*
D03*
X334812D02*
D03*
X364187D02*
D03*
X393561D02*
D03*
X423235D02*
D03*
X452367D02*
D03*
X481749D02*
D03*
X511058D02*
D03*
X463062Y442418D02*
D03*
X433930D02*
D03*
X404256D02*
D03*
X374882D02*
D03*
X345507D02*
D03*
X316133D02*
D03*
X286759D02*
D03*
X257385D02*
D03*
X228011D02*
D03*
X198636D02*
D03*
X272585Y685707D02*
D03*
X447161D02*
D03*
X217312D02*
D03*
X422783Y857472D02*
D03*
X188208Y530378D02*
D03*
X217561D02*
D03*
X246913D02*
D03*
X305618D02*
D03*
X335108Y530262D02*
D03*
X364323Y530378D02*
D03*
X423028D02*
D03*
X454779Y732002D02*
D03*
X453266Y729272D02*
D03*
X451274Y727022D02*
D03*
X449333Y724589D02*
D03*
X452089Y754869D02*
D03*
X450043Y751996D02*
D03*
X423511Y736888D02*
D03*
X426715Y737348D02*
D03*
X430812Y737253D02*
D03*
X420936Y735077D02*
D03*
X443934Y718147D02*
D03*
X421644Y715630D02*
D03*
X423695Y712993D02*
D03*
X353389Y784627D02*
D03*
X361309Y794970D02*
D03*
X358970Y792611D02*
D03*
X414502Y823288D02*
D03*
X404291Y822516D02*
D03*
X410645Y822100D02*
D03*
X408567Y825028D02*
D03*
X416168Y888702D02*
D03*
X364688Y857518D02*
D03*
X440359Y715125D02*
D03*
X461736Y741249D02*
D03*
X229554Y522313D02*
D03*
X288315D02*
D03*
X317696D02*
D03*
X347077D02*
D03*
X376457D02*
D03*
X435219D02*
D03*
X464600D02*
D03*
X405838D02*
D03*
X329283Y841596D02*
D03*
X331778Y839102D02*
D03*
X319631Y793219D02*
D03*
X317476Y791132D02*
D03*
X315018Y789154D02*
D03*
X312662Y786522D02*
D03*
X307200Y776800D02*
D03*
X328249Y791591D02*
D03*
X324701Y789058D02*
D03*
X290555Y756785D02*
D03*
X398483Y832329D02*
D03*
X375552Y837798D02*
D03*
X378421Y841298D02*
D03*
X364992Y884053D02*
D03*
X361739Y879059D02*
D03*
X321520Y786421D02*
D03*
X318690Y783892D02*
D03*
X334552Y815418D02*
D03*
X321374Y827133D02*
D03*
X324988Y828579D02*
D03*
X303905Y856836D02*
D03*
X264600Y822100D02*
D03*
X272300Y837500D02*
D03*
X269900Y835500D02*
D03*
X402054Y835546D02*
D03*
X366600Y773700D02*
D03*
X466301Y845483D02*
D03*
X424620Y884205D02*
D03*
X457300Y793600D02*
D03*
X249074Y732270D02*
D03*
X330435Y686153D02*
D03*
X268300Y871300D02*
D03*
X326300Y871100D02*
D03*
X413400Y871400D02*
D03*
X475500Y867270D02*
D03*
X472500Y859918D02*
D03*
X338100Y817700D02*
D03*
X201400Y582589D02*
D03*
Y594974D02*
D03*
Y607359D02*
D03*
Y619744D02*
D03*
X214600Y587233D02*
D03*
Y601167D02*
D03*
Y615100D02*
D03*
X108950Y922450D02*
D03*
Y908075D02*
D03*
Y893700D02*
D03*
Y879325D02*
D03*
Y864800D02*
D03*
X226200Y607900D02*
D03*
X250600Y922300D02*
D03*
X262800Y908900D02*
D03*
X332000Y921400D02*
D03*
X344400Y919700D02*
D03*
X340700Y905650D02*
D03*
X341300Y889900D02*
D03*
X405200Y909400D02*
D03*
X449567Y571367D02*
D03*
X426400Y592267D02*
D03*
X485700Y585333D02*
D03*
X494500Y578367D02*
D03*
X512100Y564433D02*
D03*
Y577114D02*
D03*
Y589795D02*
D03*
Y602476D02*
D03*
Y615157D02*
D03*
X496600Y594300D02*
D03*
X485500Y633809D02*
D03*
X480300Y604724D02*
D03*
X512100Y627838D02*
D03*
Y640519D02*
D03*
X290700Y649300D02*
D03*
X124350Y692200D02*
D03*
X137350Y678800D02*
D03*
X151760Y670686D02*
D03*
X175280Y664525D02*
D03*
X145200Y653300D02*
D03*
X158500Y579300D02*
D03*
X175280Y648331D02*
D03*
X163600Y661820D02*
D03*
X145950Y632200D02*
D03*
X128100Y666066D02*
D03*
X175280Y632138D02*
D03*
X156400Y645200D02*
D03*
X128100Y645550D02*
D03*
X175280Y615944D02*
D03*
X163485Y628080D02*
D03*
X160750Y682550D02*
D03*
X143250Y694050D02*
D03*
X175280Y680719D02*
D03*
X148350Y590800D02*
D03*
X146850Y709000D02*
D03*
X175280Y696912D02*
D03*
X160300Y695700D02*
D03*
X163600Y712430D02*
D03*
X175280Y713106D02*
D03*
Y729300D02*
D03*
X127700Y542967D02*
D03*
X175380Y567363D02*
D03*
X127700Y563483D02*
D03*
Y584000D02*
D03*
Y604516D02*
D03*
X175380Y583557D02*
D03*
X127700Y625033D02*
D03*
X175380Y599750D02*
D03*
X163700Y611210D02*
D03*
X140250Y517950D02*
D03*
X151060Y512641D02*
D03*
X127700Y501933D02*
D03*
X139380Y495526D02*
D03*
X151060Y495541D02*
D03*
X147450Y535100D02*
D03*
X159200Y550400D02*
D03*
X127700Y522450D02*
D03*
X151060Y478442D02*
D03*
X139380Y478426D02*
D03*
X127700Y481417D02*
D03*
X151060Y461342D02*
D03*
X127700Y460900D02*
D03*
X129600Y446200D02*
D03*
X114800Y449800D02*
D03*
X124500Y434400D02*
D03*
X147790D02*
D03*
X171080D02*
D03*
X232900Y843400D02*
D03*
X227100Y848500D02*
D03*
X218600Y837300D02*
D03*
X508600Y721200D02*
D03*
X465800Y716600D02*
D03*
X270500Y852100D02*
D03*
X200500Y772800D02*
D03*
X223700Y768300D02*
D03*
X508600Y807700D02*
D03*
X269500Y739000D02*
D03*
X435700Y748300D02*
D03*
X446900Y743100D02*
D03*
X333500Y741000D02*
D03*
X298600Y840600D02*
D03*
X322200Y847400D02*
D03*
X341600Y832100D02*
D03*
X437200Y725100D02*
D03*
X342400Y844300D02*
D03*
X341600Y804200D02*
D03*
X317950Y737150D02*
D03*
X317500Y751800D02*
D03*
X395100Y721200D02*
D03*
X394600Y712900D02*
D03*
X396400Y698100D02*
D03*
X333300Y728200D02*
D03*
X283200Y713900D02*
D03*
X298600Y728500D02*
D03*
X283600Y699100D02*
D03*
X292900Y688700D02*
D03*
X234200Y690700D02*
D03*
X228800Y700000D02*
D03*
X250400Y700300D02*
D03*
X198000Y711800D02*
D03*
X202900Y723300D02*
D03*
X209000Y635100D02*
D03*
X231600Y638200D02*
D03*
X385600Y853300D02*
D03*
X180000Y765300D02*
D03*
X174400Y755300D02*
D03*
X229500Y735200D02*
D03*
X145151Y735211D02*
D03*
X229600Y738200D02*
D03*
X132300Y738500D02*
D03*
X229800Y747400D02*
D03*
X115300Y213300D02*
D03*
X197779Y795621D02*
D03*
X123700Y206800D02*
D03*
X120200Y220500D02*
D03*
X394900Y828725D02*
D03*
X204300Y754300D02*
D03*
X223300Y758300D02*
D03*
X223100Y761300D02*
D03*
X185400Y750100D02*
D03*
X189500Y752200D02*
D03*
X201000Y805000D02*
D03*
X291668Y825132D02*
D03*
X429600Y825600D02*
D03*
X242800Y823500D02*
D03*
X220100Y803500D02*
D03*
X211100Y807500D02*
D03*
X443600Y795500D02*
D03*
X458100Y771700D02*
D03*
X226800Y774700D02*
D03*
X466300Y908500D02*
D03*
X167800Y871900D02*
D03*
X178170Y905230D02*
D03*
X476147Y892147D02*
D03*
X481900Y896600D02*
D03*
X217400Y904500D02*
D03*
X214800Y915400D02*
D03*
X214200Y910000D02*
D03*
X215545Y884205D02*
D03*
X110200Y762650D02*
D03*
X110400Y775425D02*
D03*
X110000Y788200D02*
D03*
X110200Y737100D02*
D03*
X110000Y749875D02*
D03*
X127400D02*
D03*
X357800Y919400D02*
D03*
X362400Y920000D02*
D03*
X462900Y916000D02*
D03*
X184600Y875747D02*
D03*
X184100Y908970D02*
D03*
X482100Y874500D02*
D03*
X335600Y658400D02*
D03*
X332100Y650600D02*
D03*
X194700Y633900D02*
D03*
X222800Y629300D02*
D03*
X381900Y823400D02*
D03*
X381800Y819900D02*
D03*
X432900Y825400D02*
D03*
X437800Y824800D02*
D03*
X365035Y777065D02*
D03*
X358518Y804882D02*
D03*
X297200Y772900D02*
D03*
X309600Y780000D02*
D03*
X222700Y777400D02*
D03*
X212532Y810500D02*
D03*
X223400Y806100D02*
D03*
X242800Y755200D02*
D03*
X295700Y822600D02*
D03*
X443370Y766430D02*
D03*
X447800Y795000D02*
D03*
X243832Y818968D02*
D03*
X362300Y841000D02*
D03*
X194350Y731050D02*
D03*
Y741650D02*
D03*
X324075Y633378D02*
D03*
X183149Y107744D02*
D03*
X212300D02*
D03*
X241867D02*
D03*
X271227D02*
D03*
X300586D02*
D03*
X359000D02*
D03*
X329945D02*
D03*
X388663D02*
D03*
X418022D02*
D03*
X447381D02*
D03*
X506099D02*
D03*
X476740D02*
D03*
X341400Y695200D02*
D03*
X303250Y757500D02*
D03*
X297250Y766550D02*
D03*
X115100Y206700D02*
D03*
X113250Y238150D02*
D03*
Y243200D02*
D03*
X113300Y230850D02*
D03*
X107000Y192350D02*
D03*
Y201267D02*
D03*
X159375Y784410D02*
D03*
X141600Y776450D02*
D03*
X147700Y758000D02*
D03*
X124800Y879325D02*
D03*
Y893700D02*
D03*
Y908075D02*
D03*
Y922450D02*
D03*
X140650Y908075D02*
D03*
Y922450D02*
D03*
X108050Y121850D02*
D03*
Y136225D02*
D03*
Y150600D02*
D03*
Y164975D02*
D03*
Y179350D02*
D03*
X493980Y522313D02*
D03*
X494550Y500850D02*
D03*
X207650Y472400D02*
D03*
X216100Y516000D02*
D03*
X215634Y477556D02*
D03*
X201450Y500850D02*
D03*
X209900Y505650D02*
D03*
X274325Y515760D02*
D03*
X332875Y515510D02*
D03*
X303725D02*
D03*
X362925Y516260D02*
D03*
X392325Y516210D02*
D03*
X421825Y516910D02*
D03*
X450825Y516610D02*
D03*
X480275Y516410D02*
D03*
X186525Y516360D02*
D03*
X508375Y516160D02*
D03*
X268620Y505354D02*
D03*
X327525Y506010D02*
D03*
X356775Y505910D02*
D03*
X385825Y506010D02*
D03*
X473875Y505660D02*
D03*
X503575Y505410D02*
D03*
X187475Y500460D02*
D03*
X171897Y501110D02*
D03*
X171925Y508860D02*
D03*
X178925Y506081D02*
D03*
X235925Y472110D02*
D03*
X266475Y471160D02*
D03*
X391967Y477343D02*
D03*
X411925Y472260D02*
D03*
X435497Y478072D02*
D03*
X470575Y472210D02*
D03*
X169857Y478542D02*
D03*
X176653Y472381D02*
D03*
X441975Y471910D02*
D03*
X228945Y478853D02*
D03*
X258341Y478840D02*
D03*
X295025Y470760D02*
D03*
X287736Y478847D02*
D03*
D123*
X126575Y812110D02*
D03*
Y818060D02*
D03*
X126275Y841660D02*
D03*
X171025Y798063D02*
D03*
X164875Y798060D02*
D03*
X139400Y829800D02*
D03*
Y823938D02*
D03*
M02*
