G04 Layer_Color=13813960*
%FSLAX25Y25*%
%MOIN*%
G70*
G01*
G75*
%ADD50C,0.00800*%
%ADD53C,0.01000*%
%ADD68C,0.02362*%
%ADD69C,0.00984*%
%ADD70C,0.00394*%
%ADD71C,0.00500*%
%ADD73C,0.00787*%
%ADD76R,0.01525X0.03773*%
%ADD77R,0.01525X0.08873*%
%ADD78R,0.01525X0.10077*%
%ADD79R,0.01525X0.08415*%
%ADD80R,0.01490X0.05968*%
G36*
X163550Y331155D02*
X159443D01*
Y329155D01*
X163135D01*
Y327910D01*
X159443D01*
Y326282D01*
X163412D01*
Y325037D01*
X157953D01*
Y332400D01*
X163550D01*
Y331155D01*
D02*
G37*
G36*
X142121Y325037D02*
X140631D01*
Y327931D01*
X137727D01*
Y325037D01*
X136237D01*
Y332400D01*
X137727D01*
Y329176D01*
X140631D01*
Y332400D01*
X142121D01*
Y325037D01*
D02*
G37*
G36*
X147335D02*
X145760D01*
X142908Y332400D01*
X144483D01*
X145090Y330730D01*
X148047D01*
X148686Y332400D01*
X150293D01*
X147335Y325037D01*
D02*
G37*
G36*
X144653Y343707D02*
X144825Y343686D01*
X144986Y343654D01*
X145137Y343600D01*
X145427Y343482D01*
X145545Y343407D01*
X145663Y343342D01*
X145770Y343267D01*
X145856Y343203D01*
X145931Y343138D01*
X146007Y343084D01*
X146060Y343031D01*
X146092Y342999D01*
X146114Y342977D01*
X146125Y342966D01*
X146243Y342816D01*
X146350Y342655D01*
X146447Y342494D01*
X146522Y342311D01*
X146587Y342139D01*
X146640Y341957D01*
X146726Y341613D01*
X146758Y341452D01*
X146780Y341302D01*
X146791Y341173D01*
X146801Y341055D01*
X146812Y340958D01*
Y340894D01*
Y340840D01*
Y340829D01*
X146801Y340614D01*
X146791Y340410D01*
X146758Y340228D01*
X146726Y340067D01*
X146694Y339927D01*
X146672Y339820D01*
X146662Y339787D01*
X146651Y339755D01*
X146640Y339744D01*
Y339734D01*
X146576Y339551D01*
X146501Y339379D01*
X146425Y339229D01*
X146350Y339100D01*
X146286Y339003D01*
X146232Y338928D01*
X146200Y338874D01*
X146189Y338864D01*
X146082Y338735D01*
X145953Y338617D01*
X145835Y338520D01*
X145717Y338445D01*
X145620Y338380D01*
X145534Y338327D01*
X145480Y338305D01*
X145459Y338294D01*
X145298Y338230D01*
X145126Y338176D01*
X144965Y338144D01*
X144825Y338112D01*
X144707Y338101D01*
X144610Y338090D01*
X144525D01*
X144363Y338101D01*
X144202Y338123D01*
X144052Y338155D01*
X143912Y338209D01*
X143665Y338316D01*
X143450Y338456D01*
X143365Y338520D01*
X143279Y338584D01*
X143214Y338649D01*
X143160Y338703D01*
X143107Y338756D01*
X143075Y338788D01*
X143064Y338810D01*
X143053Y338821D01*
Y336168D01*
X142140D01*
Y343600D01*
X142989D01*
Y342923D01*
X143096Y343063D01*
X143203Y343181D01*
X143322Y343288D01*
X143450Y343385D01*
X143569Y343460D01*
X143698Y343525D01*
X143816Y343579D01*
X143934Y343621D01*
X144149Y343675D01*
X144245Y343697D01*
X144320Y343707D01*
X144385D01*
X144439Y343718D01*
X144482D01*
X144653Y343707D01*
D02*
G37*
G36*
X132353Y332528D02*
X132662Y332496D01*
X132939Y332453D01*
X133056Y332432D01*
X133173Y332400D01*
X133269Y332379D01*
X133354Y332357D01*
X133428Y332336D01*
X133492Y332315D01*
X133545Y332294D01*
X133577Y332283D01*
X133598Y332272D01*
X133609D01*
X133843Y332155D01*
X134035Y332028D01*
X134215Y331900D01*
X134354Y331762D01*
X134460Y331645D01*
X134545Y331538D01*
X134588Y331474D01*
X134609Y331464D01*
Y331453D01*
X134726Y331240D01*
X134822Y331038D01*
X134886Y330836D01*
X134928Y330644D01*
X134950Y330495D01*
X134960Y330421D01*
X134971Y330368D01*
Y330325D01*
Y330293D01*
Y330272D01*
Y330261D01*
X134960Y330006D01*
X134928Y329783D01*
X134875Y329580D01*
X134822Y329410D01*
X134769Y329272D01*
X134716Y329176D01*
X134684Y329112D01*
X134673Y329091D01*
X134556Y328921D01*
X134418Y328772D01*
X134279Y328644D01*
X134152Y328538D01*
X134035Y328452D01*
X133939Y328389D01*
X133875Y328346D01*
X133864Y328335D01*
X133854D01*
X133747Y328282D01*
X133641Y328229D01*
X133386Y328133D01*
X133120Y328048D01*
X132864Y327963D01*
X132747Y327931D01*
X132630Y327899D01*
X132524Y327867D01*
X132439Y327846D01*
X132364Y327825D01*
X132311Y327814D01*
X132268Y327803D01*
X132258D01*
X132066Y327750D01*
X131896Y327708D01*
X131736Y327665D01*
X131587Y327623D01*
X131470Y327580D01*
X131353Y327537D01*
X131258Y327495D01*
X131173Y327463D01*
X131098Y327431D01*
X131045Y327399D01*
X130992Y327378D01*
X130960Y327357D01*
X130906Y327325D01*
X130896Y327314D01*
X130821Y327240D01*
X130768Y327165D01*
X130736Y327091D01*
X130715Y327016D01*
X130694Y326963D01*
X130683Y326910D01*
Y326878D01*
Y326867D01*
X130694Y326761D01*
X130715Y326676D01*
X130757Y326590D01*
X130800Y326527D01*
X130843Y326473D01*
X130885Y326442D01*
X130906Y326420D01*
X130917Y326410D01*
X131066Y326314D01*
X131226Y326250D01*
X131396Y326197D01*
X131555Y326165D01*
X131694Y326144D01*
X131811Y326133D01*
X131917D01*
X132141Y326144D01*
X132332Y326176D01*
X132492Y326218D01*
X132620Y326261D01*
X132726Y326303D01*
X132800Y326346D01*
X132843Y326378D01*
X132854Y326388D01*
X132960Y326495D01*
X133056Y326622D01*
X133130Y326750D01*
X133183Y326888D01*
X133226Y327006D01*
X133247Y327101D01*
X133269Y327176D01*
Y327186D01*
Y327197D01*
X134758Y327144D01*
X134748Y326952D01*
X134716Y326782D01*
X134673Y326612D01*
X134620Y326463D01*
X134567Y326314D01*
X134503Y326176D01*
X134439Y326059D01*
X134375Y325941D01*
X134301Y325846D01*
X134237Y325761D01*
X134173Y325686D01*
X134120Y325622D01*
X134077Y325580D01*
X134045Y325548D01*
X134024Y325526D01*
X134013Y325516D01*
X133875Y325410D01*
X133726Y325314D01*
X133566Y325229D01*
X133396Y325154D01*
X133226Y325101D01*
X133056Y325048D01*
X132715Y324973D01*
X132556Y324952D01*
X132417Y324931D01*
X132279Y324920D01*
X132162Y324909D01*
X132066Y324899D01*
X131939D01*
X131630Y324909D01*
X131353Y324941D01*
X131109Y324984D01*
X130896Y325026D01*
X130800Y325058D01*
X130715Y325080D01*
X130651Y325101D01*
X130587Y325122D01*
X130545Y325144D01*
X130513Y325154D01*
X130491Y325165D01*
X130481D01*
X130268Y325271D01*
X130087Y325388D01*
X129928Y325516D01*
X129800Y325633D01*
X129693Y325739D01*
X129630Y325824D01*
X129577Y325888D01*
X129566Y325899D01*
Y325909D01*
X129459Y326090D01*
X129385Y326282D01*
X129332Y326463D01*
X129300Y326622D01*
X129279Y326761D01*
X129257Y326867D01*
Y326910D01*
Y326942D01*
Y326952D01*
Y326963D01*
X129268Y327122D01*
X129289Y327282D01*
X129321Y327420D01*
X129364Y327559D01*
X129470Y327814D01*
X129598Y328038D01*
X129651Y328133D01*
X129715Y328208D01*
X129768Y328282D01*
X129821Y328346D01*
X129864Y328389D01*
X129896Y328421D01*
X129917Y328442D01*
X129928Y328452D01*
X130023Y328527D01*
X130140Y328602D01*
X130257Y328676D01*
X130396Y328740D01*
X130662Y328868D01*
X130938Y328974D01*
X131077Y329016D01*
X131194Y329059D01*
X131311Y329091D01*
X131406Y329123D01*
X131481Y329144D01*
X131545Y329165D01*
X131587Y329176D01*
X131598D01*
X131768Y329219D01*
X131917Y329261D01*
X132056Y329293D01*
X132183Y329325D01*
X132290Y329357D01*
X132385Y329378D01*
X132471Y329410D01*
X132545Y329431D01*
X132609Y329442D01*
X132662Y329463D01*
X132737Y329485D01*
X132779Y329506D01*
X132790D01*
X132928Y329559D01*
X133035Y329612D01*
X133130Y329665D01*
X133205Y329719D01*
X133258Y329761D01*
X133290Y329793D01*
X133311Y329814D01*
X133322Y329825D01*
X133375Y329900D01*
X133417Y329974D01*
X133439Y330048D01*
X133460Y330112D01*
X133471Y330176D01*
X133481Y330229D01*
Y330261D01*
Y330272D01*
X133471Y330421D01*
X133428Y330549D01*
X133364Y330676D01*
X133300Y330783D01*
X133226Y330868D01*
X133173Y330932D01*
X133130Y330974D01*
X133109Y330985D01*
X132960Y331081D01*
X132790Y331155D01*
X132609Y331208D01*
X132439Y331240D01*
X132279Y331261D01*
X132151Y331283D01*
X132034D01*
X131790Y331272D01*
X131577Y331230D01*
X131396Y331176D01*
X131236Y331113D01*
X131109Y331049D01*
X131024Y330995D01*
X130970Y330953D01*
X130949Y330942D01*
X130811Y330793D01*
X130704Y330634D01*
X130608Y330453D01*
X130545Y330272D01*
X130491Y330112D01*
X130449Y329985D01*
X130438Y329942D01*
Y329900D01*
X130428Y329878D01*
Y329868D01*
X128981Y330006D01*
X129013Y330229D01*
X129055Y330442D01*
X129119Y330644D01*
X129172Y330825D01*
X129247Y330995D01*
X129321Y331155D01*
X129396Y331293D01*
X129470Y331421D01*
X129545Y331527D01*
X129619Y331623D01*
X129683Y331708D01*
X129747Y331783D01*
X129789Y331836D01*
X129832Y331868D01*
X129853Y331889D01*
X129864Y331900D01*
X130013Y332017D01*
X130172Y332113D01*
X130343Y332198D01*
X130523Y332272D01*
X130694Y332326D01*
X130875Y332379D01*
X131226Y332453D01*
X131385Y332485D01*
X131534Y332506D01*
X131662Y332517D01*
X131779Y332528D01*
X131875Y332538D01*
X132013D01*
X132353Y332528D01*
D02*
G37*
G36*
X152580Y329623D02*
X153900D01*
X154059Y329612D01*
X154208D01*
X154346Y329602D01*
X154474Y329591D01*
X154591Y329580D01*
X154687Y329570D01*
X154783D01*
X154857Y329559D01*
X154932Y329548D01*
X154985Y329538D01*
X155027D01*
X155059Y329527D01*
X155080D01*
X155229Y329485D01*
X155368Y329431D01*
X155496Y329378D01*
X155613Y329314D01*
X155708Y329261D01*
X155783Y329219D01*
X155825Y329187D01*
X155847Y329176D01*
X155985Y329070D01*
X156102Y328953D01*
X156219Y328825D01*
X156304Y328718D01*
X156379Y328612D01*
X156432Y328527D01*
X156464Y328474D01*
X156474Y328452D01*
X156560Y328272D01*
X156623Y328080D01*
X156666Y327878D01*
X156698Y327697D01*
X156719Y327548D01*
Y327474D01*
X156730Y327420D01*
Y327367D01*
Y327335D01*
Y327314D01*
Y327303D01*
X156709Y326995D01*
X156666Y326708D01*
X156591Y326473D01*
X156517Y326261D01*
X156474Y326176D01*
X156432Y326101D01*
X156400Y326037D01*
X156357Y325973D01*
X156336Y325931D01*
X156315Y325899D01*
X156293Y325888D01*
Y325878D01*
X156123Y325686D01*
X155953Y325526D01*
X155772Y325399D01*
X155613Y325303D01*
X155464Y325239D01*
X155347Y325186D01*
X155304Y325175D01*
X155272Y325165D01*
X155251Y325154D01*
X155240D01*
X155155Y325133D01*
X155049Y325112D01*
X154921Y325101D01*
X154793Y325090D01*
X154495Y325069D01*
X154197Y325048D01*
X153921D01*
X153804Y325037D01*
X151091D01*
Y332400D01*
X152580D01*
Y329623D01*
D02*
G37*
G36*
X387191Y768684D02*
X386962Y768602D01*
Y768286D01*
X387191Y768197D01*
Y768084D01*
X386436Y768393D01*
Y768502D01*
X387191Y768789D01*
Y768684D01*
D02*
G37*
G36*
X138102Y343707D02*
X138295Y343686D01*
X138467Y343664D01*
X138618Y343632D01*
X138736Y343600D01*
X138832Y343568D01*
X138897Y343557D01*
X138918Y343546D01*
X139101Y343471D01*
X139273Y343374D01*
X139434Y343267D01*
X139595Y343170D01*
X139724Y343074D01*
X139820Y342999D01*
X139885Y342945D01*
X139896Y342923D01*
X139906D01*
X139928Y343063D01*
X139949Y343192D01*
X139971Y343310D01*
X140003Y343407D01*
X140035Y343493D01*
X140057Y343546D01*
X140067Y343589D01*
X140078Y343600D01*
X141034D01*
X140980Y343482D01*
X140927Y343364D01*
X140884Y343256D01*
X140862Y343160D01*
X140830Y343074D01*
X140819Y343009D01*
X140808Y342966D01*
Y342955D01*
X140798Y342880D01*
X140787Y342784D01*
Y342676D01*
X140776Y342558D01*
X140766Y342290D01*
Y342021D01*
X140755Y341763D01*
Y341645D01*
Y341549D01*
Y341463D01*
Y341398D01*
Y341355D01*
Y341344D01*
Y340120D01*
Y339916D01*
X140744Y339734D01*
X140733Y339594D01*
Y339476D01*
X140723Y339390D01*
X140712Y339325D01*
X140701Y339293D01*
Y339282D01*
X140669Y339143D01*
X140626Y339025D01*
X140583Y338928D01*
X140529Y338831D01*
X140486Y338767D01*
X140454Y338713D01*
X140433Y338681D01*
X140422Y338670D01*
X140336Y338584D01*
X140239Y338498D01*
X140132Y338434D01*
X140024Y338370D01*
X139928Y338327D01*
X139853Y338294D01*
X139799Y338273D01*
X139777Y338262D01*
X139606Y338209D01*
X139423Y338165D01*
X139240Y338133D01*
X139058Y338112D01*
X138897Y338101D01*
X138779Y338090D01*
X138660D01*
X138403Y338101D01*
X138177Y338123D01*
X137962Y338155D01*
X137791Y338187D01*
X137640Y338219D01*
X137533Y338251D01*
X137490Y338262D01*
X137458Y338273D01*
X137447Y338284D01*
X137436D01*
X137253Y338359D01*
X137092Y338456D01*
X136953Y338541D01*
X136835Y338627D01*
X136749Y338713D01*
X136684Y338778D01*
X136641Y338821D01*
X136631Y338831D01*
X136534Y338971D01*
X136448Y339121D01*
X136384Y339272D01*
X136330Y339411D01*
X136287Y339551D01*
X136255Y339648D01*
X136244Y339691D01*
Y339723D01*
X136233Y339734D01*
Y339744D01*
X137125Y339862D01*
X137189Y339669D01*
X137253Y339497D01*
X137329Y339358D01*
X137393Y339250D01*
X137458Y339164D01*
X137511Y339111D01*
X137554Y339078D01*
X137565Y339068D01*
X137694Y338993D01*
X137844Y338939D01*
X138005Y338896D01*
X138156Y338874D01*
X138306Y338853D01*
X138413Y338842D01*
X138521D01*
X138768Y338853D01*
X138983Y338885D01*
X139155Y338939D01*
X139305Y338993D01*
X139412Y339057D01*
X139498Y339100D01*
X139552Y339143D01*
X139563Y339154D01*
X139648Y339250D01*
X139713Y339368D01*
X139767Y339497D01*
X139799Y339626D01*
X139820Y339744D01*
X139831Y339852D01*
Y339916D01*
Y339927D01*
Y339938D01*
Y339959D01*
Y340002D01*
Y340077D01*
X139820Y340142D01*
Y340163D01*
Y340174D01*
X139713Y340206D01*
X139595Y340238D01*
X139348Y340303D01*
X139069Y340356D01*
X138811Y340410D01*
X138682Y340432D01*
X138564Y340442D01*
X138456Y340464D01*
X138371Y340475D01*
X138295Y340485D01*
X138242D01*
X138199Y340496D01*
X138188D01*
X137995Y340518D01*
X137833Y340550D01*
X137694Y340571D01*
X137586Y340593D01*
X137501Y340603D01*
X137436Y340625D01*
X137393Y340636D01*
X137382D01*
X137243Y340679D01*
X137125Y340722D01*
X137006Y340775D01*
X136910Y340818D01*
X136824Y340861D01*
X136770Y340904D01*
X136727Y340926D01*
X136716Y340936D01*
X136609Y341012D01*
X136523Y341097D01*
X136437Y341183D01*
X136373Y341269D01*
X136319Y341344D01*
X136276Y341409D01*
X136255Y341452D01*
X136244Y341463D01*
X136190Y341581D01*
X136147Y341710D01*
X136115Y341828D01*
X136094Y341946D01*
X136083Y342043D01*
X136072Y342118D01*
Y342161D01*
Y342182D01*
X136083Y342311D01*
X136094Y342419D01*
X136147Y342644D01*
X136223Y342827D01*
X136308Y342988D01*
X136394Y343117D01*
X136469Y343213D01*
X136523Y343267D01*
X136545Y343288D01*
X136738Y343428D01*
X136953Y343535D01*
X137189Y343611D01*
X137404Y343664D01*
X137597Y343697D01*
X137683Y343707D01*
X137758D01*
X137823Y343718D01*
X137909D01*
X138102Y343707D01*
D02*
G37*
G36*
X386764Y755697D02*
X386389D01*
X386764Y755325D01*
Y755188D01*
X386457Y755504D01*
X386009Y755174D01*
Y755306D01*
X386390Y755574D01*
X386271Y755697D01*
X386009D01*
Y755798D01*
X386764D01*
Y755697D01*
D02*
G37*
G36*
X240764Y758797D02*
X240389D01*
X240764Y758425D01*
Y758288D01*
X240457Y758604D01*
X240009Y758274D01*
Y758406D01*
X240390Y758674D01*
X240271Y758797D01*
X240009D01*
Y758898D01*
X240764D01*
Y758797D01*
D02*
G37*
G36*
X241191Y771784D02*
X240962Y771702D01*
Y771386D01*
X241191Y771298D01*
Y771184D01*
X240436Y771493D01*
Y771602D01*
X241191Y771889D01*
Y771784D01*
D02*
G37*
G36*
X135331Y342719D02*
X131669D01*
Y336168D01*
X130681D01*
Y343600D01*
X135331D01*
Y342719D01*
D02*
G37*
%LPC*%
G36*
X144460Y342966D02*
X144406D01*
X144267Y342955D01*
X144149Y342934D01*
X144020Y342902D01*
X143912Y342859D01*
X143708Y342741D01*
X143547Y342612D01*
X143407Y342494D01*
X143311Y342376D01*
X143279Y342333D01*
X143257Y342300D01*
X143236Y342279D01*
Y342268D01*
X143193Y342182D01*
X143150Y342086D01*
X143085Y341871D01*
X143042Y341634D01*
X143010Y341409D01*
X142989Y341205D01*
Y341108D01*
X142978Y341033D01*
Y340969D01*
Y340915D01*
Y340883D01*
Y340872D01*
Y340689D01*
X142999Y340528D01*
X143021Y340367D01*
X143042Y340217D01*
X143075Y340088D01*
X143118Y339959D01*
X143150Y339852D01*
X143193Y339744D01*
X143236Y339658D01*
X143268Y339583D01*
X143311Y339519D01*
X143343Y339465D01*
X143365Y339422D01*
X143386Y339390D01*
X143407Y339379D01*
Y339368D01*
X143493Y339272D01*
X143579Y339196D01*
X143665Y339121D01*
X143751Y339068D01*
X143923Y338971D01*
X144084Y338907D01*
X144224Y338874D01*
X144342Y338853D01*
X144385Y338842D01*
X144546D01*
X144653Y338864D01*
X144857Y338917D01*
X145029Y339003D01*
X145180Y339089D01*
X145298Y339186D01*
X145384Y339272D01*
X145437Y339325D01*
X145459Y339336D01*
Y339347D01*
X145534Y339444D01*
X145598Y339562D01*
X145706Y339798D01*
X145781Y340067D01*
X145824Y340314D01*
X145856Y340539D01*
X145867Y340647D01*
Y340732D01*
X145878Y340808D01*
Y340861D01*
Y340894D01*
Y340904D01*
Y341087D01*
X145856Y341269D01*
X145835Y341430D01*
X145813Y341581D01*
X145781Y341720D01*
X145738Y341849D01*
X145695Y341957D01*
X145663Y342064D01*
X145620Y342150D01*
X145577Y342236D01*
X145545Y342300D01*
X145502Y342354D01*
X145480Y342397D01*
X145459Y342429D01*
X145437Y342440D01*
Y342451D01*
X145352Y342537D01*
X145266Y342623D01*
X145094Y342752D01*
X144922Y342837D01*
X144761Y342902D01*
X144621Y342934D01*
X144503Y342955D01*
X144460Y342966D01*
D02*
G37*
G36*
X138220Y342999D02*
X138134D01*
X137941Y342988D01*
X137780Y342966D01*
X137640Y342923D01*
X137522Y342880D01*
X137436Y342837D01*
X137372Y342794D01*
X137329Y342773D01*
X137318Y342762D01*
X137232Y342666D01*
X137168Y342558D01*
X137114Y342461D01*
X137082Y342365D01*
X137060Y342279D01*
X137049Y342214D01*
Y342161D01*
Y342150D01*
X137060Y342064D01*
X137071Y341978D01*
X137092Y341914D01*
X137114Y341849D01*
X137135Y341796D01*
X137146Y341753D01*
X137168Y341731D01*
Y341720D01*
X137275Y341592D01*
X137404Y341506D01*
X137447Y341473D01*
X137490Y341452D01*
X137522Y341430D01*
X137533D01*
X137640Y341388D01*
X137758Y341355D01*
X137887Y341323D01*
X138016Y341302D01*
X138134Y341280D01*
X138242Y341259D01*
X138306Y341248D01*
X138328D01*
X138510Y341216D01*
X138682Y341194D01*
X138832Y341162D01*
X138983Y341130D01*
X139122Y341097D01*
X139240Y341065D01*
X139358Y341044D01*
X139455Y341012D01*
X139541Y340990D01*
X139616Y340969D01*
X139681Y340947D01*
X139734Y340926D01*
X139777Y340915D01*
X139810Y340904D01*
X139820Y340894D01*
X139831D01*
X139820Y341237D01*
X139810Y341452D01*
X139799Y341634D01*
X139777Y341785D01*
X139745Y341914D01*
X139713Y342010D01*
X139691Y342086D01*
X139681Y342129D01*
X139670Y342139D01*
X139584Y342279D01*
X139498Y342408D01*
X139391Y342515D01*
X139294Y342601D01*
X139208Y342676D01*
X139133Y342730D01*
X139090Y342762D01*
X139069Y342773D01*
X138908Y342848D01*
X138746Y342902D01*
X138596Y342945D01*
X138446Y342966D01*
X138328Y342988D01*
X138220Y342999D01*
D02*
G37*
G36*
X240880Y771672D02*
X240660Y771591D01*
X240632Y771581D01*
X240606Y771573D01*
X240582Y771566D01*
X240561Y771560D01*
X240542Y771556D01*
X240534Y771554D01*
X240527Y771553D01*
X240522Y771550D01*
X240518D01*
X240516Y771549D01*
X240515D01*
X240540Y771542D01*
X240566Y771533D01*
X240592Y771524D01*
X240617Y771515D01*
X240628Y771511D01*
X240639Y771508D01*
X240649Y771505D01*
X240656Y771501D01*
X240663Y771499D01*
X240668Y771497D01*
X240672Y771496D01*
X240673D01*
X240880Y771417D01*
Y771672D01*
D02*
G37*
G36*
X386880Y768572D02*
X386660Y768491D01*
X386632Y768481D01*
X386606Y768473D01*
X386582Y768466D01*
X386561Y768460D01*
X386542Y768456D01*
X386534Y768454D01*
X386527Y768453D01*
X386522Y768450D01*
X386518D01*
X386516Y768449D01*
X386515D01*
X386540Y768442D01*
X386566Y768433D01*
X386592Y768424D01*
X386617Y768415D01*
X386628Y768411D01*
X386639Y768408D01*
X386649Y768405D01*
X386656Y768401D01*
X386663Y768399D01*
X386668Y768397D01*
X386672Y768396D01*
X386673D01*
X386880Y768317D01*
Y768572D01*
D02*
G37*
G36*
X153602Y328378D02*
X152580D01*
Y326282D01*
X153687D01*
X153793Y326293D01*
X153889D01*
X153985Y326303D01*
X154123D01*
X154229Y326314D01*
X154304Y326325D01*
X154346Y326335D01*
X154357D01*
X154485Y326367D01*
X154602Y326410D01*
X154708Y326463D01*
X154793Y326527D01*
X154857Y326580D01*
X154910Y326622D01*
X154942Y326654D01*
X154953Y326665D01*
X155038Y326771D01*
X155091Y326878D01*
X155134Y326995D01*
X155166Y327101D01*
X155187Y327197D01*
X155198Y327272D01*
Y327314D01*
Y327335D01*
X155187Y327452D01*
X155176Y327559D01*
X155144Y327655D01*
X155113Y327740D01*
X155080Y327814D01*
X155059Y327867D01*
X155038Y327899D01*
X155027Y327910D01*
X154964Y327995D01*
X154878Y328069D01*
X154804Y328133D01*
X154729Y328186D01*
X154666Y328218D01*
X154612Y328250D01*
X154570Y328261D01*
X154559Y328272D01*
X154495Y328293D01*
X154421Y328304D01*
X154251Y328335D01*
X154059Y328357D01*
X153868Y328367D01*
X153676D01*
X153602Y328378D01*
D02*
G37*
G36*
X147569Y329485D02*
X145536D01*
X146537Y326750D01*
X147569Y329485D01*
D02*
G37*
%LPD*%
D50*
X454075Y821360D02*
Y823360D01*
X452075D02*
X454075D01*
X431075D02*
X433075D01*
X431075Y821360D02*
Y823360D01*
Y807360D02*
Y809360D01*
Y807360D02*
X433075D01*
X452075D02*
X454075D01*
Y809360D01*
X312700Y819800D02*
Y821800D01*
X310700D02*
X312700D01*
X289700D02*
X291700D01*
X289700Y819800D02*
Y821800D01*
Y805800D02*
Y807800D01*
Y805800D02*
X291700D01*
X310700D02*
X312700D01*
Y807800D01*
D53*
X474540Y508803D02*
Y524803D01*
X180637Y508803D02*
Y524803D01*
X180733Y479079D02*
Y495079D01*
X210027Y508803D02*
Y524803D01*
X210196Y479082D02*
Y495082D01*
X239418Y508803D02*
Y524803D01*
X239613Y479069D02*
Y495069D01*
X268808Y508803D02*
Y524803D01*
X269007Y479076D02*
Y495076D01*
X298198Y508803D02*
Y524803D01*
Y479071D02*
Y495071D01*
X327589Y508803D02*
Y524803D01*
X327517Y479072D02*
Y495072D01*
X356979Y508803D02*
Y524803D01*
X356926Y479076D02*
Y495076D01*
X386369Y508803D02*
Y524803D01*
X386336Y479076D02*
Y495076D01*
X415760Y508803D02*
Y524803D01*
X415726Y479080D02*
Y495080D01*
X445150Y508903D02*
Y524903D01*
X445158Y479069D02*
Y495069D01*
X474540Y479088D02*
Y495088D01*
X503849Y508803D02*
Y524803D01*
Y478888D02*
Y494888D01*
X390423Y837289D02*
Y849100D01*
X380580Y837289D02*
Y849100D01*
Y837289D02*
X381367D01*
X389635D02*
X390423D01*
X380580Y849100D02*
X381367D01*
X389635D02*
X390423D01*
X178670Y435209D02*
Y437918D01*
Y435209D02*
X181170D01*
X191170Y434918D02*
X193670D01*
Y435209D02*
Y437918D01*
X208044Y435209D02*
Y437918D01*
Y435209D02*
X210544D01*
X220544Y434918D02*
X223044D01*
Y435209D02*
Y437918D01*
X237418Y435209D02*
Y437918D01*
Y435209D02*
X239918D01*
X249918Y434918D02*
X252418D01*
Y435209D02*
Y437918D01*
X266792Y435209D02*
Y437918D01*
Y435209D02*
X269292D01*
X279292Y434918D02*
X281792D01*
Y435209D02*
Y437918D01*
X296166Y435209D02*
Y437918D01*
Y435209D02*
X298666D01*
X308666Y434918D02*
X311166D01*
Y435209D02*
Y437918D01*
X325541Y435209D02*
Y437918D01*
Y435209D02*
X328041D01*
X338041Y434918D02*
X340541D01*
Y435209D02*
Y437918D01*
X354915Y435209D02*
Y437918D01*
Y435209D02*
X357415D01*
X367415Y434918D02*
X369915D01*
Y435209D02*
Y437918D01*
X384289Y435209D02*
Y437918D01*
Y435209D02*
X386789D01*
X396789Y434918D02*
X399289D01*
Y435209D02*
Y437918D01*
X413963Y435209D02*
Y437918D01*
Y435209D02*
X416463D01*
X426463Y434918D02*
X428963D01*
Y435209D02*
Y437918D01*
X443095Y435209D02*
Y437918D01*
Y435209D02*
X445595D01*
X455595Y434918D02*
X458095D01*
Y435209D02*
Y437918D01*
X472477Y435209D02*
Y437918D01*
Y435209D02*
X474977D01*
X484977Y434918D02*
X487477D01*
Y435209D02*
Y437918D01*
X501786Y435209D02*
Y437918D01*
Y435209D02*
X504286D01*
X514286Y434918D02*
X516786D01*
Y435209D02*
Y437918D01*
X250037Y837198D02*
Y849009D01*
X240194Y837198D02*
Y849009D01*
Y837198D02*
X240982D01*
X249249D02*
X250037D01*
X240194Y849009D02*
X240982D01*
X249249D02*
X250037D01*
X179554Y434889D02*
X192602Y432588D01*
X502714Y434889D02*
X515763Y432588D01*
X208932Y434889D02*
X221981Y432588D01*
X238310Y434889D02*
X251359Y432588D01*
X267688Y434889D02*
X280737Y432588D01*
X355823Y434889D02*
X368872Y432588D01*
X326445Y434889D02*
X339494Y432588D01*
X297067Y434889D02*
X310115Y432588D01*
X443958Y434889D02*
X457007Y432588D01*
X414580Y434889D02*
X427628Y432588D01*
X385201Y434889D02*
X398250Y432588D01*
X473336Y434889D02*
X486385Y432588D01*
D68*
X395192Y777511D02*
G03*
X395192Y777511I-1181J0D01*
G01*
X254492D02*
G03*
X254492Y777511I-1181J0D01*
G01*
D69*
X410164Y840172D02*
G03*
X410164Y840172I-492J0D01*
G01*
X385743Y773180D02*
G03*
X385743Y773180I-492J0D01*
G01*
X204208Y512864D02*
G03*
X204208Y512864I-492J0D01*
G01*
X204365Y483154D02*
G03*
X204365Y483154I-492J0D01*
G01*
X233589Y512864D02*
G03*
X233589Y512864I-492J0D01*
G01*
X233760Y483157D02*
G03*
X233760Y483157I-492J0D01*
G01*
X262970Y512864D02*
G03*
X262970Y512864I-492J0D01*
G01*
X263156Y483144D02*
G03*
X263156Y483144I-492J0D01*
G01*
X292351Y512864D02*
G03*
X292351Y512864I-492J0D01*
G01*
X292551Y483151D02*
G03*
X292551Y483151I-492J0D01*
G01*
X321731Y512864D02*
G03*
X321731Y512864I-492J0D01*
G01*
X321946Y483146D02*
G03*
X321946Y483146I-492J0D01*
G01*
X351112Y512864D02*
G03*
X351112Y512864I-492J0D01*
G01*
X351342Y483147D02*
G03*
X351342Y483147I-492J0D01*
G01*
X380493Y512864D02*
G03*
X380493Y512864I-492J0D01*
G01*
X380737Y483151D02*
G03*
X380737Y483151I-492J0D01*
G01*
X409874Y512864D02*
G03*
X409874Y512864I-492J0D01*
G01*
X410132Y483151D02*
G03*
X410132Y483151I-492J0D01*
G01*
X439254Y512864D02*
G03*
X439254Y512864I-492J0D01*
G01*
X439528Y483155D02*
G03*
X439528Y483155I-492J0D01*
G01*
X468635Y512864D02*
G03*
X468635Y512864I-492J0D01*
G01*
X468722Y482868D02*
G03*
X468722Y482868I-492J0D01*
G01*
X498026Y512864D02*
G03*
X498026Y512864I-492J0D01*
G01*
X498016Y483150D02*
G03*
X498016Y483150I-492J0D01*
G01*
X501751Y869436D02*
G03*
X501751Y869436I-492J0D01*
G01*
X507355Y840273D02*
G03*
X507355Y840273I-492J0D01*
G01*
X245043Y773180D02*
G03*
X245043Y773180I-492J0D01*
G01*
X270389Y840132D02*
G03*
X270389Y840132I-492J0D01*
G01*
D70*
X208541Y706159D02*
G03*
X208541Y706159I-197J0D01*
G01*
X263656D02*
G03*
X263656Y706159I-197J0D01*
G01*
X321406D02*
G03*
X321406Y706159I-197J0D01*
G01*
X380171D02*
G03*
X380171Y706159I-197J0D01*
G01*
X438390D02*
G03*
X438390Y706159I-197J0D01*
G01*
X488656D02*
G03*
X488656Y706159I-197J0D01*
G01*
D71*
X199275Y503260D02*
G03*
X203275Y503260I2000J3750D01*
G01*
Y510260D02*
G03*
X199275Y510260I-2000J-3750D01*
G01*
X188850Y474450D02*
G03*
X188850Y470450I3750J-2000D01*
G01*
X195850D02*
G03*
X195850Y474450I-3750J2000D01*
G01*
X228525Y503260D02*
G03*
X232525Y503260I2000J3750D01*
G01*
Y510260D02*
G03*
X228525Y510260I-2000J-3750D01*
G01*
X218190Y474410D02*
G03*
X218190Y470410I3750J-2000D01*
G01*
X225190D02*
G03*
X225190Y474410I-3750J2000D01*
G01*
X257990Y503260D02*
G03*
X261990Y503260I2000J3750D01*
G01*
Y510260D02*
G03*
X257990Y510260I-2000J-3750D01*
G01*
X247530Y474410D02*
G03*
X247530Y470410I3750J-2000D01*
G01*
X254530D02*
G03*
X254530Y474410I-3750J2000D01*
G01*
X286975Y503360D02*
G03*
X290975Y503360I2000J3750D01*
G01*
Y510360D02*
G03*
X286975Y510360I-2000J-3750D01*
G01*
X276870Y474410D02*
G03*
X276870Y470410I3750J-2000D01*
G01*
X283870D02*
G03*
X283870Y474410I-3750J2000D01*
G01*
X316525Y503260D02*
G03*
X320525Y503260I2000J3750D01*
G01*
Y510260D02*
G03*
X316525Y510260I-2000J-3750D01*
G01*
X306210Y474410D02*
G03*
X306210Y470410I3750J-2000D01*
G01*
X313210D02*
G03*
X313210Y474410I-3750J2000D01*
G01*
X345575Y503210D02*
G03*
X349575Y503210I2000J3750D01*
G01*
Y510210D02*
G03*
X345575Y510210I-2000J-3750D01*
G01*
X335550Y474410D02*
G03*
X335550Y470410I3750J-2000D01*
G01*
X342550D02*
G03*
X342550Y474410I-3750J2000D01*
G01*
X375175Y503360D02*
G03*
X379175Y503360I2000J3750D01*
G01*
Y510360D02*
G03*
X375175Y510360I-2000J-3750D01*
G01*
X364890Y474400D02*
G03*
X364890Y470400I3750J-2000D01*
G01*
X371890D02*
G03*
X371890Y474400I-3750J2000D01*
G01*
X404575Y503260D02*
G03*
X408575Y503260I2000J3750D01*
G01*
Y510260D02*
G03*
X404575Y510260I-2000J-3750D01*
G01*
X394230Y474400D02*
G03*
X394230Y470400I3750J-2000D01*
G01*
X401230D02*
G03*
X401230Y474400I-3750J2000D01*
G01*
X433925Y503260D02*
G03*
X437925Y503260I2000J3750D01*
G01*
Y510260D02*
G03*
X433925Y510260I-2000J-3750D01*
G01*
X423570Y474400D02*
G03*
X423570Y470400I3750J-2000D01*
G01*
X430570D02*
G03*
X430570Y474400I-3750J2000D01*
G01*
X463275Y503260D02*
G03*
X467275Y503260I2000J3750D01*
G01*
Y510260D02*
G03*
X463275Y510260I-2000J-3750D01*
G01*
X452910Y474400D02*
G03*
X452910Y470400I3750J-2000D01*
G01*
X459910D02*
G03*
X459910Y474400I-3750J2000D01*
G01*
X492850Y503100D02*
G03*
X496850Y503100I2000J3750D01*
G01*
Y510100D02*
G03*
X492850Y510100I-2000J-3750D01*
G01*
X482250Y474400D02*
G03*
X482250Y470400I3750J-2000D01*
G01*
X489250D02*
G03*
X489250Y474400I-3750J2000D01*
G01*
X494025Y866810D02*
G03*
X490025Y866810I-2000J-3750D01*
G01*
Y859810D02*
G03*
X494025Y859810I2000J3750D01*
G01*
X492225Y837860D02*
G03*
X492225Y833860I3750J-2000D01*
G01*
X499225D02*
G03*
X499225Y837860I-3750J2000D01*
G01*
X203275Y503260D02*
Y510260D01*
X199275Y503260D02*
Y510260D01*
X188850Y470450D02*
X195850D01*
X188850Y474450D02*
X195850D01*
X232525Y503260D02*
Y510260D01*
X228525Y503260D02*
Y510260D01*
X218190Y470410D02*
X225190D01*
X218190Y474410D02*
X225190D01*
X261990Y503260D02*
Y510260D01*
X257990Y503260D02*
Y510260D01*
X247530Y470410D02*
X254530D01*
X247530Y474410D02*
X254530D01*
X290975Y503360D02*
Y510360D01*
X286975Y503360D02*
Y510360D01*
X276870Y470410D02*
X283870D01*
X276870Y474410D02*
X283870D01*
X320525Y503260D02*
Y510260D01*
X316525Y503260D02*
Y510260D01*
X306210Y470410D02*
X313210D01*
X306210Y474410D02*
X313210D01*
X349575Y503210D02*
Y510210D01*
X345575Y503210D02*
Y510210D01*
X335550Y470410D02*
X342550D01*
X335550Y474410D02*
X342550D01*
X379175Y503360D02*
Y510360D01*
X375175Y503360D02*
Y510360D01*
X364890Y470400D02*
X371890D01*
X364890Y474400D02*
X371890D01*
X408575Y503260D02*
Y510260D01*
X404575Y503260D02*
Y510260D01*
X394230Y470400D02*
X401230D01*
X394230Y474400D02*
X401230D01*
X437925Y503260D02*
Y510260D01*
X433925Y503260D02*
Y510260D01*
X423570Y470400D02*
X430570D01*
X423570Y474400D02*
X430570D01*
X467275Y503260D02*
Y510260D01*
X463275Y503260D02*
Y510260D01*
X452910Y470400D02*
X459910D01*
X452910Y474400D02*
X459910D01*
X496850Y503100D02*
Y510100D01*
X492850Y503100D02*
Y510100D01*
X482250Y470400D02*
X489250D01*
X482250Y474400D02*
X489250D01*
X490025Y859810D02*
Y866810D01*
X494025Y859810D02*
Y866810D01*
X492225Y833860D02*
X499225D01*
X492225Y837860D02*
X499225D01*
D73*
X207852Y691396D02*
Y693659D01*
X207852Y691396D02*
X208344D01*
X221041D02*
Y693659D01*
X220549Y691396D02*
X221041D01*
X221041Y702321D02*
Y704584D01*
X220549D02*
X221041D01*
X207852D02*
X208344D01*
X207852Y702321D02*
Y704584D01*
X262967Y691396D02*
Y693659D01*
X262967Y691396D02*
X263459D01*
X276156D02*
Y693659D01*
X275664Y691396D02*
X276156D01*
X276156Y702321D02*
Y704584D01*
X275664D02*
X276156D01*
X262967D02*
X263459D01*
X262967Y702321D02*
Y704584D01*
X320717Y691396D02*
Y693659D01*
X320717Y691396D02*
X321209D01*
X333906D02*
Y693659D01*
X333414Y691396D02*
X333906D01*
X333906Y702321D02*
Y704584D01*
X333414D02*
X333906D01*
X320717D02*
X321209D01*
X320717Y702321D02*
Y704584D01*
X379482Y691396D02*
Y693659D01*
X379482Y691396D02*
X379974D01*
X392671D02*
Y693659D01*
X392179Y691396D02*
X392671D01*
X392671Y702321D02*
Y704584D01*
X392179D02*
X392671D01*
X379482D02*
X379974D01*
X379482Y702321D02*
Y704584D01*
X437701Y691396D02*
Y693659D01*
X437701Y691396D02*
X438194D01*
X450890D02*
Y693659D01*
X450398Y691396D02*
X450890D01*
X450890Y702321D02*
Y704584D01*
X450398D02*
X450890D01*
X437701D02*
X438194D01*
X437701Y702321D02*
Y704584D01*
X487967Y691396D02*
Y693659D01*
X487967Y691396D02*
X488459D01*
X501156D02*
Y693659D01*
X500664Y691396D02*
X501156D01*
X501156Y702321D02*
Y704584D01*
X500664D02*
X501156D01*
X487967D02*
X488459D01*
X487967Y702321D02*
Y704584D01*
X405440Y827377D02*
X407113D01*
Y829050D01*
X393727Y827377D02*
X395400D01*
X393727D02*
Y829050D01*
Y839090D02*
Y840763D01*
X395400D01*
X405440D02*
X407113D01*
Y839090D02*
Y840763D01*
X390074Y773574D02*
Y807826D01*
X424326Y773574D02*
Y807826D01*
X390074Y773574D02*
X424326D01*
X390074Y807826D02*
X424326D01*
X190527Y516407D02*
Y518769D01*
X202338Y516407D02*
Y518769D01*
X190527D02*
X202338D01*
X190527Y516407D02*
X202338D01*
X190684Y486697D02*
Y489060D01*
X202495Y486697D02*
Y489060D01*
X190684D02*
X202495D01*
X190684Y486697D02*
X202495D01*
X219908Y516407D02*
Y518769D01*
X231719Y516407D02*
Y518769D01*
X219908D02*
X231719D01*
X219908Y516407D02*
X231719D01*
X220079Y486700D02*
Y489063D01*
X231890Y486700D02*
Y489063D01*
X220079D02*
X231890D01*
X220079Y486700D02*
X231890D01*
X249289Y516407D02*
Y518769D01*
X261100Y516407D02*
Y518769D01*
X249289D02*
X261100D01*
X249289Y516407D02*
X261100D01*
X249474Y486688D02*
Y489050D01*
X261285Y486688D02*
Y489050D01*
X249474D02*
X261285D01*
X249474Y486688D02*
X261285D01*
X278670Y516407D02*
Y518769D01*
X290480Y516407D02*
Y518769D01*
X278670D02*
X290480D01*
X278670Y516407D02*
X290480D01*
X278870Y486694D02*
Y489057D01*
X290681Y486694D02*
Y489057D01*
X278870D02*
X290681D01*
X278870Y486694D02*
X290681D01*
X308050Y516407D02*
Y518769D01*
X319861Y516407D02*
Y518769D01*
X308050D02*
X319861D01*
X308050Y516407D02*
X319861D01*
X308265Y486690D02*
Y489052D01*
X320076Y486690D02*
Y489052D01*
X308265D02*
X320076D01*
X308265Y486690D02*
X320076D01*
X337431Y516407D02*
Y518769D01*
X349242Y516407D02*
Y518769D01*
X337431D02*
X349242D01*
X337431Y516407D02*
X349242D01*
X337660Y486691D02*
Y489053D01*
X349471Y486691D02*
Y489053D01*
X337660D02*
X349471D01*
X337660Y486691D02*
X349471D01*
X366812Y516407D02*
Y518769D01*
X378623Y516407D02*
Y518769D01*
X366812D02*
X378623D01*
X366812Y516407D02*
X378623D01*
X367056Y486694D02*
Y489057D01*
X378867Y486694D02*
Y489057D01*
X367056D02*
X378867D01*
X367056Y486694D02*
X378867D01*
X396193Y516407D02*
Y518769D01*
X408004Y516407D02*
Y518769D01*
X396193D02*
X408004D01*
X396193Y516407D02*
X408004D01*
X396451Y486694D02*
Y489057D01*
X408262Y486694D02*
Y489057D01*
X396451D02*
X408262D01*
X396451Y486694D02*
X408262D01*
X425573Y516407D02*
Y518769D01*
X437384Y516407D02*
Y518769D01*
X425573D02*
X437384D01*
X425573Y516407D02*
X437384D01*
X425846Y486698D02*
Y489061D01*
X437657Y486698D02*
Y489061D01*
X425846D02*
X437657D01*
X425846Y486698D02*
X437657D01*
X454954Y516407D02*
Y518769D01*
X466765Y516407D02*
Y518769D01*
X454954D02*
X466765D01*
X454954Y516407D02*
X466765D01*
X455041Y486412D02*
Y488774D01*
X466853Y486412D02*
Y488774D01*
X455041D02*
X466853D01*
X455041Y486412D02*
X466853D01*
X484344Y516407D02*
Y518769D01*
X496156Y516407D02*
Y518769D01*
X484344D02*
X496156D01*
X484344Y516407D02*
X496156D01*
X484335Y486694D02*
Y489056D01*
X496146Y486694D02*
Y489056D01*
X484335D02*
X496146D01*
X484335Y486694D02*
X496146D01*
X488069Y872979D02*
Y875341D01*
X499880Y872979D02*
Y875341D01*
X488069D02*
X499880D01*
X488069Y872979D02*
X499880D01*
X493674Y843817D02*
Y846179D01*
X505485Y843817D02*
Y846179D01*
X493674D02*
X505485D01*
X493674Y843817D02*
X505485D01*
X249374Y773574D02*
Y807826D01*
X283626Y773574D02*
Y807826D01*
X249374Y773574D02*
X283626D01*
X249374Y807826D02*
X283626D01*
X265665Y827337D02*
X267338D01*
Y829010D01*
X253952Y827337D02*
X255625D01*
X253952D02*
Y829010D01*
Y839050D02*
Y840723D01*
X255625D01*
X265665D02*
X267338D01*
Y839050D02*
Y840723D01*
D76*
X162348Y342222D02*
D03*
D77*
X160304Y339672D02*
D03*
D78*
X158260Y339070D02*
D03*
D79*
X156206Y339901D02*
D03*
D80*
X154135Y341125D02*
D03*
M02*
