G04 Layer_Physical_Order=2*
G04 Layer_Color=11993160*
%FSLAX25Y25*%
%MOIN*%
G70*
G01*
G75*
%ADD53C,0.01000*%
%ADD57C,0.04000*%
%ADD58C,0.15800*%
%ADD59C,0.05000*%
%ADD60C,0.06000*%
G04:AMPARAMS|DCode=61|XSize=80mil|YSize=80mil|CornerRadius=0mil|HoleSize=0mil|Usage=FLASHONLY|Rotation=0.000|XOffset=0mil|YOffset=0mil|HoleType=Round|Shape=Relief|Width=10mil|Gap=10mil|Entries=4|*
%AMTHD61*
7,0,0,0.08000,0.06000,0.01000,45*
%
%ADD61THD61*%
G04:AMPARAMS|DCode=62|XSize=70mil|YSize=70mil|CornerRadius=0mil|HoleSize=0mil|Usage=FLASHONLY|Rotation=0.000|XOffset=0mil|YOffset=0mil|HoleType=Round|Shape=Relief|Width=10mil|Gap=10mil|Entries=4|*
%AMTHD62*
7,0,0,0.07000,0.05000,0.01000,45*
%
%ADD62THD62*%
G36*
X512000Y98665D02*
X512065Y98600D01*
X117200Y98600D01*
Y425100D01*
X512000Y425100D01*
Y98665D01*
D02*
G37*
D53*
X472400Y706500D02*
X501000D01*
X503300Y704200D01*
Y689200D02*
Y704200D01*
Y654400D02*
Y689200D01*
X491700Y642800D02*
X503300Y654400D01*
X126500Y821000D02*
Y830550D01*
Y821000D02*
X136300Y811200D01*
Y761200D02*
Y811200D01*
Y761200D02*
X199900Y697600D01*
Y690400D02*
Y697600D01*
X191300Y681800D02*
X199900Y690400D01*
X211600Y706500D02*
X472400D01*
X156500Y761600D02*
X211600Y706500D01*
X156500Y761600D02*
Y825100D01*
X195100Y642800D02*
X491700D01*
X191300Y646600D02*
X195100Y642800D01*
X191300Y646600D02*
Y681800D01*
X126500Y830550D02*
X128950Y833000D01*
X134612Y833750D02*
X142937D01*
X148600Y833000D02*
X156500Y825100D01*
X129700Y833750D02*
X134612D01*
X128950Y833000D02*
X129700Y833750D01*
X142937D02*
X147850D01*
X148650Y832950D01*
D57*
X100000Y951300D02*
X100025Y100010D01*
X100000Y951300D02*
X519685D01*
X518900Y950515D02*
X519685Y951300D01*
X518900Y100010D02*
Y950515D01*
X100025Y100010D02*
X518900D01*
D58*
X146200Y563550D02*
D03*
X390000Y939700D02*
D03*
X492900Y384900D02*
D03*
Y609780D02*
D03*
Y283060D02*
D03*
X146200D02*
D03*
X127100Y769500D02*
D03*
X264700Y939700D02*
D03*
X146200Y609780D02*
D03*
Y446420D02*
D03*
X508500Y939700D02*
D03*
X127100Y939900D02*
D03*
X146200Y119700D02*
D03*
X274780Y652700D02*
D03*
X353804D02*
D03*
X432828D02*
D03*
D59*
X426375Y505810D02*
D03*
X194675Y835910D02*
D03*
X188325Y820710D02*
D03*
X362375Y487560D02*
D03*
X416275Y505560D02*
D03*
X494975Y876144D02*
D03*
X500525Y828760D02*
D03*
X499357Y861678D02*
D03*
X507137Y849722D02*
D03*
X220975Y506160D02*
D03*
X250025Y505960D02*
D03*
X456075Y506110D02*
D03*
X397325Y505710D02*
D03*
X368175Y505960D02*
D03*
X338575Y505710D02*
D03*
X309475Y505960D02*
D03*
X279332Y505946D02*
D03*
X245150Y516750D02*
D03*
X382125Y472260D02*
D03*
X353112Y471460D02*
D03*
X323475Y471700D02*
D03*
X192100Y505950D02*
D03*
X485250Y505750D02*
D03*
X194675Y828910D02*
D03*
X302500Y753386D02*
D03*
X303150Y749305D02*
D03*
X306889Y749650D02*
D03*
X367750Y766150D02*
D03*
X118150Y218100D02*
D03*
X116250Y209520D02*
D03*
X352600Y763500D02*
D03*
X259350Y522300D02*
D03*
X450450Y778250D02*
D03*
X494550Y684200D02*
D03*
X444100D02*
D03*
X386050D02*
D03*
X327400D02*
D03*
X214300D02*
D03*
X269550D02*
D03*
X319600Y814800D02*
D03*
X323200Y812200D02*
D03*
X367900Y745900D02*
D03*
X367700Y708700D02*
D03*
X354600Y696600D02*
D03*
X247300Y754500D02*
D03*
X381500Y750900D02*
D03*
X508600Y793283D02*
D03*
Y778867D02*
D03*
Y764450D02*
D03*
Y750033D02*
D03*
Y735617D02*
D03*
X176525Y786010D02*
D03*
X463185Y845200D02*
D03*
X315500Y919600D02*
D03*
X315300Y904700D02*
D03*
X177300Y747600D02*
D03*
X146600Y742200D02*
D03*
X277800Y925000D02*
D03*
X470500Y887000D02*
D03*
X492099Y907000D02*
D03*
X209500Y921600D02*
D03*
X311971Y922900D02*
D03*
X172875Y859160D02*
D03*
X307300Y848200D02*
D03*
X272700Y845000D02*
D03*
X313700Y815075D02*
D03*
X391333Y831141D02*
D03*
X251200Y859900D02*
D03*
X255140Y867300D02*
D03*
X252240Y886640D02*
D03*
X493400Y627500D02*
D03*
X500100Y635700D02*
D03*
X461000Y574544D02*
D03*
X489000Y641600D02*
D03*
X155600Y721500D02*
D03*
X422300Y702200D02*
D03*
X380400Y656100D02*
D03*
X381200Y630745D02*
D03*
X260600Y648100D02*
D03*
X254900Y657300D02*
D03*
X188000Y844600D02*
D03*
X397200Y628238D02*
D03*
Y614457D02*
D03*
X381000Y562357D02*
D03*
X382500Y576035D02*
D03*
X382500Y589712D02*
D03*
Y603390D02*
D03*
X382550Y617067D02*
D03*
X367900Y626900D02*
D03*
Y610764D02*
D03*
Y594628D02*
D03*
Y578493D02*
D03*
Y562357D02*
D03*
X397100Y586895D02*
D03*
Y600676D02*
D03*
X450700Y845200D02*
D03*
X444100Y851300D02*
D03*
X471800Y853500D02*
D03*
X479900Y848300D02*
D03*
X461000Y586138D02*
D03*
Y597732D02*
D03*
Y609325D02*
D03*
Y620919D02*
D03*
Y632513D02*
D03*
X433800Y638600D02*
D03*
X452100Y639600D02*
D03*
X290700Y658000D02*
D03*
X443750Y631605D02*
D03*
Y619557D02*
D03*
Y607509D02*
D03*
X443700Y595462D02*
D03*
X449567Y583414D02*
D03*
X426500Y630427D02*
D03*
Y617707D02*
D03*
Y604987D02*
D03*
X345500Y623120D02*
D03*
Y611960D02*
D03*
X345500Y600800D02*
D03*
X311100Y573000D02*
D03*
Y584943D02*
D03*
Y596886D02*
D03*
Y608828D02*
D03*
Y620771D02*
D03*
Y632714D02*
D03*
X379400Y643600D02*
D03*
X310950Y642600D02*
D03*
X323925Y642600D02*
D03*
X390625Y639149D02*
D03*
X328300Y621767D02*
D03*
Y610155D02*
D03*
X328300Y598544D02*
D03*
X319750Y586933D02*
D03*
X337050Y634280D02*
D03*
X403600Y639600D02*
D03*
X336900Y642600D02*
D03*
X289100Y600100D02*
D03*
X290900Y618833D02*
D03*
X290700Y637567D02*
D03*
X272733Y585449D02*
D03*
X273100Y599619D02*
D03*
X273300Y613789D02*
D03*
X272800Y626400D02*
D03*
X272100Y637600D02*
D03*
X255700Y631100D02*
D03*
Y614150D02*
D03*
Y600100D02*
D03*
Y586050D02*
D03*
Y572000D02*
D03*
X212385Y697900D02*
D03*
X216585Y697800D02*
D03*
X267500Y697900D02*
D03*
X271700Y697800D02*
D03*
X325250Y697900D02*
D03*
X329450Y697800D02*
D03*
X384015Y697900D02*
D03*
X388215Y697800D02*
D03*
X442234Y697900D02*
D03*
X446434Y697800D02*
D03*
X496700D02*
D03*
X492500Y697900D02*
D03*
X210300Y848700D02*
D03*
X353400Y851800D02*
D03*
X336800Y851500D02*
D03*
X452800Y794500D02*
D03*
X209000Y798395D02*
D03*
X472900Y783000D02*
D03*
X260300Y825140D02*
D03*
X324940Y853550D02*
D03*
X274500Y826800D02*
D03*
X280600Y830700D02*
D03*
X270000Y823800D02*
D03*
X269200Y826800D02*
D03*
X512025Y866560D02*
D03*
X510575Y906060D02*
D03*
X478068Y807884D02*
D03*
X478068Y833711D02*
D03*
X483710Y827759D02*
D03*
X481180Y830611D02*
D03*
X195765Y856824D02*
D03*
X259035Y832133D02*
D03*
X250342Y832655D02*
D03*
X254614Y849675D02*
D03*
X209608Y783549D02*
D03*
X213947Y783514D02*
D03*
X204865Y801990D02*
D03*
X204471Y816814D02*
D03*
X206833Y823938D02*
D03*
X241692Y718339D02*
D03*
X243973Y720752D02*
D03*
X244907Y729898D02*
D03*
X244539Y742831D02*
D03*
X249029Y741291D02*
D03*
X241206Y744496D02*
D03*
X284465Y739058D02*
D03*
X288479Y739145D02*
D03*
X289316Y735471D02*
D03*
X293260Y736021D02*
D03*
X401962Y825033D02*
D03*
X336140Y808490D02*
D03*
X333140Y806725D02*
D03*
X462130Y744336D02*
D03*
X382768Y832858D02*
D03*
X405490Y825725D02*
D03*
X436522Y840235D02*
D03*
X470086Y839575D02*
D03*
X436210Y837235D02*
D03*
X460183Y842174D02*
D03*
X469785Y836481D02*
D03*
X483836Y770286D02*
D03*
X481180Y772858D02*
D03*
X478780Y776314D02*
D03*
X478588Y787870D02*
D03*
X475805Y790327D02*
D03*
X472791Y792400D02*
D03*
X476016Y778848D02*
D03*
X456120Y807696D02*
D03*
X236662Y802674D02*
D03*
X227001Y803038D02*
D03*
X236685Y807474D02*
D03*
X171963Y492600D02*
D03*
X493778Y492666D02*
D03*
X465041Y492215D02*
D03*
X435867Y492407D02*
D03*
X171876Y522300D02*
D03*
X501700Y471350D02*
D03*
X444775Y505910D02*
D03*
X450550Y477168D02*
D03*
X418462Y843479D02*
D03*
X421153Y477157D02*
D03*
X274328Y477657D02*
D03*
X244930Y477519D02*
D03*
X239192Y505264D02*
D03*
X229297Y492617D02*
D03*
X413516Y832210D02*
D03*
X186257Y477553D02*
D03*
X479857Y477539D02*
D03*
X509114Y477417D02*
D03*
X257692Y842313D02*
D03*
X265455Y825160D02*
D03*
X400615Y896600D02*
D03*
X400175Y891450D02*
D03*
X400340Y886640D02*
D03*
X400255Y859580D02*
D03*
X403060Y867270D02*
D03*
X252515Y896600D02*
D03*
X252075Y891450D02*
D03*
X318650Y867325D02*
D03*
X315845Y859990D02*
D03*
X425765Y906600D02*
D03*
X425985Y896600D02*
D03*
X425765Y891600D02*
D03*
X363585Y906600D02*
D03*
X363805Y896600D02*
D03*
X363585Y891600D02*
D03*
X278735Y884205D02*
D03*
X279880Y906600D02*
D03*
X280100Y896600D02*
D03*
X279880Y891600D02*
D03*
X315930Y887050D02*
D03*
X315765Y891860D02*
D03*
X316205Y897010D02*
D03*
X216690Y891600D02*
D03*
X216910Y896600D02*
D03*
X440768Y920928D02*
D03*
X380068D02*
D03*
X295568D02*
D03*
X231968D02*
D03*
X419653Y831162D02*
D03*
X292240Y850750D02*
D03*
X269645Y819865D02*
D03*
X200329Y492603D02*
D03*
X200173Y522303D02*
D03*
X378141Y806951D02*
D03*
X411705Y846017D02*
D03*
X434065Y851489D02*
D03*
X259392Y492706D02*
D03*
X288092Y492456D02*
D03*
X298275Y505560D02*
D03*
X303725Y477358D02*
D03*
X317562Y492487D02*
D03*
X333195Y477389D02*
D03*
X347131Y492506D02*
D03*
X376334Y492441D02*
D03*
X405907Y492463D02*
D03*
X187941Y456308D02*
D03*
X217316D02*
D03*
X246690D02*
D03*
X276064D02*
D03*
X305438D02*
D03*
X334812D02*
D03*
X364187D02*
D03*
X393561D02*
D03*
X423235D02*
D03*
X452367D02*
D03*
X481749D02*
D03*
X511058D02*
D03*
X422783Y857472D02*
D03*
X454779Y732002D02*
D03*
X453266Y729272D02*
D03*
X451274Y727022D02*
D03*
X449333Y724589D02*
D03*
X452089Y754869D02*
D03*
X450043Y751996D02*
D03*
X423511Y736888D02*
D03*
X426715Y737348D02*
D03*
X430812Y737253D02*
D03*
X420936Y735077D02*
D03*
X443934Y718147D02*
D03*
X421644Y715630D02*
D03*
X423695Y712993D02*
D03*
X353389Y784627D02*
D03*
X361309Y794970D02*
D03*
X358970Y792611D02*
D03*
X414502Y823288D02*
D03*
X404291Y822516D02*
D03*
X410645Y822100D02*
D03*
X408567Y825028D02*
D03*
X416168Y888702D02*
D03*
X364688Y857518D02*
D03*
X440359Y715125D02*
D03*
X461736Y741249D02*
D03*
X229554Y522313D02*
D03*
X288315D02*
D03*
X317696D02*
D03*
X347077D02*
D03*
X376457D02*
D03*
X435219D02*
D03*
X464600D02*
D03*
X405838D02*
D03*
X329283Y841596D02*
D03*
X331778Y839102D02*
D03*
X319631Y793219D02*
D03*
X317476Y791132D02*
D03*
X315018Y789154D02*
D03*
X312662Y786522D02*
D03*
X328249Y791591D02*
D03*
X324701Y789058D02*
D03*
X290555Y756785D02*
D03*
X398483Y832329D02*
D03*
X375552Y837798D02*
D03*
X378421Y841298D02*
D03*
X364992Y884053D02*
D03*
X361739Y879059D02*
D03*
X321520Y786421D02*
D03*
X318690Y783892D02*
D03*
X334552Y815418D02*
D03*
X321374Y827133D02*
D03*
X324988Y828579D02*
D03*
X303905Y856836D02*
D03*
X264600Y822100D02*
D03*
X269900Y835500D02*
D03*
X402054Y835546D02*
D03*
X466301Y845483D02*
D03*
X424620Y884205D02*
D03*
X457300Y793600D02*
D03*
X249074Y732270D02*
D03*
X268300Y871300D02*
D03*
X326300Y871100D02*
D03*
X413400Y871400D02*
D03*
X475500Y867270D02*
D03*
X472500Y859918D02*
D03*
X338100Y817700D02*
D03*
X201400Y582589D02*
D03*
Y594974D02*
D03*
Y607359D02*
D03*
Y619744D02*
D03*
X214600Y587233D02*
D03*
Y601167D02*
D03*
Y615100D02*
D03*
X108950Y922450D02*
D03*
Y908075D02*
D03*
Y893700D02*
D03*
Y879325D02*
D03*
Y864800D02*
D03*
X226200Y607900D02*
D03*
X250600Y922300D02*
D03*
X262800Y908900D02*
D03*
X332000Y921400D02*
D03*
X344400Y919700D02*
D03*
X340700Y905650D02*
D03*
X341300Y889900D02*
D03*
X405200Y909400D02*
D03*
X449567Y571367D02*
D03*
X426400Y592267D02*
D03*
X485700Y585333D02*
D03*
X494500Y578367D02*
D03*
X512100Y564433D02*
D03*
Y577114D02*
D03*
Y589795D02*
D03*
Y602476D02*
D03*
Y615157D02*
D03*
X496600Y594300D02*
D03*
X485500Y633809D02*
D03*
X480300Y604724D02*
D03*
X512100Y627838D02*
D03*
Y640519D02*
D03*
X290700Y649300D02*
D03*
X124350Y692200D02*
D03*
X137350Y678800D02*
D03*
X151760Y670686D02*
D03*
X175280Y664525D02*
D03*
X145200Y653300D02*
D03*
X158500Y579300D02*
D03*
X175280Y648331D02*
D03*
X163600Y661820D02*
D03*
X145950Y632200D02*
D03*
X128100Y666066D02*
D03*
X175280Y632138D02*
D03*
X156400Y645200D02*
D03*
X128100Y645550D02*
D03*
X175280Y615944D02*
D03*
X163485Y628080D02*
D03*
X160750Y682550D02*
D03*
X143250Y694050D02*
D03*
X175280Y680719D02*
D03*
X148350Y590800D02*
D03*
X146850Y709000D02*
D03*
X175280Y696912D02*
D03*
X160300Y695700D02*
D03*
X163600Y712430D02*
D03*
X175280Y713106D02*
D03*
Y729300D02*
D03*
X127700Y542967D02*
D03*
X175380Y567363D02*
D03*
X127700Y563483D02*
D03*
Y584000D02*
D03*
Y604516D02*
D03*
X175380Y583557D02*
D03*
X127700Y625033D02*
D03*
X175380Y599750D02*
D03*
X163700Y611210D02*
D03*
X140250Y517950D02*
D03*
X151060Y512641D02*
D03*
X127700Y501933D02*
D03*
X139380Y495526D02*
D03*
X151060Y495541D02*
D03*
X147450Y535100D02*
D03*
X159200Y550400D02*
D03*
X127700Y522450D02*
D03*
X151060Y478442D02*
D03*
X139380Y478426D02*
D03*
X127700Y481417D02*
D03*
X151060Y461342D02*
D03*
X127700Y460900D02*
D03*
X129600Y446200D02*
D03*
X114800Y449800D02*
D03*
X124500Y434400D02*
D03*
X147790D02*
D03*
X171080D02*
D03*
X232900Y843400D02*
D03*
X227100Y848500D02*
D03*
X218600Y837300D02*
D03*
X508600Y721200D02*
D03*
X465800Y716600D02*
D03*
X270500Y852100D02*
D03*
X200500Y772800D02*
D03*
X223700Y768300D02*
D03*
X508600Y807700D02*
D03*
X269500Y739000D02*
D03*
X435700Y748300D02*
D03*
X446900Y743100D02*
D03*
X333500Y741000D02*
D03*
X298600Y840600D02*
D03*
X322200Y847400D02*
D03*
X341600Y832100D02*
D03*
X437200Y725100D02*
D03*
X342400Y844300D02*
D03*
X341600Y804200D02*
D03*
X317950Y737150D02*
D03*
X317500Y751800D02*
D03*
X395100Y721200D02*
D03*
X394600Y712900D02*
D03*
X396400Y698100D02*
D03*
X333300Y728200D02*
D03*
X283200Y713900D02*
D03*
X298600Y728500D02*
D03*
X283600Y699100D02*
D03*
X292900Y688700D02*
D03*
X234200Y690700D02*
D03*
X228800Y700000D02*
D03*
X250400Y700300D02*
D03*
X198000Y711800D02*
D03*
X202900Y723300D02*
D03*
X209000Y635100D02*
D03*
X231600Y638200D02*
D03*
X385600Y853300D02*
D03*
X180000Y765300D02*
D03*
X174400Y755300D02*
D03*
X229500Y735200D02*
D03*
X145151Y735211D02*
D03*
X229600Y738200D02*
D03*
X132300Y738500D02*
D03*
X229800Y747400D02*
D03*
X197779Y795621D02*
D03*
X123700Y206800D02*
D03*
X120200Y220500D02*
D03*
X394900Y828725D02*
D03*
X204300Y754300D02*
D03*
X223300Y758300D02*
D03*
X223100Y761300D02*
D03*
X185400Y750100D02*
D03*
X189500Y752200D02*
D03*
X201000Y805000D02*
D03*
X458100Y771700D02*
D03*
X466300Y908500D02*
D03*
X167800Y871900D02*
D03*
X178170Y905230D02*
D03*
X476147Y892147D02*
D03*
X481900Y896600D02*
D03*
X217400Y904500D02*
D03*
X214800Y915400D02*
D03*
X214200Y910000D02*
D03*
X215545Y884205D02*
D03*
X110200Y762650D02*
D03*
X110400Y775425D02*
D03*
X110000Y788200D02*
D03*
X110200Y737100D02*
D03*
X110000Y749875D02*
D03*
X127400D02*
D03*
X357800Y919400D02*
D03*
X362400Y920000D02*
D03*
X462900Y916000D02*
D03*
X184600Y875747D02*
D03*
X184100Y908970D02*
D03*
X482100Y874500D02*
D03*
X335600Y658400D02*
D03*
X332100Y650600D02*
D03*
X194700Y633900D02*
D03*
X222800Y629300D02*
D03*
X381800Y819900D02*
D03*
X432900Y825400D02*
D03*
X437800Y824800D02*
D03*
X365035Y777065D02*
D03*
X358518Y804882D02*
D03*
X297200Y772900D02*
D03*
X309600Y780000D02*
D03*
X222700Y777400D02*
D03*
X212532Y810500D02*
D03*
X223400Y806100D02*
D03*
X242800Y755200D02*
D03*
X295700Y822600D02*
D03*
X443370Y766430D02*
D03*
X447800Y795000D02*
D03*
X243832Y818968D02*
D03*
X362300Y841000D02*
D03*
X194350Y731050D02*
D03*
Y741650D02*
D03*
X324075Y633378D02*
D03*
X183149Y107744D02*
D03*
X212300D02*
D03*
X241867D02*
D03*
X271227D02*
D03*
X300586D02*
D03*
X359000D02*
D03*
X329945D02*
D03*
X388663D02*
D03*
X418022D02*
D03*
X447381D02*
D03*
X506099D02*
D03*
X476740D02*
D03*
X341400Y695200D02*
D03*
X303250Y757500D02*
D03*
X297250Y766550D02*
D03*
X113250Y243200D02*
D03*
X113300Y230850D02*
D03*
X107000Y201267D02*
D03*
X159375Y784410D02*
D03*
X141600Y776450D02*
D03*
X147700Y758000D02*
D03*
X124800Y879325D02*
D03*
Y893700D02*
D03*
Y908075D02*
D03*
Y922450D02*
D03*
X140650Y908075D02*
D03*
Y922450D02*
D03*
X108050Y121850D02*
D03*
Y136225D02*
D03*
Y150600D02*
D03*
Y164975D02*
D03*
Y179350D02*
D03*
X493980Y522313D02*
D03*
X207650Y472400D02*
D03*
X216100Y516000D02*
D03*
X215634Y477556D02*
D03*
X209900Y505650D02*
D03*
X274325Y515760D02*
D03*
X332875Y515510D02*
D03*
X303725D02*
D03*
X362925Y516260D02*
D03*
X392325Y516210D02*
D03*
X421825Y516910D02*
D03*
X450825Y516610D02*
D03*
X480275Y516410D02*
D03*
X186525Y516360D02*
D03*
X508375Y516160D02*
D03*
X268620Y505354D02*
D03*
X327525Y506010D02*
D03*
X356775Y505910D02*
D03*
X385825Y506010D02*
D03*
X473875Y505660D02*
D03*
X503575Y505410D02*
D03*
X178925Y506081D02*
D03*
X235925Y472110D02*
D03*
X266475Y471160D02*
D03*
X391967Y477343D02*
D03*
X411925Y472260D02*
D03*
X470575Y472210D02*
D03*
X176653Y472381D02*
D03*
X441975Y471910D02*
D03*
X295025Y470760D02*
D03*
D60*
X126575Y812110D02*
D03*
Y818060D02*
D03*
X126275Y841660D02*
D03*
D61*
X171025Y798063D02*
D03*
X164875Y798060D02*
D03*
X139400Y829800D02*
D03*
Y823938D02*
D03*
D62*
X491925Y891610D02*
D03*
X498925Y865160D02*
D03*
X481478Y500400D02*
D03*
X504110Y836110D02*
D03*
X406620Y500850D02*
D03*
X289042Y501010D02*
D03*
X289625Y508860D02*
D03*
X376975Y500860D02*
D03*
X377925Y508710D02*
D03*
X348275Y508660D02*
D03*
X347875Y501010D02*
D03*
X435825Y501060D02*
D03*
X465275Y501010D02*
D03*
X260070Y500850D02*
D03*
X230125Y508510D02*
D03*
X230175Y501010D02*
D03*
X405317Y478847D02*
D03*
X375922D02*
D03*
X317175Y478410D02*
D03*
X346527Y478843D02*
D03*
X466050Y508750D02*
D03*
X407317Y508850D02*
D03*
X319131D02*
D03*
X260340Y508750D02*
D03*
X201550D02*
D03*
X503300Y538350D02*
D03*
X481628Y530600D02*
D03*
X493382Y478882D02*
D03*
X497585Y685603D02*
D03*
X292200Y769600D02*
D03*
X389100Y685600D02*
D03*
X393556Y539475D02*
D03*
X446000Y774500D02*
D03*
X517315Y447031D02*
D03*
X436712Y508673D02*
D03*
X452380Y530378D02*
D03*
X452172Y500324D02*
D03*
X318690Y500850D02*
D03*
X305478Y500241D02*
D03*
X276266Y530378D02*
D03*
X276190Y500347D02*
D03*
X246192Y500418D02*
D03*
X246519Y539509D02*
D03*
X199550Y478850D02*
D03*
X217224Y500404D02*
D03*
X217552Y539495D02*
D03*
X452801Y805262D02*
D03*
X409697Y836126D02*
D03*
X464875Y478249D02*
D03*
X511420Y530464D02*
D03*
X495503Y508652D02*
D03*
X492444Y442418D02*
D03*
X313615Y805880D02*
D03*
X444232Y920892D02*
D03*
X383532D02*
D03*
X299032D02*
D03*
X235432D02*
D03*
X266575Y751495D02*
D03*
X510788Y500552D02*
D03*
X276614Y539598D02*
D03*
X305314Y539348D02*
D03*
X334785Y539379D02*
D03*
X334456Y500288D02*
D03*
X364353Y539398D02*
D03*
X364025Y500307D02*
D03*
X393590Y530386D02*
D03*
X393229Y500242D02*
D03*
X423130Y539355D02*
D03*
X422801Y500264D02*
D03*
X453405Y539495D02*
D03*
X185869Y539902D02*
D03*
X479968Y539994D02*
D03*
X463062Y442418D02*
D03*
X433930D02*
D03*
X404256D02*
D03*
X374882D02*
D03*
X345507D02*
D03*
X316133D02*
D03*
X286759D02*
D03*
X257385D02*
D03*
X228011D02*
D03*
X198636D02*
D03*
X272585Y685707D02*
D03*
X447161D02*
D03*
X217312D02*
D03*
X188208Y530378D02*
D03*
X217561D02*
D03*
X246913D02*
D03*
X305618D02*
D03*
X335108Y530262D02*
D03*
X364323Y530378D02*
D03*
X423028D02*
D03*
X307200Y776800D02*
D03*
X272300Y837500D02*
D03*
X366600Y773700D02*
D03*
X330435Y686153D02*
D03*
X115300Y213300D02*
D03*
X291668Y825132D02*
D03*
X429600Y825600D02*
D03*
X242800Y823500D02*
D03*
X220100Y803500D02*
D03*
X211100Y807500D02*
D03*
X443600Y795500D02*
D03*
X226800Y774700D02*
D03*
X381900Y823400D02*
D03*
X115100Y206700D02*
D03*
X113250Y238150D02*
D03*
X107000Y192350D02*
D03*
X494550Y500850D02*
D03*
X201450D02*
D03*
X187475Y500460D02*
D03*
X171897Y501110D02*
D03*
X171925Y508860D02*
D03*
X435497Y478072D02*
D03*
X169857Y478542D02*
D03*
X228945Y478853D02*
D03*
X258341Y478840D02*
D03*
X287736Y478847D02*
D03*
M02*
