G04 Layer_Color=8150272*
%FSLAX25Y25*%
%MOIN*%
G70*
G01*
G75*
%ADD81R,0.02841X0.02998*%
%ADD85R,0.03353X0.04337*%
%ADD86R,0.06699X0.05321*%
%ADD88R,0.01581X0.02959*%
%ADD89R,0.10164X0.06502*%
%ADD90O,0.06896X0.01581*%
%ADD91O,0.01581X0.06896*%
%ADD92O,0.01384X0.03550*%
%ADD93O,0.03550X0.01384*%
%ADD94R,0.03156X0.04337*%
%ADD95R,0.07093X0.03550*%
%ADD96R,0.04731X0.04731*%
%ADD97R,0.02565X0.02565*%
%ADD98R,0.03156X0.03353*%
%ADD99R,0.03353X0.03156*%
%ADD100R,0.02565X0.02565*%
%ADD101R,0.02600X0.02600*%
%ADD102R,0.02841X0.02841*%
%ADD103R,0.08274X0.16148*%
%ADD104R,0.03156X0.04140*%
%ADD105R,0.04140X0.03156*%
%ADD106R,0.03550X0.03550*%
%ADD108R,0.02998X0.02841*%
%ADD109R,0.02447X0.02605*%
%ADD110R,0.02920X0.03077*%
%ADD120R,0.02762X0.06306*%
%ADD121C,0.12200*%
%ADD122C,0.02400*%
%ADD123C,0.03400*%
%ADD124R,0.12200X0.08274*%
%ADD125R,0.02600X0.02600*%
%ADD126R,0.03077X0.02920*%
%ADD127R,0.05321X0.07487*%
%ADD128R,0.02800X0.04400*%
D81*
X232300Y780732D02*
D03*
Y777268D02*
D03*
X216100Y806932D02*
D03*
Y803468D02*
D03*
X242200Y811568D02*
D03*
Y815032D02*
D03*
X229835Y806071D02*
D03*
Y802606D02*
D03*
X383795Y811603D02*
D03*
Y815067D02*
D03*
X373053Y805901D02*
D03*
Y802437D02*
D03*
X370275Y781295D02*
D03*
Y777831D02*
D03*
X440600Y778164D02*
D03*
Y774700D02*
D03*
X489451Y850360D02*
D03*
Y846896D02*
D03*
X501375Y836042D02*
D03*
Y832578D02*
D03*
X496025Y865142D02*
D03*
Y861678D02*
D03*
X490250Y479132D02*
D03*
Y475668D02*
D03*
X460885Y479132D02*
D03*
Y475668D02*
D03*
X462075Y508892D02*
D03*
Y505428D02*
D03*
X431520Y479132D02*
D03*
Y475668D02*
D03*
X432725Y508942D02*
D03*
Y505478D02*
D03*
X402155Y479132D02*
D03*
Y475668D02*
D03*
X403425Y508942D02*
D03*
Y505478D02*
D03*
X372790Y479132D02*
D03*
Y475668D02*
D03*
X373975Y508942D02*
D03*
Y505478D02*
D03*
X343425Y479132D02*
D03*
Y475668D02*
D03*
X344475Y508942D02*
D03*
Y505478D02*
D03*
X314060Y479132D02*
D03*
Y475668D02*
D03*
X315425Y508942D02*
D03*
Y505478D02*
D03*
X284695Y479132D02*
D03*
Y475668D02*
D03*
X285825Y508942D02*
D03*
Y505478D02*
D03*
X255330Y479132D02*
D03*
Y475668D02*
D03*
X256790Y508932D02*
D03*
Y505468D02*
D03*
X225965Y479132D02*
D03*
Y475668D02*
D03*
X227420Y508932D02*
D03*
Y505468D02*
D03*
X196600Y479132D02*
D03*
Y475668D02*
D03*
X198050Y508932D02*
D03*
Y505468D02*
D03*
X491750Y508932D02*
D03*
Y505468D02*
D03*
D85*
X477418Y510984D02*
D03*
Y522402D02*
D03*
X482536D02*
D03*
Y510984D02*
D03*
X183515D02*
D03*
Y522402D02*
D03*
X188633D02*
D03*
Y510984D02*
D03*
X183610Y481260D02*
D03*
Y492677D02*
D03*
X188729D02*
D03*
Y481260D02*
D03*
X212905Y510984D02*
D03*
Y522402D02*
D03*
X218023D02*
D03*
Y510984D02*
D03*
X213074Y481263D02*
D03*
Y492680D02*
D03*
X218193D02*
D03*
Y481263D02*
D03*
X242296Y510984D02*
D03*
Y522402D02*
D03*
X247414D02*
D03*
Y510984D02*
D03*
X242491Y481250D02*
D03*
Y492667D02*
D03*
X247609D02*
D03*
Y481250D02*
D03*
X271686Y510984D02*
D03*
Y522402D02*
D03*
X276804D02*
D03*
Y510984D02*
D03*
X271884Y481257D02*
D03*
Y492674D02*
D03*
X277003D02*
D03*
Y481257D02*
D03*
X301076Y510984D02*
D03*
Y522402D02*
D03*
X306194D02*
D03*
Y510984D02*
D03*
X301076Y481252D02*
D03*
Y492669D02*
D03*
X306194D02*
D03*
Y481252D02*
D03*
X330467Y510984D02*
D03*
Y522402D02*
D03*
X335585D02*
D03*
Y510984D02*
D03*
X330395Y481253D02*
D03*
Y492670D02*
D03*
X335513D02*
D03*
Y481253D02*
D03*
X359857Y510984D02*
D03*
Y522402D02*
D03*
X364975D02*
D03*
Y510984D02*
D03*
X359804Y481257D02*
D03*
Y492674D02*
D03*
X364922D02*
D03*
Y481257D02*
D03*
X389247Y510984D02*
D03*
Y522402D02*
D03*
X394365D02*
D03*
Y510984D02*
D03*
X389214Y481257D02*
D03*
Y492674D02*
D03*
X394332D02*
D03*
Y481257D02*
D03*
X418637Y510984D02*
D03*
Y522402D02*
D03*
X423756D02*
D03*
Y510984D02*
D03*
X418604Y481261D02*
D03*
Y492678D02*
D03*
X423722D02*
D03*
Y481261D02*
D03*
X448028Y511084D02*
D03*
Y522502D02*
D03*
X453146D02*
D03*
Y511084D02*
D03*
X448036Y481250D02*
D03*
Y492667D02*
D03*
X453154D02*
D03*
Y481250D02*
D03*
X477418Y481269D02*
D03*
Y492687D02*
D03*
X482536D02*
D03*
Y481269D02*
D03*
X506727Y510984D02*
D03*
Y522402D02*
D03*
X511845D02*
D03*
Y510984D02*
D03*
X506727Y481069D02*
D03*
Y492487D02*
D03*
X511845D02*
D03*
Y481069D02*
D03*
D86*
X449858Y819691D02*
D03*
X435291D02*
D03*
Y811029D02*
D03*
X449858D02*
D03*
X308483Y818131D02*
D03*
X293917D02*
D03*
Y809469D02*
D03*
X308483D02*
D03*
D88*
X210509Y704092D02*
D03*
X212478D02*
D03*
X214446D02*
D03*
X216415D02*
D03*
X218384D02*
D03*
Y691888D02*
D03*
X216415D02*
D03*
X214446D02*
D03*
X212478D02*
D03*
X210509D02*
D03*
X265624Y704092D02*
D03*
X267593D02*
D03*
X269561D02*
D03*
X271530D02*
D03*
X273498D02*
D03*
Y691888D02*
D03*
X271530D02*
D03*
X269561D02*
D03*
X267593D02*
D03*
X265624D02*
D03*
X323374Y704092D02*
D03*
X325343D02*
D03*
X327311D02*
D03*
X329280D02*
D03*
X331248D02*
D03*
Y691888D02*
D03*
X329280D02*
D03*
X327311D02*
D03*
X325343D02*
D03*
X323374D02*
D03*
X382139Y704092D02*
D03*
X384108D02*
D03*
X386076D02*
D03*
X388045D02*
D03*
X390013D02*
D03*
Y691888D02*
D03*
X388045D02*
D03*
X386076D02*
D03*
X384108D02*
D03*
X382139D02*
D03*
X440359Y704092D02*
D03*
X442327D02*
D03*
X444296D02*
D03*
X446264D02*
D03*
X448233D02*
D03*
Y691888D02*
D03*
X446264D02*
D03*
X444296D02*
D03*
X442327D02*
D03*
X440359D02*
D03*
X490624Y704092D02*
D03*
X492593D02*
D03*
X494561D02*
D03*
X496530D02*
D03*
X498498D02*
D03*
Y691888D02*
D03*
X496530D02*
D03*
X494561D02*
D03*
X492593D02*
D03*
X490624D02*
D03*
D89*
X214446Y697990D02*
D03*
X269561D02*
D03*
X327311D02*
D03*
X386076D02*
D03*
X444296D02*
D03*
X494561D02*
D03*
D90*
X385251Y775936D02*
D03*
Y777905D02*
D03*
Y779873D02*
D03*
Y781842D02*
D03*
Y783810D02*
D03*
Y785779D02*
D03*
Y787747D02*
D03*
Y789716D02*
D03*
Y791684D02*
D03*
Y793653D02*
D03*
Y795621D02*
D03*
Y797590D02*
D03*
Y799558D02*
D03*
Y801527D02*
D03*
Y803495D02*
D03*
Y805464D02*
D03*
X429149D02*
D03*
Y803495D02*
D03*
Y801527D02*
D03*
Y799558D02*
D03*
Y797590D02*
D03*
Y795621D02*
D03*
Y793653D02*
D03*
Y791684D02*
D03*
Y789716D02*
D03*
Y787747D02*
D03*
Y785779D02*
D03*
Y783810D02*
D03*
Y781842D02*
D03*
Y779873D02*
D03*
Y777905D02*
D03*
Y775936D02*
D03*
X244551D02*
D03*
Y777905D02*
D03*
Y779873D02*
D03*
Y781842D02*
D03*
Y783810D02*
D03*
Y785779D02*
D03*
Y787747D02*
D03*
Y789716D02*
D03*
Y791684D02*
D03*
Y793653D02*
D03*
Y795621D02*
D03*
Y797590D02*
D03*
Y799558D02*
D03*
Y801527D02*
D03*
Y803495D02*
D03*
Y805464D02*
D03*
X288449D02*
D03*
Y803495D02*
D03*
Y801527D02*
D03*
Y799558D02*
D03*
Y797590D02*
D03*
Y795621D02*
D03*
Y793653D02*
D03*
Y791684D02*
D03*
Y789716D02*
D03*
Y787747D02*
D03*
Y785779D02*
D03*
Y783810D02*
D03*
Y781842D02*
D03*
Y779873D02*
D03*
Y777905D02*
D03*
Y775936D02*
D03*
D91*
X392436Y812649D02*
D03*
X394405D02*
D03*
X396373D02*
D03*
X398342D02*
D03*
X400310D02*
D03*
X402279D02*
D03*
X404247D02*
D03*
X406216D02*
D03*
X408184D02*
D03*
X410153D02*
D03*
X412121D02*
D03*
X414090D02*
D03*
X416058D02*
D03*
X418027D02*
D03*
X419995D02*
D03*
X421964D02*
D03*
Y768751D02*
D03*
X419995D02*
D03*
X418027D02*
D03*
X416058D02*
D03*
X414090D02*
D03*
X412121D02*
D03*
X410153D02*
D03*
X408184D02*
D03*
X406216D02*
D03*
X404247D02*
D03*
X402279D02*
D03*
X400310D02*
D03*
X398342D02*
D03*
X396373D02*
D03*
X394405D02*
D03*
X392436D02*
D03*
X251736Y812649D02*
D03*
X253705D02*
D03*
X255673D02*
D03*
X257642D02*
D03*
X259610D02*
D03*
X261579D02*
D03*
X263547D02*
D03*
X265516D02*
D03*
X267484D02*
D03*
X269453D02*
D03*
X271421D02*
D03*
X273390D02*
D03*
X275358D02*
D03*
X277327D02*
D03*
X279295D02*
D03*
X281264D02*
D03*
Y768751D02*
D03*
X279295D02*
D03*
X277327D02*
D03*
X275358D02*
D03*
X273390D02*
D03*
X271421D02*
D03*
X269453D02*
D03*
X267484D02*
D03*
X265516D02*
D03*
X263547D02*
D03*
X261579D02*
D03*
X259610D02*
D03*
X257642D02*
D03*
X255673D02*
D03*
X253705D02*
D03*
X251736D02*
D03*
D92*
X403373Y839582D02*
D03*
X401404D02*
D03*
X399436D02*
D03*
X397467D02*
D03*
Y828558D02*
D03*
X399436D02*
D03*
X401404D02*
D03*
X403373D02*
D03*
X263598Y839542D02*
D03*
X261629D02*
D03*
X259661D02*
D03*
X257692D02*
D03*
Y828518D02*
D03*
X259661D02*
D03*
X261629D02*
D03*
X263598D02*
D03*
D93*
X394908Y837023D02*
D03*
Y835054D02*
D03*
Y833086D02*
D03*
Y831117D02*
D03*
X405932D02*
D03*
Y833086D02*
D03*
Y835054D02*
D03*
Y837023D02*
D03*
X255133Y836983D02*
D03*
Y835014D02*
D03*
Y833046D02*
D03*
Y831077D02*
D03*
X266157D02*
D03*
Y833046D02*
D03*
Y835014D02*
D03*
Y836983D02*
D03*
D94*
X192693Y522313D02*
D03*
X200173D02*
D03*
X192693Y512864D02*
D03*
X196433D02*
D03*
X200173D02*
D03*
X192849Y492603D02*
D03*
X200329D02*
D03*
X192849Y483154D02*
D03*
X196589D02*
D03*
X200329D02*
D03*
X222073Y522313D02*
D03*
X229554D02*
D03*
X222073Y512864D02*
D03*
X225814D02*
D03*
X229554D02*
D03*
X222244Y492606D02*
D03*
X229725D02*
D03*
X222244Y483157D02*
D03*
X225985D02*
D03*
X229725D02*
D03*
X251454Y522313D02*
D03*
X258934D02*
D03*
X251454Y512864D02*
D03*
X255194D02*
D03*
X258934D02*
D03*
X251640Y492593D02*
D03*
X259120D02*
D03*
X251640Y483144D02*
D03*
X255380D02*
D03*
X259120D02*
D03*
X280835Y522313D02*
D03*
X288315D02*
D03*
X280835Y512864D02*
D03*
X284575D02*
D03*
X288315D02*
D03*
X281035Y492600D02*
D03*
X288515D02*
D03*
X281035Y483151D02*
D03*
X284775D02*
D03*
X288515D02*
D03*
X310216Y522313D02*
D03*
X317696D02*
D03*
X310216Y512864D02*
D03*
X313956D02*
D03*
X317696D02*
D03*
X310431Y492595D02*
D03*
X317911D02*
D03*
X310431Y483146D02*
D03*
X314171D02*
D03*
X317911D02*
D03*
X339596Y522313D02*
D03*
X347077D02*
D03*
X339596Y512864D02*
D03*
X343337D02*
D03*
X347077D02*
D03*
X339826Y492596D02*
D03*
X347306D02*
D03*
X339826Y483147D02*
D03*
X343566D02*
D03*
X347306D02*
D03*
X368977Y522313D02*
D03*
X376457D02*
D03*
X368977Y512864D02*
D03*
X372717D02*
D03*
X376457D02*
D03*
X369221Y492600D02*
D03*
X376701D02*
D03*
X369221Y483151D02*
D03*
X372961D02*
D03*
X376701D02*
D03*
X398358Y522313D02*
D03*
X405838D02*
D03*
X398358Y512864D02*
D03*
X402098D02*
D03*
X405838D02*
D03*
X398617Y492600D02*
D03*
X406097D02*
D03*
X398617Y483151D02*
D03*
X402357D02*
D03*
X406097D02*
D03*
X427739Y522313D02*
D03*
X435219D02*
D03*
X427739Y512864D02*
D03*
X431479D02*
D03*
X435219D02*
D03*
X428012Y492604D02*
D03*
X435492D02*
D03*
X428012Y483155D02*
D03*
X431752D02*
D03*
X435492D02*
D03*
X457119Y522313D02*
D03*
X464600D02*
D03*
X457119Y512864D02*
D03*
X460859D02*
D03*
X464600D02*
D03*
X457207Y492317D02*
D03*
X464687D02*
D03*
X457207Y482868D02*
D03*
X460947D02*
D03*
X464687D02*
D03*
X486510Y522313D02*
D03*
X493990D02*
D03*
X486510Y512864D02*
D03*
X490250D02*
D03*
X493990D02*
D03*
X486500Y492599D02*
D03*
X493980D02*
D03*
X486500Y483150D02*
D03*
X490240D02*
D03*
X493980D02*
D03*
X490235Y878884D02*
D03*
X497715D02*
D03*
X490235Y869436D02*
D03*
X493975D02*
D03*
X497715D02*
D03*
X495839Y849722D02*
D03*
X503319D02*
D03*
X495839Y840273D02*
D03*
X499579D02*
D03*
X503319D02*
D03*
D95*
X385501Y849888D02*
D03*
Y836502D02*
D03*
X245115Y849796D02*
D03*
Y836410D02*
D03*
D96*
X192666Y442418D02*
D03*
X179674D02*
D03*
X222040D02*
D03*
X209048D02*
D03*
X251414D02*
D03*
X238422D02*
D03*
X280788D02*
D03*
X267796D02*
D03*
X310162D02*
D03*
X297170D02*
D03*
X339537D02*
D03*
X326544D02*
D03*
X368911D02*
D03*
X355919D02*
D03*
X398285D02*
D03*
X385293D02*
D03*
X427959D02*
D03*
X414967D02*
D03*
X457091D02*
D03*
X444099D02*
D03*
X486473D02*
D03*
X473481D02*
D03*
X515782D02*
D03*
X502790D02*
D03*
D97*
X184398Y452515D02*
D03*
X187941D02*
D03*
X213772D02*
D03*
X217316D02*
D03*
X243146D02*
D03*
X246690D02*
D03*
X272521D02*
D03*
X276064D02*
D03*
X301895D02*
D03*
X305438D02*
D03*
X331269D02*
D03*
X334812D02*
D03*
X360643D02*
D03*
X364187D02*
D03*
X390017D02*
D03*
X393561D02*
D03*
X419691D02*
D03*
X423235D02*
D03*
X448823D02*
D03*
X452367D02*
D03*
X478205D02*
D03*
X481749D02*
D03*
X507514D02*
D03*
X511058D02*
D03*
X236207Y784005D02*
D03*
X232663D02*
D03*
X236267Y787255D02*
D03*
X232723D02*
D03*
X377009Y783869D02*
D03*
X373465D02*
D03*
X377068Y787255D02*
D03*
X373524D02*
D03*
X190428Y469250D02*
D03*
X193972D02*
D03*
X219778Y468750D02*
D03*
X223322D02*
D03*
X249128D02*
D03*
X252672D02*
D03*
X278478D02*
D03*
X282022D02*
D03*
X307828D02*
D03*
X311372D02*
D03*
X337178D02*
D03*
X340722D02*
D03*
X366528D02*
D03*
X370072D02*
D03*
X395878D02*
D03*
X399422D02*
D03*
X425228D02*
D03*
X428772D02*
D03*
X454578D02*
D03*
X458122D02*
D03*
X483928D02*
D03*
X487472D02*
D03*
X487953Y857810D02*
D03*
X491497D02*
D03*
X193972Y465800D02*
D03*
X190428D02*
D03*
X223327Y465260D02*
D03*
X219783D02*
D03*
X252682D02*
D03*
X249138D02*
D03*
X282037D02*
D03*
X278493D02*
D03*
X311392D02*
D03*
X307848D02*
D03*
X340747D02*
D03*
X337203D02*
D03*
X370102D02*
D03*
X366558D02*
D03*
X399457D02*
D03*
X395913D02*
D03*
X428812D02*
D03*
X425268D02*
D03*
X458167D02*
D03*
X454623D02*
D03*
X487522Y464800D02*
D03*
X483978D02*
D03*
X510147Y830160D02*
D03*
X506603D02*
D03*
X186853Y526769D02*
D03*
X183310D02*
D03*
X186971Y496769D02*
D03*
X183427D02*
D03*
X216202Y526769D02*
D03*
X212659D02*
D03*
X216358Y496769D02*
D03*
X212814D02*
D03*
X245551Y526769D02*
D03*
X242007D02*
D03*
X245745Y496769D02*
D03*
X242201D02*
D03*
X274899Y526769D02*
D03*
X271356D02*
D03*
X275132Y496769D02*
D03*
X271588D02*
D03*
X304248Y526769D02*
D03*
X300705D02*
D03*
X304519Y496769D02*
D03*
X300975D02*
D03*
X333698Y526776D02*
D03*
X330154D02*
D03*
X333905Y496769D02*
D03*
X330362D02*
D03*
X363218Y526776D02*
D03*
X359674D02*
D03*
X363292Y496769D02*
D03*
X359749D02*
D03*
X392515Y526714D02*
D03*
X388971D02*
D03*
X392679Y496769D02*
D03*
X389136D02*
D03*
X422007Y526787D02*
D03*
X418463D02*
D03*
X422066Y496769D02*
D03*
X418523D02*
D03*
X450991Y526769D02*
D03*
X447448D02*
D03*
X451453Y496769D02*
D03*
X447910D02*
D03*
X480372Y526950D02*
D03*
X476828D02*
D03*
X480840Y496769D02*
D03*
X477297D02*
D03*
X509651Y526788D02*
D03*
X506108D02*
D03*
X510116Y496788D02*
D03*
X506573D02*
D03*
X201278Y526869D02*
D03*
X197734D02*
D03*
X201823Y496772D02*
D03*
X198280D02*
D03*
X230601Y526869D02*
D03*
X227058D02*
D03*
X231249Y496888D02*
D03*
X227706D02*
D03*
X259925Y526869D02*
D03*
X256381D02*
D03*
X260698Y496806D02*
D03*
X257154D02*
D03*
X289248Y526869D02*
D03*
X285705D02*
D03*
X290072Y496660D02*
D03*
X286528D02*
D03*
X318571Y526869D02*
D03*
X315028D02*
D03*
X319377Y496805D02*
D03*
X315833D02*
D03*
X347895Y526869D02*
D03*
X344352D02*
D03*
X349020Y496630D02*
D03*
X345476D02*
D03*
X377218Y526869D02*
D03*
X373675D02*
D03*
X378463Y496498D02*
D03*
X374919D02*
D03*
X406542Y526869D02*
D03*
X402998D02*
D03*
X407872Y496675D02*
D03*
X404328D02*
D03*
X435865Y526869D02*
D03*
X432322D02*
D03*
X437198Y496888D02*
D03*
X433654D02*
D03*
X465188Y526869D02*
D03*
X461645D02*
D03*
X466619Y496888D02*
D03*
X463076D02*
D03*
X494512Y526869D02*
D03*
X490969D02*
D03*
X496040Y496888D02*
D03*
X492497D02*
D03*
X499178Y883152D02*
D03*
X495635D02*
D03*
X492403Y853810D02*
D03*
X495947D02*
D03*
X192770Y539495D02*
D03*
X196313D02*
D03*
X222140D02*
D03*
X225683D02*
D03*
X251509D02*
D03*
X255053D02*
D03*
X280879D02*
D03*
X284423D02*
D03*
X310249D02*
D03*
X313793D02*
D03*
X339619D02*
D03*
X343162D02*
D03*
X368989D02*
D03*
X372532D02*
D03*
X398359D02*
D03*
X401902D02*
D03*
X427729D02*
D03*
X431272D02*
D03*
X457099D02*
D03*
X460642D02*
D03*
X486469D02*
D03*
X490012D02*
D03*
X495703Y891610D02*
D03*
X499247D02*
D03*
X507103Y836110D02*
D03*
X510647D02*
D03*
X196015Y531588D02*
D03*
X199558D02*
D03*
X198522Y500150D02*
D03*
X194978D02*
D03*
X225343Y531588D02*
D03*
X228887D02*
D03*
X227347Y500150D02*
D03*
X223803D02*
D03*
X254671Y531588D02*
D03*
X258215D02*
D03*
X256697Y500150D02*
D03*
X253153D02*
D03*
X283999Y531588D02*
D03*
X287543D02*
D03*
X286647Y500160D02*
D03*
X283103D02*
D03*
X313328Y531588D02*
D03*
X316871D02*
D03*
X315647Y500160D02*
D03*
X312103D02*
D03*
X342656Y531588D02*
D03*
X346199D02*
D03*
X345447Y500160D02*
D03*
X341903D02*
D03*
X371984Y531588D02*
D03*
X375527D02*
D03*
X374297Y500160D02*
D03*
X370753D02*
D03*
X401312Y531588D02*
D03*
X404856D02*
D03*
X403947Y500160D02*
D03*
X400403D02*
D03*
X430641Y531588D02*
D03*
X434184D02*
D03*
X433047Y500160D02*
D03*
X429503D02*
D03*
X459969Y531588D02*
D03*
X463512D02*
D03*
X463297Y500160D02*
D03*
X459753D02*
D03*
X489297Y531588D02*
D03*
X492840D02*
D03*
X492022Y500200D02*
D03*
X488478D02*
D03*
X495674Y887873D02*
D03*
X492131D02*
D03*
X503497Y855910D02*
D03*
X499953D02*
D03*
D98*
X246200Y762670D02*
D03*
Y758930D02*
D03*
X381500Y758870D02*
D03*
Y755130D02*
D03*
D99*
X229314Y798901D02*
D03*
X233055D02*
D03*
X372842Y798333D02*
D03*
X369102D02*
D03*
D100*
X194850Y503478D02*
D03*
Y507022D02*
D03*
X224225Y503388D02*
D03*
Y506931D02*
D03*
X253575Y503438D02*
D03*
Y506982D02*
D03*
X282625Y503488D02*
D03*
Y507031D02*
D03*
X312230Y503488D02*
D03*
Y507031D02*
D03*
X341275Y503338D02*
D03*
Y506882D02*
D03*
X370775Y503338D02*
D03*
Y506882D02*
D03*
X400125Y503388D02*
D03*
Y506931D02*
D03*
X429275Y503238D02*
D03*
Y506781D02*
D03*
X458825Y503488D02*
D03*
Y507031D02*
D03*
X488300Y503878D02*
D03*
Y507422D02*
D03*
X493227Y833147D02*
D03*
Y829604D02*
D03*
X204350Y506372D02*
D03*
Y502828D02*
D03*
X233625Y506382D02*
D03*
Y502838D02*
D03*
X263090Y506182D02*
D03*
Y502638D02*
D03*
X292125Y506282D02*
D03*
Y502738D02*
D03*
X321675Y506182D02*
D03*
Y502638D02*
D03*
X350975Y506332D02*
D03*
Y502788D02*
D03*
X380275Y505932D02*
D03*
Y502388D02*
D03*
X409875Y506232D02*
D03*
Y502688D02*
D03*
X439075Y505982D02*
D03*
Y502438D02*
D03*
X468375Y506082D02*
D03*
Y502538D02*
D03*
X498050Y506122D02*
D03*
Y502578D02*
D03*
X487975Y864932D02*
D03*
Y861388D02*
D03*
X203600Y477428D02*
D03*
Y480972D02*
D03*
X232935Y477538D02*
D03*
Y481081D02*
D03*
X262270Y477538D02*
D03*
Y481081D02*
D03*
X291605Y477538D02*
D03*
Y481081D02*
D03*
X320940Y477538D02*
D03*
Y481081D02*
D03*
X350275Y477538D02*
D03*
Y481081D02*
D03*
X379610Y477538D02*
D03*
Y481081D02*
D03*
X408945Y477538D02*
D03*
Y481081D02*
D03*
X438280Y477428D02*
D03*
Y480972D02*
D03*
X467615Y477428D02*
D03*
Y480972D02*
D03*
X496950Y477428D02*
D03*
Y480972D02*
D03*
D101*
X194350Y472450D02*
D03*
X190350D02*
D03*
X223690Y472410D02*
D03*
X219690D02*
D03*
X253030D02*
D03*
X249030D02*
D03*
X282370D02*
D03*
X278370D02*
D03*
X311710D02*
D03*
X307710D02*
D03*
X341050D02*
D03*
X337050D02*
D03*
X370390Y472400D02*
D03*
X366390D02*
D03*
X399730D02*
D03*
X395730D02*
D03*
X429070D02*
D03*
X425070D02*
D03*
X458410D02*
D03*
X454410D02*
D03*
X487750D02*
D03*
X483750D02*
D03*
X497725Y835860D02*
D03*
X493725D02*
D03*
D102*
X188208Y530378D02*
D03*
X191752D02*
D03*
X187928Y500200D02*
D03*
X191472D02*
D03*
X217561Y530378D02*
D03*
X221104D02*
D03*
X217308Y500488D02*
D03*
X220851D02*
D03*
X246913Y530378D02*
D03*
X250456D02*
D03*
X246692Y500488D02*
D03*
X250236D02*
D03*
X276266Y530378D02*
D03*
X279809D02*
D03*
X276190Y500347D02*
D03*
X279733D02*
D03*
X305618Y530378D02*
D03*
X309161D02*
D03*
X305478Y500241D02*
D03*
X309022D02*
D03*
X335108Y530262D02*
D03*
X338652D02*
D03*
X334846Y500488D02*
D03*
X338389D02*
D03*
X364323Y530378D02*
D03*
X367866D02*
D03*
X364230Y500488D02*
D03*
X367774D02*
D03*
X393675Y530378D02*
D03*
X397218D02*
D03*
X393615Y500488D02*
D03*
X397158D02*
D03*
X423028Y530378D02*
D03*
X426571D02*
D03*
X422999Y500488D02*
D03*
X426543D02*
D03*
X452380Y530378D02*
D03*
X455923D02*
D03*
X452150Y500338D02*
D03*
X455694D02*
D03*
X481628Y530600D02*
D03*
X485172D02*
D03*
X481778Y500150D02*
D03*
X485322D02*
D03*
X511420Y530464D02*
D03*
X514964D02*
D03*
X510788Y500552D02*
D03*
X514332D02*
D03*
D103*
X231148Y656849D02*
D03*
X219337D02*
D03*
X287405Y672690D02*
D03*
X275594D02*
D03*
X344855D02*
D03*
X333044D02*
D03*
X401921Y656942D02*
D03*
X390109D02*
D03*
X460886D02*
D03*
X449075D02*
D03*
X512852D02*
D03*
X501041D02*
D03*
X208577Y656849D02*
D03*
X196766D02*
D03*
X264920Y672690D02*
D03*
X253109D02*
D03*
X322370Y656942D02*
D03*
X310559D02*
D03*
X379635Y672690D02*
D03*
X367824D02*
D03*
X438401D02*
D03*
X426590D02*
D03*
X490367Y656942D02*
D03*
X478556D02*
D03*
D104*
X362676Y799342D02*
D03*
Y805838D02*
D03*
D105*
X233479Y794987D02*
D03*
X226983D02*
D03*
X373212Y794002D02*
D03*
X366716D02*
D03*
X222652Y809800D02*
D03*
X229148D02*
D03*
D106*
X386600Y764853D02*
D03*
Y758947D02*
D03*
X240600Y767953D02*
D03*
Y762047D02*
D03*
D108*
X293432Y772900D02*
D03*
X289968D02*
D03*
X429296Y819936D02*
D03*
X425832D02*
D03*
X363371Y790151D02*
D03*
X366835D02*
D03*
X194110Y526969D02*
D03*
X190645D02*
D03*
X194641Y496869D02*
D03*
X191176D02*
D03*
X223449Y526969D02*
D03*
X219984D02*
D03*
X224017Y496869D02*
D03*
X220552D02*
D03*
X252788Y526969D02*
D03*
X249323D02*
D03*
X253393Y496869D02*
D03*
X249928D02*
D03*
X282127Y526969D02*
D03*
X278662D02*
D03*
X282769Y496869D02*
D03*
X279304D02*
D03*
X311686Y526839D02*
D03*
X308222D02*
D03*
X312145Y496869D02*
D03*
X308680D02*
D03*
X341277Y526981D02*
D03*
X337813D02*
D03*
X341521Y496869D02*
D03*
X338056D02*
D03*
X370455Y526981D02*
D03*
X366991D02*
D03*
X370897Y496869D02*
D03*
X367432D02*
D03*
X399919Y526945D02*
D03*
X396455D02*
D03*
X400273Y496869D02*
D03*
X396808D02*
D03*
X429201Y526763D02*
D03*
X425737D02*
D03*
X429649Y496869D02*
D03*
X426184D02*
D03*
X458162Y526969D02*
D03*
X454697D02*
D03*
X459025Y496869D02*
D03*
X455560D02*
D03*
X486982Y527100D02*
D03*
X483518D02*
D03*
X488401Y496869D02*
D03*
X484936D02*
D03*
X492153Y883252D02*
D03*
X488689D02*
D03*
X287877Y820535D02*
D03*
X284413D02*
D03*
D109*
X214259Y684305D02*
D03*
Y687376D02*
D03*
X269561Y684265D02*
D03*
Y687335D02*
D03*
X327411Y684265D02*
D03*
Y687335D02*
D03*
X386076Y684265D02*
D03*
Y687335D02*
D03*
X444101Y684265D02*
D03*
Y687335D02*
D03*
X494561Y684265D02*
D03*
Y687335D02*
D03*
D110*
X233340Y806046D02*
D03*
Y802581D02*
D03*
X369077Y805930D02*
D03*
Y802466D02*
D03*
D120*
X512398Y107744D02*
D03*
X506099D02*
D03*
X483039D02*
D03*
X476740D02*
D03*
X453680D02*
D03*
X447381D02*
D03*
X424321D02*
D03*
X418022D02*
D03*
X394962D02*
D03*
X388663D02*
D03*
X365603D02*
D03*
X359304D02*
D03*
X336244D02*
D03*
X329945D02*
D03*
X306885D02*
D03*
X300586D02*
D03*
X277526D02*
D03*
X271227D02*
D03*
X248167D02*
D03*
X241867D02*
D03*
X218808D02*
D03*
X212509D02*
D03*
X189449D02*
D03*
X183149D02*
D03*
D121*
X146200Y563550D02*
D03*
X390000Y939700D02*
D03*
X492900Y384900D02*
D03*
Y609780D02*
D03*
Y283060D02*
D03*
X146200D02*
D03*
X127100Y769500D02*
D03*
X264700Y939700D02*
D03*
X146200Y609780D02*
D03*
Y446420D02*
D03*
X508500Y939700D02*
D03*
X127100Y939900D02*
D03*
X146200Y119700D02*
D03*
X274780Y652700D02*
D03*
X353804D02*
D03*
X432828D02*
D03*
D122*
X426375Y505810D02*
D03*
X194675Y835910D02*
D03*
X188325Y820710D02*
D03*
X491925Y891610D02*
D03*
X362375Y487560D02*
D03*
X416275Y505560D02*
D03*
X498925Y865160D02*
D03*
X494975Y876144D02*
D03*
X481478Y500400D02*
D03*
X500525Y828760D02*
D03*
X499357Y861678D02*
D03*
X507137Y849722D02*
D03*
X504110Y836110D02*
D03*
X220975Y506160D02*
D03*
X250025Y505960D02*
D03*
X456075Y506110D02*
D03*
X406620Y500850D02*
D03*
X397325Y505710D02*
D03*
X368175Y505960D02*
D03*
X338575Y505710D02*
D03*
X309475Y505960D02*
D03*
X279332Y505946D02*
D03*
X289042Y501010D02*
D03*
X289625Y508860D02*
D03*
X376975Y500860D02*
D03*
X377925Y508710D02*
D03*
X348275Y508660D02*
D03*
X347875Y501010D02*
D03*
X435825Y501060D02*
D03*
X465275Y501010D02*
D03*
X245150Y516750D02*
D03*
X260070Y500850D02*
D03*
X230125Y508510D02*
D03*
X230175Y501010D02*
D03*
X405317Y478847D02*
D03*
X375922D02*
D03*
X382125Y472260D02*
D03*
X317175Y478410D02*
D03*
X346527Y478843D02*
D03*
X353112Y471460D02*
D03*
X323475Y471700D02*
D03*
X466050Y508750D02*
D03*
X407317Y508850D02*
D03*
X319131D02*
D03*
X260340Y508750D02*
D03*
X192100Y505950D02*
D03*
X201550Y508750D02*
D03*
X503300Y538350D02*
D03*
X481628Y530600D02*
D03*
X485250Y505750D02*
D03*
X493382Y478882D02*
D03*
X194675Y828910D02*
D03*
X302500Y753386D02*
D03*
X303150Y749305D02*
D03*
X306889Y749650D02*
D03*
X367750Y766150D02*
D03*
X118150Y218100D02*
D03*
X116250Y209520D02*
D03*
X352600Y763500D02*
D03*
X259350Y522300D02*
D03*
X450450Y778250D02*
D03*
X494550Y684200D02*
D03*
X444100D02*
D03*
X386050D02*
D03*
X327400D02*
D03*
X214300D02*
D03*
X269550D02*
D03*
X497585Y685603D02*
D03*
X319600Y814800D02*
D03*
X323200Y812200D02*
D03*
X367900Y745900D02*
D03*
X367700Y708700D02*
D03*
X354600Y696600D02*
D03*
X247300Y754500D02*
D03*
X381500Y750900D02*
D03*
X292200Y769600D02*
D03*
X508600Y793283D02*
D03*
Y778867D02*
D03*
Y764450D02*
D03*
Y750033D02*
D03*
Y735617D02*
D03*
X176525Y786010D02*
D03*
X463185Y845200D02*
D03*
X315500Y919600D02*
D03*
X315300Y904700D02*
D03*
X177300Y747600D02*
D03*
X146600Y742200D02*
D03*
X277800Y925000D02*
D03*
X470500Y887000D02*
D03*
X492099Y907000D02*
D03*
X209500Y921600D02*
D03*
X311971Y922900D02*
D03*
X172875Y859160D02*
D03*
X307300Y848200D02*
D03*
X272700Y845000D02*
D03*
X313700Y815075D02*
D03*
X391333Y831141D02*
D03*
X389100Y685600D02*
D03*
X251200Y859900D02*
D03*
X255140Y867300D02*
D03*
X252240Y886640D02*
D03*
X493400Y627500D02*
D03*
X500100Y635700D02*
D03*
X393556Y539475D02*
D03*
X461000Y574544D02*
D03*
X489000Y641600D02*
D03*
X155600Y721500D02*
D03*
X422300Y702200D02*
D03*
X380400Y656100D02*
D03*
X381200Y630745D02*
D03*
X260600Y648100D02*
D03*
X254900Y657300D02*
D03*
X188000Y844600D02*
D03*
X397200Y628238D02*
D03*
Y614457D02*
D03*
X381000Y562357D02*
D03*
X382500Y576035D02*
D03*
X382500Y589712D02*
D03*
Y603390D02*
D03*
X382550Y617067D02*
D03*
X367900Y626900D02*
D03*
Y610764D02*
D03*
Y594628D02*
D03*
Y578493D02*
D03*
Y562357D02*
D03*
X397100Y586895D02*
D03*
Y600676D02*
D03*
X450700Y845200D02*
D03*
X444100Y851300D02*
D03*
X471800Y853500D02*
D03*
X479900Y848300D02*
D03*
X461000Y586138D02*
D03*
Y597732D02*
D03*
Y609325D02*
D03*
Y620919D02*
D03*
Y632513D02*
D03*
X433800Y638600D02*
D03*
X452100Y639600D02*
D03*
X290700Y658000D02*
D03*
X443750Y631605D02*
D03*
Y619557D02*
D03*
Y607509D02*
D03*
X443700Y595462D02*
D03*
X449567Y583414D02*
D03*
X426500Y630427D02*
D03*
Y617707D02*
D03*
Y604987D02*
D03*
X345500Y623120D02*
D03*
Y611960D02*
D03*
X345500Y600800D02*
D03*
X311100Y573000D02*
D03*
Y584943D02*
D03*
Y596886D02*
D03*
Y608828D02*
D03*
Y620771D02*
D03*
Y632714D02*
D03*
X379400Y643600D02*
D03*
X310950Y642600D02*
D03*
X323925Y642600D02*
D03*
X390625Y639149D02*
D03*
X328300Y621767D02*
D03*
Y610155D02*
D03*
X328300Y598544D02*
D03*
X319750Y586933D02*
D03*
X337050Y634280D02*
D03*
X403600Y639600D02*
D03*
X336900Y642600D02*
D03*
X289100Y600100D02*
D03*
X290900Y618833D02*
D03*
X290700Y637567D02*
D03*
X272733Y585449D02*
D03*
X273100Y599619D02*
D03*
X273300Y613789D02*
D03*
X272800Y626400D02*
D03*
X272100Y637600D02*
D03*
X255700Y631100D02*
D03*
Y614150D02*
D03*
Y600100D02*
D03*
Y586050D02*
D03*
Y572000D02*
D03*
X212385Y697900D02*
D03*
X216585Y697800D02*
D03*
X267500Y697900D02*
D03*
X271700Y697800D02*
D03*
X325250Y697900D02*
D03*
X329450Y697800D02*
D03*
X384015Y697900D02*
D03*
X388215Y697800D02*
D03*
X442234Y697900D02*
D03*
X446434Y697800D02*
D03*
X496700D02*
D03*
X492500Y697900D02*
D03*
X210300Y848700D02*
D03*
X353400Y851800D02*
D03*
X336800Y851500D02*
D03*
X446000Y774500D02*
D03*
X452800Y794500D02*
D03*
X209000Y798395D02*
D03*
X472900Y783000D02*
D03*
X260300Y825140D02*
D03*
X324940Y853550D02*
D03*
X274500Y826800D02*
D03*
X280600Y830700D02*
D03*
X270000Y823800D02*
D03*
X269200Y826800D02*
D03*
X512025Y866560D02*
D03*
X510575Y906060D02*
D03*
X517315Y447031D02*
D03*
X478068Y807884D02*
D03*
X478068Y833711D02*
D03*
X483710Y827759D02*
D03*
X481180Y830611D02*
D03*
X195765Y856824D02*
D03*
X259035Y832133D02*
D03*
X250342Y832655D02*
D03*
X254614Y849675D02*
D03*
X209608Y783549D02*
D03*
X213947Y783514D02*
D03*
X204865Y801990D02*
D03*
X204471Y816814D02*
D03*
X206833Y823938D02*
D03*
X241692Y718339D02*
D03*
X243973Y720752D02*
D03*
X244907Y729898D02*
D03*
X244539Y742831D02*
D03*
X249029Y741291D02*
D03*
X241206Y744496D02*
D03*
X284465Y739058D02*
D03*
X288479Y739145D02*
D03*
X289316Y735471D02*
D03*
X293260Y736021D02*
D03*
X401962Y825033D02*
D03*
X336140Y808490D02*
D03*
X333140Y806725D02*
D03*
X462130Y744336D02*
D03*
X382768Y832858D02*
D03*
X405490Y825725D02*
D03*
X436522Y840235D02*
D03*
X470086Y839575D02*
D03*
X436210Y837235D02*
D03*
X460183Y842174D02*
D03*
X469785Y836481D02*
D03*
X483836Y770286D02*
D03*
X481180Y772858D02*
D03*
X478780Y776314D02*
D03*
X478588Y787870D02*
D03*
X475805Y790327D02*
D03*
X472791Y792400D02*
D03*
X476016Y778848D02*
D03*
X456120Y807696D02*
D03*
X236662Y802674D02*
D03*
X227001Y803038D02*
D03*
X236685Y807474D02*
D03*
X171963Y492600D02*
D03*
X493778Y492666D02*
D03*
X465041Y492215D02*
D03*
X435867Y492407D02*
D03*
X171876Y522300D02*
D03*
X501700Y471350D02*
D03*
X444775Y505910D02*
D03*
X450550Y477168D02*
D03*
X436712Y508673D02*
D03*
X418462Y843479D02*
D03*
X452380Y530378D02*
D03*
X452172Y500324D02*
D03*
X421153Y477157D02*
D03*
X318690Y500850D02*
D03*
X305478Y500241D02*
D03*
X276266Y530378D02*
D03*
X276190Y500347D02*
D03*
X274328Y477657D02*
D03*
X244930Y477519D02*
D03*
X246192Y500418D02*
D03*
X239192Y505264D02*
D03*
X229297Y492617D02*
D03*
X246519Y539509D02*
D03*
X413516Y832210D02*
D03*
X199550Y478850D02*
D03*
X217224Y500404D02*
D03*
X217552Y539495D02*
D03*
X452801Y805262D02*
D03*
X409697Y836126D02*
D03*
X186257Y477553D02*
D03*
X479857Y477539D02*
D03*
X464875Y478249D02*
D03*
X511420Y530464D02*
D03*
X509114Y477417D02*
D03*
X495503Y508652D02*
D03*
X492444Y442418D02*
D03*
X313615Y805880D02*
D03*
X257692Y842313D02*
D03*
X265455Y825160D02*
D03*
X400615Y896600D02*
D03*
X400175Y891450D02*
D03*
X400340Y886640D02*
D03*
X400255Y859580D02*
D03*
X403060Y867270D02*
D03*
X252515Y896600D02*
D03*
X252075Y891450D02*
D03*
X318650Y867325D02*
D03*
X315845Y859990D02*
D03*
X425765Y906600D02*
D03*
X425985Y896600D02*
D03*
X425765Y891600D02*
D03*
X363585Y906600D02*
D03*
X363805Y896600D02*
D03*
X363585Y891600D02*
D03*
X278735Y884205D02*
D03*
X279880Y906600D02*
D03*
X280100Y896600D02*
D03*
X279880Y891600D02*
D03*
X315930Y887050D02*
D03*
X315765Y891860D02*
D03*
X316205Y897010D02*
D03*
X216690Y891600D02*
D03*
X216910Y896600D02*
D03*
X444232Y920892D02*
D03*
X440768Y920928D02*
D03*
X383532Y920892D02*
D03*
X380068Y920928D02*
D03*
X299032Y920892D02*
D03*
X295568Y920928D02*
D03*
X231968D02*
D03*
X235432Y920892D02*
D03*
X266575Y751495D02*
D03*
X419653Y831162D02*
D03*
X292240Y850750D02*
D03*
X269645Y819865D02*
D03*
X200329Y492603D02*
D03*
X200173Y522303D02*
D03*
X378141Y806951D02*
D03*
X411705Y846017D02*
D03*
X434065Y851489D02*
D03*
X510788Y500552D02*
D03*
X276614Y539598D02*
D03*
X259392Y492706D02*
D03*
X305314Y539348D02*
D03*
X288092Y492456D02*
D03*
X298275Y505560D02*
D03*
X303725Y477358D02*
D03*
X334785Y539379D02*
D03*
X317562Y492487D02*
D03*
X334456Y500288D02*
D03*
X333195Y477389D02*
D03*
X364353Y539398D02*
D03*
X347131Y492506D02*
D03*
X364025Y500307D02*
D03*
X393590Y530386D02*
D03*
X376334Y492441D02*
D03*
X393229Y500242D02*
D03*
X423130Y539355D02*
D03*
X405907Y492463D02*
D03*
X422801Y500264D02*
D03*
X453405Y539495D02*
D03*
X185869Y539902D02*
D03*
X479968Y539994D02*
D03*
X187941Y456308D02*
D03*
X217316D02*
D03*
X246690D02*
D03*
X276064D02*
D03*
X305438D02*
D03*
X334812D02*
D03*
X364187D02*
D03*
X393561D02*
D03*
X423235D02*
D03*
X452367D02*
D03*
X481749D02*
D03*
X511058D02*
D03*
X463062Y442418D02*
D03*
X433930D02*
D03*
X404256D02*
D03*
X374882D02*
D03*
X345507D02*
D03*
X316133D02*
D03*
X286759D02*
D03*
X257385D02*
D03*
X228011D02*
D03*
X198636D02*
D03*
X272585Y685707D02*
D03*
X447161D02*
D03*
X217312D02*
D03*
X422783Y857472D02*
D03*
X188208Y530378D02*
D03*
X217561D02*
D03*
X246913D02*
D03*
X305618D02*
D03*
X335108Y530262D02*
D03*
X364323Y530378D02*
D03*
X423028D02*
D03*
X454779Y732002D02*
D03*
X453266Y729272D02*
D03*
X451274Y727022D02*
D03*
X449333Y724589D02*
D03*
X452089Y754869D02*
D03*
X450043Y751996D02*
D03*
X423511Y736888D02*
D03*
X426715Y737348D02*
D03*
X430812Y737253D02*
D03*
X420936Y735077D02*
D03*
X443934Y718147D02*
D03*
X421644Y715630D02*
D03*
X423695Y712993D02*
D03*
X353389Y784627D02*
D03*
X361309Y794970D02*
D03*
X358970Y792611D02*
D03*
X414502Y823288D02*
D03*
X404291Y822516D02*
D03*
X410645Y822100D02*
D03*
X408567Y825028D02*
D03*
X416168Y888702D02*
D03*
X364688Y857518D02*
D03*
X440359Y715125D02*
D03*
X461736Y741249D02*
D03*
X229554Y522313D02*
D03*
X288315D02*
D03*
X317696D02*
D03*
X347077D02*
D03*
X376457D02*
D03*
X435219D02*
D03*
X464600D02*
D03*
X405838D02*
D03*
X329283Y841596D02*
D03*
X331778Y839102D02*
D03*
X319631Y793219D02*
D03*
X317476Y791132D02*
D03*
X315018Y789154D02*
D03*
X312662Y786522D02*
D03*
X307200Y776800D02*
D03*
X328249Y791591D02*
D03*
X324701Y789058D02*
D03*
X290555Y756785D02*
D03*
X398483Y832329D02*
D03*
X375552Y837798D02*
D03*
X378421Y841298D02*
D03*
X364992Y884053D02*
D03*
X361739Y879059D02*
D03*
X321520Y786421D02*
D03*
X318690Y783892D02*
D03*
X334552Y815418D02*
D03*
X321374Y827133D02*
D03*
X324988Y828579D02*
D03*
X303905Y856836D02*
D03*
X264600Y822100D02*
D03*
X272300Y837500D02*
D03*
X269900Y835500D02*
D03*
X402054Y835546D02*
D03*
X366600Y773700D02*
D03*
X466301Y845483D02*
D03*
X424620Y884205D02*
D03*
X457300Y793600D02*
D03*
X249074Y732270D02*
D03*
X330435Y686153D02*
D03*
X268300Y871300D02*
D03*
X326300Y871100D02*
D03*
X413400Y871400D02*
D03*
X475500Y867270D02*
D03*
X472500Y859918D02*
D03*
X338100Y817700D02*
D03*
X201400Y582589D02*
D03*
Y594974D02*
D03*
Y607359D02*
D03*
Y619744D02*
D03*
X214600Y587233D02*
D03*
Y601167D02*
D03*
Y615100D02*
D03*
X108950Y922450D02*
D03*
Y908075D02*
D03*
Y893700D02*
D03*
Y879325D02*
D03*
Y864800D02*
D03*
X226200Y607900D02*
D03*
X250600Y922300D02*
D03*
X262800Y908900D02*
D03*
X332000Y921400D02*
D03*
X344400Y919700D02*
D03*
X340700Y905650D02*
D03*
X341300Y889900D02*
D03*
X405200Y909400D02*
D03*
X449567Y571367D02*
D03*
X426400Y592267D02*
D03*
X485700Y585333D02*
D03*
X494500Y578367D02*
D03*
X512100Y564433D02*
D03*
Y577114D02*
D03*
Y589795D02*
D03*
Y602476D02*
D03*
Y615157D02*
D03*
X496600Y594300D02*
D03*
X485500Y633809D02*
D03*
X480300Y604724D02*
D03*
X512100Y627838D02*
D03*
Y640519D02*
D03*
X290700Y649300D02*
D03*
X124350Y692200D02*
D03*
X137350Y678800D02*
D03*
X151760Y670686D02*
D03*
X175280Y664525D02*
D03*
X145200Y653300D02*
D03*
X158500Y579300D02*
D03*
X175280Y648331D02*
D03*
X163600Y661820D02*
D03*
X145950Y632200D02*
D03*
X128100Y666066D02*
D03*
X175280Y632138D02*
D03*
X156400Y645200D02*
D03*
X128100Y645550D02*
D03*
X175280Y615944D02*
D03*
X163485Y628080D02*
D03*
X160750Y682550D02*
D03*
X143250Y694050D02*
D03*
X175280Y680719D02*
D03*
X148350Y590800D02*
D03*
X146850Y709000D02*
D03*
X175280Y696912D02*
D03*
X160300Y695700D02*
D03*
X163600Y712430D02*
D03*
X175280Y713106D02*
D03*
Y729300D02*
D03*
X127700Y542967D02*
D03*
X175380Y567363D02*
D03*
X127700Y563483D02*
D03*
Y584000D02*
D03*
Y604516D02*
D03*
X175380Y583557D02*
D03*
X127700Y625033D02*
D03*
X175380Y599750D02*
D03*
X163700Y611210D02*
D03*
X140250Y517950D02*
D03*
X151060Y512641D02*
D03*
X127700Y501933D02*
D03*
X139380Y495526D02*
D03*
X151060Y495541D02*
D03*
X147450Y535100D02*
D03*
X159200Y550400D02*
D03*
X127700Y522450D02*
D03*
X151060Y478442D02*
D03*
X139380Y478426D02*
D03*
X127700Y481417D02*
D03*
X151060Y461342D02*
D03*
X127700Y460900D02*
D03*
X129600Y446200D02*
D03*
X114800Y449800D02*
D03*
X124500Y434400D02*
D03*
X147790D02*
D03*
X171080D02*
D03*
X232900Y843400D02*
D03*
X227100Y848500D02*
D03*
X218600Y837300D02*
D03*
X508600Y721200D02*
D03*
X465800Y716600D02*
D03*
X270500Y852100D02*
D03*
X200500Y772800D02*
D03*
X223700Y768300D02*
D03*
X508600Y807700D02*
D03*
X269500Y739000D02*
D03*
X435700Y748300D02*
D03*
X446900Y743100D02*
D03*
X333500Y741000D02*
D03*
X298600Y840600D02*
D03*
X322200Y847400D02*
D03*
X341600Y832100D02*
D03*
X437200Y725100D02*
D03*
X342400Y844300D02*
D03*
X341600Y804200D02*
D03*
X317950Y737150D02*
D03*
X317500Y751800D02*
D03*
X395100Y721200D02*
D03*
X394600Y712900D02*
D03*
X396400Y698100D02*
D03*
X333300Y728200D02*
D03*
X283200Y713900D02*
D03*
X298600Y728500D02*
D03*
X283600Y699100D02*
D03*
X292900Y688700D02*
D03*
X234200Y690700D02*
D03*
X228800Y700000D02*
D03*
X250400Y700300D02*
D03*
X198000Y711800D02*
D03*
X202900Y723300D02*
D03*
X209000Y635100D02*
D03*
X231600Y638200D02*
D03*
X385600Y853300D02*
D03*
X180000Y765300D02*
D03*
X174400Y755300D02*
D03*
X229500Y735200D02*
D03*
X145151Y735211D02*
D03*
X229600Y738200D02*
D03*
X132300Y738500D02*
D03*
X229800Y747400D02*
D03*
X115300Y213300D02*
D03*
X197779Y795621D02*
D03*
X123700Y206800D02*
D03*
X120200Y220500D02*
D03*
X394900Y828725D02*
D03*
X204300Y754300D02*
D03*
X223300Y758300D02*
D03*
X223100Y761300D02*
D03*
X185400Y750100D02*
D03*
X189500Y752200D02*
D03*
X201000Y805000D02*
D03*
X291668Y825132D02*
D03*
X429600Y825600D02*
D03*
X242800Y823500D02*
D03*
X220100Y803500D02*
D03*
X211100Y807500D02*
D03*
X443600Y795500D02*
D03*
X458100Y771700D02*
D03*
X226800Y774700D02*
D03*
X466300Y908500D02*
D03*
X167800Y871900D02*
D03*
X178170Y905230D02*
D03*
X476147Y892147D02*
D03*
X481900Y896600D02*
D03*
X217400Y904500D02*
D03*
X214800Y915400D02*
D03*
X214200Y910000D02*
D03*
X215545Y884205D02*
D03*
X110200Y762650D02*
D03*
X110400Y775425D02*
D03*
X110000Y788200D02*
D03*
X110200Y737100D02*
D03*
X110000Y749875D02*
D03*
X127400D02*
D03*
X357800Y919400D02*
D03*
X362400Y920000D02*
D03*
X462900Y916000D02*
D03*
X184600Y875747D02*
D03*
X184100Y908970D02*
D03*
X482100Y874500D02*
D03*
X335600Y658400D02*
D03*
X332100Y650600D02*
D03*
X194700Y633900D02*
D03*
X222800Y629300D02*
D03*
X381900Y823400D02*
D03*
X381800Y819900D02*
D03*
X432900Y825400D02*
D03*
X437800Y824800D02*
D03*
X365035Y777065D02*
D03*
X358518Y804882D02*
D03*
X297200Y772900D02*
D03*
X309600Y780000D02*
D03*
X222700Y777400D02*
D03*
X212532Y810500D02*
D03*
X223400Y806100D02*
D03*
X242800Y755200D02*
D03*
X295700Y822600D02*
D03*
X443370Y766430D02*
D03*
X447800Y795000D02*
D03*
X243832Y818968D02*
D03*
X362300Y841000D02*
D03*
X194350Y731050D02*
D03*
Y741650D02*
D03*
X324075Y633378D02*
D03*
X183149Y107744D02*
D03*
X212300D02*
D03*
X241867D02*
D03*
X271227D02*
D03*
X300586D02*
D03*
X359000D02*
D03*
X329945D02*
D03*
X388663D02*
D03*
X418022D02*
D03*
X447381D02*
D03*
X506099D02*
D03*
X476740D02*
D03*
X341400Y695200D02*
D03*
X303250Y757500D02*
D03*
X297250Y766550D02*
D03*
X115100Y206700D02*
D03*
X113250Y238150D02*
D03*
Y243200D02*
D03*
X113300Y230850D02*
D03*
X107000Y192350D02*
D03*
Y201267D02*
D03*
X159375Y784410D02*
D03*
X141600Y776450D02*
D03*
X147700Y758000D02*
D03*
X124800Y879325D02*
D03*
Y893700D02*
D03*
Y908075D02*
D03*
Y922450D02*
D03*
X140650Y908075D02*
D03*
Y922450D02*
D03*
X108050Y121850D02*
D03*
Y136225D02*
D03*
Y150600D02*
D03*
Y164975D02*
D03*
Y179350D02*
D03*
X493980Y522313D02*
D03*
X494550Y500850D02*
D03*
X207650Y472400D02*
D03*
X216100Y516000D02*
D03*
X215634Y477556D02*
D03*
X201450Y500850D02*
D03*
X209900Y505650D02*
D03*
X274325Y515760D02*
D03*
X332875Y515510D02*
D03*
X303725D02*
D03*
X362925Y516260D02*
D03*
X392325Y516210D02*
D03*
X421825Y516910D02*
D03*
X450825Y516610D02*
D03*
X480275Y516410D02*
D03*
X186525Y516360D02*
D03*
X508375Y516160D02*
D03*
X268620Y505354D02*
D03*
X327525Y506010D02*
D03*
X356775Y505910D02*
D03*
X385825Y506010D02*
D03*
X473875Y505660D02*
D03*
X503575Y505410D02*
D03*
X187475Y500460D02*
D03*
X171897Y501110D02*
D03*
X171925Y508860D02*
D03*
X178925Y506081D02*
D03*
X235925Y472110D02*
D03*
X266475Y471160D02*
D03*
X391967Y477343D02*
D03*
X411925Y472260D02*
D03*
X435497Y478072D02*
D03*
X470575Y472210D02*
D03*
X169857Y478542D02*
D03*
X176653Y472381D02*
D03*
X441975Y471910D02*
D03*
X228945Y478853D02*
D03*
X258341Y478840D02*
D03*
X295025Y470760D02*
D03*
X287736Y478847D02*
D03*
D123*
X126575Y812110D02*
D03*
Y818060D02*
D03*
X126275Y841660D02*
D03*
X171025Y798063D02*
D03*
X164875Y798060D02*
D03*
X139400Y829800D02*
D03*
Y823938D02*
D03*
D124*
X107000Y192350D02*
D03*
Y201267D02*
D03*
Y210183D02*
D03*
Y219100D02*
D03*
D125*
X201275Y508760D02*
D03*
Y504760D02*
D03*
X230525Y508760D02*
D03*
Y504760D02*
D03*
X259990Y508760D02*
D03*
Y504760D02*
D03*
X288975Y508860D02*
D03*
Y504860D02*
D03*
X318525Y508760D02*
D03*
Y504760D02*
D03*
X347575Y508710D02*
D03*
Y504710D02*
D03*
X377175Y508860D02*
D03*
Y504860D02*
D03*
X406575Y508760D02*
D03*
Y504760D02*
D03*
X435925Y508760D02*
D03*
Y504760D02*
D03*
X465275Y508760D02*
D03*
Y504760D02*
D03*
X494850Y508600D02*
D03*
Y504600D02*
D03*
X492025Y861310D02*
D03*
Y865310D02*
D03*
D126*
X390191Y819106D02*
D03*
X393655D02*
D03*
X251578Y819900D02*
D03*
X255042D02*
D03*
D127*
X461167Y944965D02*
D03*
X497033D02*
D03*
X157467D02*
D03*
X193333D02*
D03*
D128*
X470242Y924492D02*
D03*
X476147D02*
D03*
X482053D02*
D03*
X487958D02*
D03*
X166542D02*
D03*
X172447D02*
D03*
X178353D02*
D03*
X184258D02*
D03*
M02*
